<?xml version="1.0" encoding="utf-8"?>
<!-- Generator: Adobe Illustrator 19.2.0, SVG Export Plug-In . SVG Version: 6.00 Build 0)  -->
<!DOCTYPE svg PUBLIC "-//W3C//DTD SVG 1.1//EN" "http://www.w3.org/Graphics/SVG/1.1/DTD/svg11.dtd">
<svg version="1.1" id="Ebene_1" xmlns="http://www.w3.org/2000/svg" xmlns:xlink="http://www.w3.org/1999/xlink" x="0px" y="0px"
	 viewBox="0 0 269 79.6" style="enable-background:new 0 0 269 79.6;" xml:space="preserve">
<style type="text/css">
	.st0{fill:#00B0EB;}
	.st1{fill:#00428C;}
</style>
<path class="st0" d="M191.8,28.2c-4.1,0-8,1.7-10.7,4.7c-4.7,5.3-4.9,13.2-0.3,18.9c0.3,0.3,8.5,8.1,10.8,10.3
	c1.2,1.1,0.9,3.8-0.3,5.2c-0.7,0.8-1.7,1.3-2.8,1.4c-0.6,0-1.4,0.1-2.4,0.1c-1.4,0-3.7-0.1-3.8-0.1c-2.8,0-5,2.2-5.2,4.9
	c-0.1,2.8,2.1,5.3,4.9,5.4c0.3,0,2.1,0.1,4,0.1c1.3,0,2.4,0,3.3-0.1c3.7-0.3,7.2-2,9.6-4.8c4.6-5.1,4.9-12.8,0.8-18.3
	c-3-3.7-9.9-9.4-10.7-10.4c-1.7-2-1.5-4.3-0.2-5.7c0.7-0.8,1.8-1.3,2.9-1.3c0,0,1.7,0,2.6,0c3.2,0,3.7,0,3.7,0
	c2.6-0.3,4.7-2.5,4.7-5.1c0-2.7-2.1-4.9-4.7-5.2H191.8z"/>
<path class="st0" d="M219.7,33.3v40.8c0,2.9,2.3,5.2,5.2,5.2s5.2-2.3,5.2-5.2V33.3c0-2.9-2.3-5.2-5.2-5.2S219.7,30.5,219.7,33.3"/>
<path class="st1" d="M224.9,17.6c4.8,0,8.8-3.9,8.8-8.8c0-4.8-3.9-8.8-8.8-8.8c-4.8,0-8.8,3.9-8.8,8.8
	C216.1,13.7,220,17.6,224.9,17.6"/>
<path class="st0" d="M250.4,33.4v40.8c0,2.9,2.3,5.2,5.2,5.2c2.9,0,5.2-2.3,5.2-5.2V33.4c0-2.9-2.3-5.2-5.2-5.2
	C252.7,28.2,250.4,30.5,250.4,33.4"/>
<path class="st1" d="M255.6,17.6c4.8,0,8.8-3.9,8.8-8.8c0-4.8-3.9-8.8-8.8-8.8c-4.8,0-8.8,3.9-8.8,8.8
	C246.9,13.7,250.8,17.6,255.6,17.6"/>
<path class="st0" d="M154.8,28.3c-2.8,0-5,2.2-5.2,4.9c-0.9-0.7-1.9-1.3-2.9-1.9c-3.8-2.1-8.2-3.3-12.5-3.3
	c-14.2,0-25.8,11.6-25.8,25.8s11.6,25.8,25.8,25.8c4.5,0,9-1.2,12.9-3.4c0.9-0.5,1.7-1.1,2.6-1.7c0.2,2.7,2.4,4.8,5.2,4.8
	c2.9,0,5.2-2.3,5.2-5.2V33.5C160,30.6,157.7,28.3,154.8,28.3z M141.9,67.2c-2.3,1.3-5,2.1-7.7,2.1c-8.5,0-15.4-6.9-15.4-15.4
	s6.9-15.4,15.4-15.4c2.6,0,5.2,0.7,7.5,1.9c4.9,2.7,7.9,7.9,7.9,13.5C149.6,59.3,146.7,64.5,141.9,67.2z"/>
<g>
	<path class="st0" d="M95.4,74.1v-22c0-0.2,0-0.4,0-0.6c-0.2-6.2-2.8-12.1-7.4-16.4c-4.5-4.4-10.5-6.8-16.8-6.8
		c-7.4,0-14.4,3.4-19,9.2c-4.6-5.8-11.6-9.2-19-9.2c-6.4,0-12.4,2.4-16.9,6.9C11.8,39.6,9.2,45.6,9,51.8v0.1c0,0.1,0,0.2,0,0.2V74
		c0,2.9,2.3,5.2,5.2,5.2s5.2-2.3,5.2-5.2V52.4c0-7.6,6.2-13.8,13.9-13.8C40.8,38.7,47,44.8,47,52.4v0.1v21.6c0,2.8,2.3,5.2,5.2,5.2
		c2.8,0,5.2-2.3,5.2-5.2V52.9c0-0.2,0-0.3,0-0.5c0-7.6,6.2-13.8,13.8-13.8c7.4,0,13.5,5.8,13.8,13.1l0,0c0,0.1,0,0.2,0,0.3v22.1
		c0,2.9,2.3,5.2,5.2,5.2S95.4,77,95.4,74.1"/>
</g>
</svg>
