<?xml version="1.0" standalone="no"?><!DOCTYPE svg PUBLIC "-//W3C//DTD SVG 1.1//EN" "http://www.w3.org/Graphics/SVG/1.1/DTD/svg11.dtd"><svg width="100%" height="100%" viewBox="0 0 39 8" version="1.1" xmlns="http://www.w3.org/2000/svg" xmlns:xlink="http://www.w3.org/1999/xlink" xml:space="preserve" style="fill-rule:evenodd;clip-rule:evenodd;stroke-linejoin:round;stroke-miterlimit:1.41421;"><g id="logo"><g id="logo1"><path d="M11.831,5.762l0,0.172c0.02,0.611 -0.114,1.062 -0.404,1.354c-0.29,0.291 -0.746,0.437 -1.369,0.437c-0.646,0 -1.12,-0.157 -1.419,-0.473c-0.3,-0.315 -0.449,-0.816 -0.449,-1.502l0,-1.946c0,-0.782 0.143,-1.339 0.428,-1.672c0.286,-0.333 0.766,-0.5 1.44,-0.5c0.607,0 1.047,0.141 1.321,0.422c0.254,0.266 0.381,0.671 0.381,1.214l0,0.298l-1.089,0l0,-0.174c0.016,-0.327 -0.027,-0.565 -0.128,-0.714c-0.101,-0.15 -0.267,-0.225 -0.497,-0.225c-0.286,0 -0.485,0.083 -0.598,0.247c-0.113,0.166 -0.169,0.456 -0.169,0.874l0,2.133c0,0.456 0.053,0.77 0.16,0.941c0.107,0.171 0.304,0.256 0.59,0.256c0.257,0 0.445,-0.079 0.562,-0.238c0.117,-0.159 0.167,-0.402 0.151,-0.732l0,-0.172l1.089,0Z" style="fill:#323434;fill-rule:nonzero;"/><path d="M15.586,4.25l0,-0.464c0,-0.508 -0.059,-0.857 -0.178,-1.047c-0.119,-0.19 -0.336,-0.286 -0.649,-0.286c-0.29,0 -0.499,0.104 -0.628,0.313c-0.129,0.208 -0.193,0.548 -0.193,1.02l0,0.464l1.648,0ZM14.759,7.725c-0.702,0 -1.196,-0.169 -1.482,-0.509c-0.285,-0.338 -0.428,-0.921 -0.428,-1.746l0,-1.702c0,-0.726 0.156,-1.263 0.467,-1.612c0.312,-0.35 0.792,-0.524 1.443,-0.524c0.663,0 1.148,0.17 1.455,0.512c0.307,0.341 0.461,0.882 0.461,1.624l0,1.292l-2.737,0l0,0.428c0,0.575 0.054,0.955 0.16,1.139c0.108,0.185 0.328,0.277 0.661,0.277c0.286,0 0.495,-0.073 0.628,-0.217c0.133,-0.145 0.193,-0.368 0.181,-0.67l0,-0.172l1.09,0l0,0.172c0.027,0.579 -0.115,1.009 -0.426,1.289c-0.312,0.279 -0.802,0.419 -1.473,0.419Z" style="fill:#323434;fill-rule:nonzero;"/><path d="M17.752,1.757l1.089,0l0,0.702l0.148,-0.208c0.33,-0.405 0.732,-0.611 1.208,-0.619l0,1.089c-0.504,0 -0.855,0.122 -1.056,0.366c-0.2,0.244 -0.3,0.676 -0.3,1.294l0,3.219l-0.542,0l-0.547,0l0,-5.843Z" style="fill:#323434;fill-rule:nonzero;"/><path d="M23.797,7.642c-0.273,0.059 -0.502,0.087 -0.684,0.083c-0.468,0 -0.797,-0.093 -0.988,-0.28c-0.19,-0.186 -0.285,-0.505 -0.285,-0.957l0,-3.928l-0.762,0l0,-0.803l0.762,0l0,-1.053l1.088,-0.452l0,1.505l0.869,0l0,0.803l-0.869,0l0,3.755c0,0.218 0.064,0.371 0.191,0.458c0.127,0.088 0.353,0.131 0.678,0.131l0,0.738Z" style="fill:#323434;fill-rule:nonzero;"/><path d="M27.52,4.822l-0.238,0c-0.444,0 -0.782,0.103 -1.014,0.312c-0.232,0.208 -0.349,0.511 -0.349,0.908l0,-0.013c0,0.314 0.052,0.538 0.155,0.673c0.103,0.134 0.274,0.202 0.512,0.202c0.321,0 0.561,-0.131 0.72,-0.393c0.158,-0.261 0.23,-0.644 0.214,-1.148l0,-0.541ZM26.175,7.725c-0.444,0 -0.782,-0.141 -1.011,-0.422c-0.23,-0.282 -0.345,-0.693 -0.345,-1.232l0,0.012c0,-0.774 0.188,-1.312 0.565,-1.616c0.377,-0.303 1.043,-0.455 1.999,-0.455l0.137,0l0,-0.696c0,-0.278 -0.063,-0.491 -0.187,-0.64c-0.125,-0.148 -0.305,-0.223 -0.539,-0.223c-0.246,0 -0.435,0.084 -0.568,0.25c-0.133,0.166 -0.199,0.405 -0.199,0.714l-1.078,0c-0.015,-0.559 0.137,-0.997 0.459,-1.312c0.321,-0.315 0.777,-0.473 1.368,-0.473c0.635,0 1.099,0.143 1.393,0.429c0.293,0.285 0.44,0.735 0.44,1.35l0,4.189l-1.089,0l0,-0.607c-0.024,0.068 -0.058,0.133 -0.101,0.197c-0.234,0.357 -0.649,0.535 -1.244,0.535Z" style="fill:#8C8C8C;fill-rule:nonzero;"/><path d="M33.397,5.762l0,0.172c0.019,0.611 -0.115,1.062 -0.405,1.354c-0.289,0.291 -0.746,0.437 -1.368,0.437c-0.647,0 -1.12,-0.157 -1.42,-0.473c-0.299,-0.315 -0.449,-0.816 -0.449,-1.502l0,-1.946c0,-0.782 0.143,-1.339 0.429,-1.672c0.285,-0.333 0.765,-0.5 1.44,-0.5c0.607,0 1.047,0.141 1.32,0.422c0.254,0.266 0.381,0.671 0.381,1.214l0,0.298l-1.088,0l0,-0.174c0.015,-0.327 -0.027,-0.565 -0.129,-0.714c-0.1,-0.15 -0.266,-0.225 -0.496,-0.225c-0.286,0 -0.485,0.083 -0.598,0.247c-0.114,0.166 -0.17,0.456 -0.17,0.874l0,2.133c0,0.456 0.053,0.77 0.161,0.941c0.107,0.171 0.303,0.256 0.589,0.256c0.258,0 0.445,-0.079 0.562,-0.238c0.117,-0.159 0.168,-0.402 0.152,-0.732l0,-0.172l1.089,0Z" style="fill:#8C8C8C;fill-rule:nonzero;"/><path d="M37.151,4.25l0,-0.464c0,-0.508 -0.059,-0.857 -0.178,-1.047c-0.119,-0.19 -0.335,-0.286 -0.649,-0.286c-0.289,0 -0.499,0.104 -0.628,0.313c-0.128,0.208 -0.193,0.548 -0.193,1.02l0,0.464l1.648,0ZM36.324,7.725c-0.702,0 -1.196,-0.169 -1.481,-0.509c-0.286,-0.338 -0.429,-0.921 -0.429,-1.746l0,-1.702c0,-0.726 0.156,-1.263 0.468,-1.612c0.311,-0.35 0.792,-0.524 1.442,-0.524c0.663,0 1.148,0.17 1.455,0.512c0.308,0.341 0.461,0.882 0.461,1.624l0,1.292l-2.737,0l0,0.428c0,0.575 0.054,0.955 0.161,1.139c0.107,0.185 0.327,0.277 0.66,0.277c0.286,0 0.495,-0.073 0.628,-0.217c0.133,-0.145 0.193,-0.368 0.181,-0.67l0,-0.172l1.09,0l0,0.172c0.027,0.579 -0.115,1.009 -0.426,1.289c-0.311,0.279 -0.802,0.419 -1.473,0.419Z" style="fill:#8C8C8C;fill-rule:nonzero;"/><path d="M4.668,1.822c0.57,0.571 1.46,1.222 1.46,2.216c0,0.403 -0.163,0.768 -0.427,1.032c-0.265,0.264 -0.63,0.428 -1.033,0.428c-0.342,0 -0.653,-0.123 -0.903,-0.32c0.142,0.899 0.433,1.953 1.028,2.548l-1.589,0l0,-7.474c0,0 1.034,1.14 1.464,1.57Z" style="fill:#8C8C8C;fill-rule:nonzero;"/><path d="M0.707,5.07c-0.264,-0.264 -0.427,-0.629 -0.427,-1.032c0,-0.994 0.889,-1.645 1.46,-2.216c0.43,-0.43 1.464,-1.57 1.464,-1.57l0,7.474l-0.002,0l-1.59,0c0.594,-0.595 0.885,-1.647 1.027,-2.545c-0.249,0.195 -0.559,0.317 -0.899,0.317c-0.404,0 -0.769,-0.164 -1.033,-0.428Z" style="fill:#323434;fill-rule:nonzero;"/></g></g></svg>
