<?xml version="1.0" encoding="UTF-8" standalone="no"?>
<svg width="135px" height="30px" viewBox="0 0 135 30" version="1.1" xmlns="http://www.w3.org/2000/svg" xmlns:xlink="http://www.w3.org/1999/xlink">
    <!-- Generator: Sketch 49.3 (51167) - http://www.bohemiancoding.com/sketch -->
    <title>logo-black</title>
    <desc>Created with Sketch.</desc>
    <defs></defs>
    <g id="Pages" stroke="none" stroke-width="1" fill="none" fill-rule="evenodd">
        <g id="01-home-landing-a" transform="translate(-235.000000, -22.000000)" fill="#000000">
            <g id="#header">
                <g id="@top-bar">
                    <g id="logo-black" transform="translate(235.000000, 22.000000)">
                        <path d="M29.688,21.056 C27.208,21.056 26.12,19.888 25.896,18.48 L27.256,18.48 C27.448,19.44 28.248,19.936 29.672,19.936 C31.32,19.936 32.36,19.152 32.36,17.36 L32.36,16.144 C31.88,16.96 30.744,17.728 29.528,17.728 C27.336,17.728 25.72,16.064 25.72,13.76 L25.72,13.648 C25.72,11.376 27.32,9.488 29.624,9.488 C31.016,9.488 31.88,10.16 32.36,10.976 L32.36,9.632 L33.688,9.632 L33.688,17.44 C33.672,19.872 32.024,21.056 29.688,21.056 Z M29.672,16.624 C31.224,16.624 32.408,15.536 32.408,13.664 L32.408,13.552 C32.408,11.68 31.384,10.592 29.752,10.592 C28.088,10.592 27.096,11.824 27.096,13.584 L27.096,13.712 C27.096,15.536 28.264,16.624 29.672,16.624 Z M36.376,18 L36.376,9.632 L37.704,9.632 L37.704,11.136 C38.232,10.192 38.952,9.536 40.456,9.488 L40.456,10.736 C38.776,10.816 37.704,11.344 37.704,13.408 L37.704,18 L36.376,18 Z M45.88,17.04 C47.56,17.04 48.616,15.776 48.616,13.888 L48.616,13.776 C48.616,11.84 47.544,10.592 45.88,10.592 C44.2,10.592 43.144,11.84 43.144,13.76 L43.144,13.888 C43.144,15.792 44.184,17.04 45.88,17.04 Z M45.864,18.144 C43.48,18.144 41.768,16.336 41.768,13.888 L41.768,13.76 C41.768,11.248 43.512,9.488 45.88,9.488 C48.248,9.488 49.992,11.232 49.992,13.744 L49.992,13.872 C49.992,16.4 48.248,18.144 45.864,18.144 Z M53.736,18 L51.16,9.632 L52.6,9.632 L54.552,16.368 L56.584,9.632 L57.736,9.632 L59.64,16.368 L61.608,9.632 L62.968,9.632 L60.36,18 L58.888,18 L57.144,11.728 L55.192,18 L53.736,18 Z M67.304,18.112 C65.784,18.112 65.048,17.216 65.048,15.904 L65.048,10.752 L63.848,10.752 L63.848,9.632 L65.048,9.632 L65.048,7.728 L66.376,7.728 L66.376,9.632 L68.328,9.632 L68.328,10.752 L66.376,10.752 L66.376,15.776 C66.376,16.592 66.744,16.992 67.416,16.992 C67.832,16.992 68.152,16.928 68.44,16.816 L68.44,17.936 C68.168,18.032 67.848,18.112 67.304,18.112 Z M70.44,18 L70.44,5.632 L71.768,5.632 L71.768,10.96 C72.152,10.176 73.08,9.488 74.456,9.488 C76.184,9.488 77.4,10.432 77.4,12.864 L77.4,18 L76.072,18 L76.072,12.768 C76.072,11.296 75.448,10.64 74.104,10.64 C72.872,10.64 71.768,11.424 71.768,12.928 L71.768,18 L70.44,18 Z M79.688,18 L79.688,9.632 L82.008,9.632 L82.008,10.912 C82.424,10.128 83.32,9.44 84.568,9.44 C85.672,9.44 86.504,9.904 86.904,10.896 C87.576,9.888 88.664,9.44 89.72,9.44 C91.272,9.44 92.472,10.416 92.472,12.64 L92.472,18 L90.168,18 L90.168,12.896 C90.168,11.824 89.688,11.344 88.856,11.344 C87.96,11.344 87.24,11.92 87.24,13.056 L87.24,18 L84.936,18 L84.936,12.896 C84.936,11.824 84.44,11.344 83.624,11.344 C82.728,11.344 82.008,11.92 82.008,13.056 L82.008,18 L79.688,18 Z M98.312,18.176 C95.784,18.176 93.944,16.592 93.944,13.92 L93.944,13.792 C93.944,11.152 95.816,9.44 98.248,9.44 C100.408,9.44 102.328,10.704 102.328,13.696 L102.328,14.336 L96.296,14.336 C96.36,15.728 97.112,16.528 98.376,16.528 C99.448,16.528 99.976,16.064 100.12,15.36 L102.312,15.36 C102.04,17.168 100.6,18.176 98.312,18.176 Z M96.328,12.912 L100.072,12.912 C99.992,11.648 99.352,11.04 98.248,11.04 C97.208,11.04 96.504,11.728 96.328,12.912 Z M103.848,18 L103.848,9.632 L106.168,9.632 L106.168,10.96 C106.584,10.128 107.496,9.44 108.888,9.44 C110.536,9.44 111.704,10.432 111.704,12.672 L111.704,18 L109.384,18 L109.384,13.008 C109.384,11.872 108.936,11.328 107.912,11.328 C106.92,11.328 106.168,11.936 106.168,13.168 L106.168,18 L103.848,18 Z M116.744,18.16 C114.984,18.16 114.04,17.264 114.04,15.52 L114.04,11.28 L112.968,11.28 L112.968,9.632 L114.04,9.632 L114.04,7.824 L116.344,7.824 L116.344,9.632 L118.104,9.632 L118.104,11.28 L116.344,11.28 L116.344,15.312 C116.344,15.984 116.68,16.304 117.272,16.304 C117.624,16.304 117.88,16.256 118.152,16.144 L118.152,17.936 C117.832,18.048 117.368,18.16 116.744,18.16 Z M123.624,16.416 C124.92,16.416 125.672,15.456 125.672,13.872 L125.672,13.76 C125.672,12.16 124.92,11.2 123.624,11.2 C122.344,11.2 121.576,12.128 121.576,13.728 L121.576,13.856 C121.576,15.456 122.312,16.416 123.624,16.416 Z M123.608,18.176 C121.112,18.176 119.208,16.512 119.208,13.904 L119.208,13.776 C119.208,11.152 121.112,9.44 123.624,9.44 C126.136,9.44 128.024,11.12 128.024,13.728 L128.024,13.856 C128.024,16.496 126.12,18.176 123.608,18.176 Z M129.576,18 L129.576,9.632 L131.896,9.632 L131.896,11.232 C132.424,10.112 133.24,9.52 134.6,9.504 L134.6,11.664 C132.888,11.648 131.896,12.208 131.896,13.808 L131.896,18 L129.576,18 Z" id="growthmentor"></path>
                        <g id="Food-03-Copy">
                            <path d="M6,24 L4.5,24 C2.0197725,24 0,21.9852825 0,19.5 L0,16.5063975 C0,16.0917443 0.168354,15.7154025 0.440595,15.44259 C0.15826575,14.854512 0,14.1956925 0,13.5 L0,10.5063975 C0,10.0917443 0.168354,9.7154025 0.440595,9.44259 C0.15826575,8.854512 0,8.1956925 0,7.5 L0,4.5063975 C0,3.6764625 0.6744375,3 1.5063975,3 L4.5,3 C5.08501425,3 5.64441,3.11208975 6.157725,3.316005 C6.67853925,1.405125 8.4287025,-8.8817842e-16 10.5,-8.8817842e-16 L13.4936025,-8.8817842e-16 C14.3255625,-8.8817842e-16 15,0.6764625 15,1.5063975 L15,4.5 C15,5.19569325 14.8417343,5.854515 14.559405,6.44259 C14.831646,6.715398 15,7.09174125 15,7.5063975 L15,10.5 C15,11.1956933 14.8417343,11.854515 14.559405,12.44259 C14.831646,12.715398 15,13.0917413 15,13.5063975 L15,16.5 C15,18.9852825 12.9802275,21 10.5,21 L9,21 L9,28.500075 C9,29.3284725 8.3342025,30.000015 7.5,30.000015 C6.6715725,30.000015 6,29.3310593 6,28.500075 L6,24.000015 L6,24 Z M6,19.5000375 C6,18.673875 5.3256375,18.0000375 4.5,18.0000375 L3,18.0000375 L3,19.5000375 C3,20.3262 3.6743625,21.0000375 4.5,21.0000375 L6,21.0000375 L6,19.5000375 Z M6,13.5000375 C6,12.673875 5.3256375,12.0000375 4.5,12.0000375 L3,12.0000375 L3,13.5000375 C3,14.3262 3.6743625,15.0000375 4.5,15.0000375 L6,15.0000375 L6,13.5000375 Z M6,7.5000375 C6,6.673875 5.3256375,6.0000375 4.5,6.0000375 L3,6.0000375 L3,7.5000375 C3,8.3262 3.6743625,9.0000375 4.5,9.0000375 L6,9.0000375 L6,7.5000375 Z M9,4.5000375 L9,6.0000375 L10.5,6.0000375 C11.3256375,6.0000375 12,5.3261985 12,4.5000375 L12,3.0000375 L10.5,3.0000375 C9.6743625,3.0000375 9,3.67387725 9,4.5000375 Z M9,10.5000375 L9,12.0000375 L10.5,12.0000375 C11.3256375,12.0000375 12,11.3261978 12,10.5000375 L12,9.0000375 L10.5,9.0000375 C9.6743625,9.0000375 9,9.67387725 9,10.5000375 Z M9,16.5000375 L9,18.0000375 L10.5,18.0000375 C11.3256375,18.0000375 12,17.3261978 12,16.5000375 L12,15.0000375 L10.5,15.0000375 C9.6743625,15.0000375 9,15.6738772 9,16.5000375 Z" id="Shape"></path>
                        </g>
                    </g>
                </g>
            </g>
        </g>
    </g>
</svg>