<svg width="1440" height="559" viewBox="0 0 1440 559" xmlns="http://www.w3.org/2000/svg"><title>28C3116E-04FB-4840-B61C-0552C5F00E9E</title><g transform="translate(-5 -470)" fill="none" fill-rule="evenodd"><circle fill-opacity=".2" fill="#EE3660" cx="724" cy="724" r="34"/><circle fill-opacity=".1" fill="#EE3660" cx="724" cy="724" r="40"/><circle stroke-opacity=".1" stroke="#EE3660" cx="723.5" cy="723.5" r="51.5"/><circle stroke-opacity=".1" stroke="#EE3660" cx="723" cy="723" r="98"/><circle stroke-opacity=".1" stroke="#EE3660" cx="723" cy="723" r="175"/><circle stroke-opacity=".1" stroke="#EE3660" cx="723" cy="723" r="465"/><circle stroke-opacity=".1" stroke="#EE3660" cx="723" cy="723" r="531"/><circle stroke-opacity=".1" stroke="#EE3660" cx="723" cy="723" r="723"/><circle fill="#FFF" cx="724" cy="724" r="28"/><path d="M706.68 724.34l9.2-3.54v2.42l-3.52 1.16-2.7.94v.08l2.7.94 3.52 1.16v2.42l-9.2-3.54v-2.04zM725 717.8h1.92l-4.02 17.4h-1.92l4.02-17.4zm16.54 8.58l-9.2 3.54v-2.42l3.52-1.16 2.7-.94v-.08l-2.7-.94-3.52-1.16v-2.42l9.2 3.54v2.04z" fill="#EE3660"/><circle stroke-opacity=".1" stroke="#EE3660" fill="#FFF" cx="259" cy="716" r="19"/><circle stroke-opacity=".1" stroke="#EE3660" fill="#FFF" cx="1172" cy="853" r="19"/><circle stroke-opacity=".1" stroke="#EE3660" fill="#FFF" cx="1160.5" cy="574.5" r="15.5"/><circle stroke-opacity=".1" stroke="#EE3660" fill="#FFF" cx="228.5" cy="918.5" r="15.5"/></g></svg>