<svg width="38" height="26" viewBox="0 0 38 26" xmlns="http://www.w3.org/2000/svg" xmlns:xlink="http://www.w3.org/1999/xlink"><title>9F7CFF8E-CB9D-44A3-878B-42B2446592DB</title><defs><path d="M8.34 19.571c-4.043 0-7.34 3.272-7.34 7.286a.86.86 0 0 0 .864.857h7.449a11 11 0 0 0-.54 3.429.86.86 0 0 0 .863.857h20.728a.86.86 0 0 0 .863-.857 11 11 0 0 0-.54-3.429h7.45a.86.86 0 0 0 .863-.857c0-4.014-3.297-7.286-7.34-7.286a7.34 7.34 0 0 0-5.372 2.344c-.002.002-.011-.002-.013 0a11.237 11.237 0 0 0-12.55 0 7.34 7.34 0 0 0-5.384-2.344z" id="a"/><mask id="e" x="0" y="0" width="38" height="12.429" fill="#fff"><use xlink:href="#a"/></mask><path d="M20 8c2.395 0 4.318 1.909 4.318 4.286S22.395 16.57 20 16.57c-2.395 0-4.318-1.908-4.318-4.285C15.682 9.909 17.605 8 20 8z" id="b"/><mask id="f" x="-2" y="-2" width="12.636" height="12.571"><path fill="#fff" d="M13.682 6h12.636v12.571H13.682z"/><use xlink:href="#b"/></mask><path d="M8.34 11.857c1.204 0 2.16.95 2.16 2.143a2.139 2.139 0 0 1-2.16 2.143A2.138 2.138 0 0 1 6.182 14c0-1.193.956-2.143 2.159-2.143z" id="c"/><mask id="g" x="-2" y="-2" width="8.318" height="8.286"><path fill="#fff" d="M4.182 9.857H12.5v8.286H4.182z"/><use xlink:href="#c"/></mask><path d="M31.66 11.857c1.202 0 2.158.95 2.158 2.143a2.139 2.139 0 0 1-2.159 2.143A2.138 2.138 0 0 1 29.5 14c0-1.193.956-2.143 2.16-2.143z" id="d"/><mask id="h" x="-2" y="-2" width="8.318" height="8.286"><path fill="#fff" d="M27.5 9.857h8.318v8.286H27.5z"/><use xlink:href="#d"/></mask></defs><g transform="translate(-1 -6)" fill="none" fill-rule="evenodd"><path d="M0 0h40v40H0z"/><use stroke="#EE3660" mask="url(#e)" stroke-width="4" xlink:href="#a"/><use stroke="#EE3660" mask="url(#f)" stroke-width="4" xlink:href="#b"/><use stroke="#EE3660" mask="url(#g)" stroke-width="4" xlink:href="#c"/><use stroke="#EE3660" mask="url(#h)" stroke-width="4" xlink:href="#d"/></g></svg>