<svg width="39" height="26" viewBox="0 0 39 26" xmlns="http://www.w3.org/2000/svg" xmlns:xlink="http://www.w3.org/1999/xlink"><title>B4DAEC8D-6D8C-475E-AAC6-BCA3DB51F507</title><defs><path d="M37.336 10.988c.012-.009-.303.241-.391.306a3.193 3.193 0 0 1-.143.1c-.235.154-.498.091-.695-.04a56.696 56.696 0 0 1-.705-.477c-.63-.43-.912-.618-1.266-.837-1.552-.96-3.096-1.66-4.684-2.1-.893-.247-1.79-.4-2.697-.456-1.839-.114-3.615.255-5.367 1.09-2.53 1.21-4.25 3.19-5.23 5.948a13.86 13.86 0 0 0-.655 2.768 18.006 18.006 0 0 0-.17 2.937c.032 1.142.12 2.092.296 2.987.01.054.013.09.016.156 0 .022.035.529.035.529H2.409l.07-.526c.008-.05.013-.09.024-.185.022-.182.035-.274.056-.385.714-3.842 2.197-7.422 4.424-10.738a23.58 23.58 0 0 1 6.572-6.552c1.359-.903 2.722-1.578 4.139-2.023.86-.27 1.733-.435 2.624-.494.958-.064 1.876-.05 2.767.047 1.915.21 3.81.738 5.732 1.572 2.155.934 4.194 2.154 6.13 3.65.446.345.79.633 1.55 1.288.349.3.503.432.697.595l.14.108-.283.367.285.365z" id="a"/><mask id="b" x="0" y="0" width="34.928" height="20.942" fill="#fff"><use xlink:href="#a"/></mask></defs><g fill="none" fill-rule="evenodd"><path fill="none" d="M0-7h40v40H0z"/><g transform="translate(1 1)" stroke="#EE3660"><use mask="url(#b)" stroke-width="4" fill-rule="nonzero" xlink:href="#a"/><g stroke-linecap="round" fill="#EE3660" stroke-linejoin="round"><path d="M19.339 23.888c-.548-.198-1.094-.393-1.637-.593a.14.14 0 0 1-.074-.095c-.066-.579-.127-1.158-.191-1.766.534.194 1.027.373 1.518.556.032.012.066.06.072.097.106.594.207 1.188.312 1.8M18.09 16.116c.357.285.677.536.99.796.035.029.047.112.037.164-.094.514-.195 1.027-.296 1.548-.014-.008-.047-.023-.075-.045-.327-.259-.654-.517-.977-.781-.038-.031-.077-.103-.068-.144.122-.502.253-1.002.39-1.538M19.77 13.02c.29-.319.581-.636.89-.974l.5.76c.159.24.153.236-.04.458-.221.255-.433.52-.662.795l-.688-1.04M23.71 11.291l-.33-.997 1.265-.465.315.953-1.25.51M28.045 9.47c.466.067.91.13 1.353.198.026.005.066.06.065.09-.014.269-.035.536-.053.797l-1.422-.174.057-.911"/></g><path d="M1.776 17.825L0 17.176l.773-1.852 1.779.649-.776 1.852M6.18 9.325L5.006 8.32l1.181-1.122 1.043.91-1.048 1.218M12.406 2.442l.69 1.058-1.185.68-.707-1.075 1.202-.663M27.538 2.49l-1.493-.554L26.109.9c.495.185.96.358 1.421.538.034.013.067.08.065.122-.014.307-.037.614-.057.93M18.69.094L20.17 0l.312.955c-.143 0-.263-.004-.383 0-.328.014-.656.027-.984.048-.093.006-.143-.014-.17-.11-.075-.254-.16-.504-.254-.8" stroke-linecap="round" stroke-linejoin="round" fill="#EE3660"/></g></g></svg>