<svg width="39" height="27" viewBox="0 0 39 27" xmlns="http://www.w3.org/2000/svg"><title>15CBCC16-5CF5-4EF2-943F-6DDB4D06DF0A</title><g fill="none" fill-rule="evenodd"><path d="M-1-7h40v40H-1z"/><g transform="translate(1 1)" stroke="#EE3660" stroke-width="2"><path d="M10.05 25a10.12 10.12 0 0 1-.05-1c0-5.523 4.477-10 10-10s10 4.477 10 10c0 .337-.017.671-.05 1h-19.9z"/><path d="M29.076 14.216C33.603 15.172 37 19.189 37 24c0 .337-.017.671-.05 1h-3.893" stroke-linecap="round"/><circle cx="20" cy="5" r="5"/><path d="M27 10a5 5 0 0 0 0-10M5 0v10m5-5H0" stroke-linecap="round"/></g></g></svg>