<svg width="38" height="38" viewBox="0 0 38 38" xmlns="http://www.w3.org/2000/svg" xmlns:xlink="http://www.w3.org/1999/xlink"><title>9B6F33C8-B23C-4339-A4C1-6B7AB760E34E</title><defs><rect id="a" x="31.4" width="7.6" height="37.136" rx="2"/><mask id="e" x="0" y="0" width="7.6" height="37.136" fill="#fff"><use xlink:href="#a"/></mask><rect id="b" x="12.822" width="7.6" height="37.136" rx="2"/><mask id="f" x="0" y="0" width="7.6" height="37.136" fill="#fff"><use xlink:href="#b"/></mask><rect id="c" x="22.111" y="3.455" width="7.6" height="33.682" rx="2"/><mask id="g" x="0" y="0" width="7.6" height="33.682" fill="#fff"><use xlink:href="#c"/></mask><rect id="d" x="2.7" y="3.769" width="7.6" height="33.682" rx="2"/><mask id="h" x="0" y="0" width="7.6" height="33.682" fill="#fff"><use xlink:href="#d"/></mask></defs><g fill="none" fill-rule="evenodd"><path fill="none" d="M-1-1h40v40H-1z"/><g transform="translate(-1)" stroke="#EE3660"><path d="M33.244 5.758h4M33.244 30.803h4M23.956 8.348h4M23.956 30.803h4M13.825 5.667h5.595M13.825 30.667h5.595M5.2 9.676l5.135.54M2.851 30.54l4.936.519" stroke-width="2" stroke-linecap="square"/><use mask="url(#e)" stroke-width="4" xlink:href="#a"/><use mask="url(#f)" stroke-width="4" xlink:href="#b"/><use mask="url(#g)" stroke-width="4" xlink:href="#c"/><use mask="url(#h)" stroke-width="4" transform="rotate(6 6.5 20.61)" xlink:href="#d"/></g></g></svg>