<svg viewBox="0 0 5684 730" xmlns="http://www.w3.org/2000/svg" fill-rule="evenodd" clip-rule="evenodd" stroke-linejoin="round" stroke-miterlimit="1.414"><g fill-rule="nonzero"><path d="M105.42 238.2l391.364 391.363 396.054-396.067-157.25-156.62H271.275L105.421 238.2zm391.364 489.784L0 231.209 233.659 2.354H759.9l233.654 228.867-496.771 496.763z" fill="#db3a54"/><path d="M104.683 231.921l142.088 142.083 142.083-142.083L246.771 94.038 104.683 231.92zm142.088 245.613L.721 231.5 249.05 2.383l9.878.046L492.813 231.5 246.77 477.534z" fill="#db3a54"/><path fill="#db3a54" d="M246.613 377.838h505.013v72.842H246.613z"/><path d="M5309.88 5.408l296.166 266.484V5.408h74.375v444.55-.603 1.25l-296.833-266.48V449.96h-73.709V5.409zm-329.918 74.917c-40.583 0-75.625 14.53-105.125 43.596-28.625 29.03-42.958 63.833-42.958 104.408 0 40.542 14.333 75.609 42.958 105.063 29.5 28.587 64.542 42.908 105.125 42.908 40.625 0 75.459-14.32 104.542-42.908 29.042-29.454 43.583-64.521 43.583-105.063 0-40.575-14.541-75.379-43.583-104.408-29.083-29.067-63.917-43.596-104.542-43.596zm0-74.304c61.584 0 113.917 21.77 157.084 65.333 44.041 43.604 66.083 95.871 66.083 156.975 0 61.925-22.042 114.238-66.083 156.934-43.167 43.567-95.5 65.342-157.084 65.342-61.541 0-113.916-21.775-157.083-65.342-43.584-43.117-65.375-95.43-65.375-156.934 0-61.104 21.791-113.37 65.375-156.975 42.75-43.562 95.125-65.333 157.083-65.333zm-574.625 259.438c-35.917 0-66.459-12.588-91.667-37.813-25.208-25.188-37.833-55.942-37.833-92.208 0-35.446 12.625-65.763 37.833-90.996 24.792-25.617 55.333-38.421 91.667-38.421h241.042v74.304h-241.042c-7.667 0-14.917 1.413-21.792 4.133-6.833 2.8-12.833 6.78-17.958 11.867-5.125 5.125-9.084 11.13-11.834 17.938-2.75 6.854-4.208 13.933-4.208 21.175 0 15.358 5.375 28.591 16.042 39.716 10.708 11.092 23.958 16.65 39.75 16.65h110.917c35.916 0 66.5 12.596 91.666 37.83 25.667 25.179 38.459 55.708 38.459 91.55 0 35.491-12.792 65.983-38.459 91.6-25.166 25.233-55.75 37.82-91.666 37.82h-240.417V376.3h240.417c7.708 0 14.958-1.383 21.791-4.141 6.875-2.8 12.834-6.646 18-11.559 5.084-4.92 9.042-10.779 11.834-17.591 2.75-6.863 4.166-14.109 4.166-21.825 0-14.921-5.541-27.95-16.666-39.075-10.709-11.084-23.75-16.65-39.125-16.65h-110.917zM3999.52 80.325h-148.734v147.321l148.734.683c20.067 0 37.375-7.241 51.93-21.783 14.54-14.52 21.79-32.038 21.79-52.52 0-20.093-7.25-37.388-21.79-51.88-14.555-14.575-31.863-21.82-51.93-21.82zm62.82 370.28l-85.903-147.971h-125.65v147.97h-73.73V6.022h222.463c40.617 0 75.425 14.479 104.512 43.55 29.042 29.067 43.592 63.833 43.592 104.454 0 30.75-8.758 58.7-26.292 83.925-17.112 24.754-38.883 42.48-65.404 53.175l91.696 159.48h-85.283zm-684.262-147.971h130.787l-65.383-130.713-65.404 130.713zm175.137 73.666H3348.69l-37.825 74.305h-82.704L3450.636 6.02l222.475 444.584h-82.696l-37.2-74.305zM2767.973 5.408l296.2 266.484V5.408h74.363v444.55-.603 1.25l-296.834-266.48V449.96h-73.729V5.409zm-314.159.613c30.775 0 59.626 5.775 86.546 17.283 26.938 11.571 50.65 27.559 71.171 48.05l-53.2 52.567c-28.654-29.067-63.487-43.596-104.517-43.596-40.616 0-75.65 14.53-105.141 43.596-28.634 29.03-42.963 63.833-42.963 104.408 0 40.542 14.33 75.609 42.963 105.063 29.491 28.587 64.525 42.908 105.141 42.908 22.225 0 42.85-4.404 61.867-13.108 19.03-8.804 35.58-21.046 49.68-36.88V265.46h-111.547v-73.655h185.942v158.884c-10.27 14.92-22.129 28.583-35.6 41.004-13.454 12.383-28.1 22.946-43.912 31.7-15.817 8.754-32.704 15.475-50.654 20.183-17.95 4.705-36.542 7.03-55.776 7.03-61.554 0-113.904-21.775-157.07-65.342-43.617-43.117-65.4-95.43-65.4-156.934 0-61.104 21.783-113.37 65.4-156.975 43.166-43.562 95.516-65.333 157.07-65.333zm-562.662 296.613h130.791L1956.54 171.92l-65.387 130.713zm167.983 73.666H1854.61l-37.821 74.305h-82.7L1956.539 6.02l222.475 444.584h-82.704l-37.175-74.305zM1499.18 80.325h-148.75v147.321l148.75.683c20.092 0 37.392-7.241 51.917-21.783 14.546-14.52 21.8-32.038 21.8-52.52 0-20.093-7.254-37.388-21.8-51.88-14.525-14.575-31.825-21.82-51.917-21.82zm62.817 370.28l-85.904-147.971H1350.43v147.97h-73.733V6.022h222.483c40.605 0 75.438 14.479 104.505 43.55 29.054 29.067 43.604 63.833 43.604 104.454 0 30.75-8.771 58.7-26.309 83.925-17.079 24.754-38.883 42.48-65.387 53.175l91.696 159.48h-85.292zM1306.126 591.713v54.92h55.167c7.454 0 13.87-2.69 19.262-8.078 5.384-5.375 8.08-11.796 8.08-19.267 0-7.6-2.696-14.096-8.08-19.488-5.391-5.387-11.808-8.087-19.262-8.087h-55.167zm0 82.525v54.93h-27.342v-165.03h82.509c15.058 0 27.983 5.387 38.766 16.167 10.775 10.779 16.171 23.775 16.171 38.983 0 15.083-5.396 28.054-16.17 39.013-10.784 10.612-23.709 15.937-38.767 15.937h-55.167zM1630.826 564.138v27.575h-82.512v41.383h82.512v27.342h-82.512v41.142h82.512v27.587h-109.85V564.138h109.85zM1818.106 591.713h-55.175v54.683l55.175.238c7.45 0 13.858-2.692 19.25-8.08 5.387-5.374 8.087-11.887 8.087-19.5 0-7.429-2.7-13.862-8.087-19.254-5.392-5.387-11.8-8.087-19.25-8.087zm23.3 137.454l-31.863-54.929h-46.612v54.93h-27.342v-165.03h82.517c15.041 0 27.975 5.387 38.754 16.167 10.779 10.779 16.175 23.704 16.175 38.75 0 11.425-3.254 21.804-9.754 31.158-6.346 9.196-14.43 15.767-24.255 19.733l34.009 59.221h-31.63zM2087.63 564.138v27.575h-82.516v54.683h82.517v27.842h-82.517v54.93h-27.337v-165.03h109.854zM2302.235 564.138v27.575h-82.517v41.383h82.517v27.342h-82.517v41.142h82.517v27.587h-109.85V564.138h109.85zM2489.74 564.138c11.404 0 22.07 2.125 31.983 6.42 9.908 4.276 18.67 10.226 26.267 17.834l-19.492 19.5c-10.775-10.787-23.692-16.179-38.759-16.179-7.612 0-14.75 1.425-21.4 4.275-6.67 2.867-12.487 6.796-17.47 11.762-5.005 5.009-8.963 10.83-11.9 17.5-2.938 6.659-4.405 13.8-4.405 21.384 0 7.608 1.467 14.75 4.405 21.42 2.937 6.663 6.858 12.484 11.77 17.459 4.909 5.008 10.742 8.925 17.48 11.783 6.737 2.859 13.908 4.284 21.52 4.284 14.9 0 27.817-5.304 38.759-15.934l19.492 19.263c-7.596 7.608-16.359 13.554-26.267 17.83-9.913 4.282-20.58 6.428-31.984 6.428-11.42 0-22.112-2.183-32.108-6.541-9.979-4.35-18.742-10.267-26.28-17.717-7.524-7.442-13.474-16.18-17.828-26.163-4.371-9.983-6.534-20.687-6.534-32.112 0-11.08 2.163-21.675 6.534-31.73 4.354-10.079 10.304-18.879 17.829-26.408 7.537-7.525 16.3-13.466 26.28-17.825 9.995-4.358 20.687-6.533 32.107-6.533zM2652.752 564.138h137.684v27.575h-54.93v137.454h-27.6V591.713h-55.154v-27.575zM3125.353 591.713v54.92h55.175c7.45 0 13.862-2.69 19.262-8.078 5.388-5.375 8.08-11.796 8.08-19.267 0-7.6-2.692-14.096-8.08-19.488-5.4-5.387-11.812-8.087-19.262-8.087h-55.175zm0 82.525v54.93h-27.342v-165.03h82.517c15.05 0 27.983 5.387 38.758 16.167 10.783 10.779 16.17 23.775 16.17 38.983 0 15.083-5.387 28.054-16.17 39.013-10.775 10.612-23.708 15.937-38.758 15.937h-55.175zM3422.72 591.713h-55.176v54.683l55.175.238c7.45 0 13.863-2.692 19.255-8.08 5.391-5.374 8.087-11.887 8.087-19.5 0-7.429-2.696-13.862-8.087-19.254-5.392-5.387-11.805-8.087-19.255-8.087zm23.304 137.454l-31.867-54.929h-46.613v54.93h-27.341v-165.03h82.516c15.046 0 27.975 5.387 38.759 16.167 10.783 10.779 16.175 23.704 16.175 38.75 0 11.425-3.259 21.804-9.759 31.158-6.337 9.196-14.429 15.767-24.245 19.733l34.004 59.221h-31.63zM3657.753 591.713c-15.058 0-28.067 5.392-38.996 16.18-10.633 10.778-15.933 23.695-15.933 38.74 0 15.084 5.3 28.084 15.933 39.013 10.93 10.63 23.938 15.934 38.996 15.934 15.054 0 27.98-5.304 38.762-15.934 10.78-10.929 16.171-23.929 16.171-39.012 0-15.046-5.391-27.963-16.17-38.742-10.784-10.787-23.709-16.179-38.763-16.179zm0-27.575c22.825 0 42.246 8.087 58.254 24.254 16.333 16.154 24.496 35.583 24.496 58.242 0 22.996-8.163 42.425-24.496 58.275-16.008 16.17-35.43 24.258-58.254 24.258-22.842 0-42.254-8.087-58.258-24.258-16.175-16.008-24.255-35.433-24.255-58.275 0-22.659 8.08-42.088 24.255-58.242 15.841-16.167 35.27-24.254 58.258-24.254zM3913.457 564.138c11.404 0 22.113 2.125 32.1 6.42 9.996 4.276 18.792 10.226 26.392 17.834l-19.73 19.5c-10.624-10.787-23.545-16.179-38.762-16.179-15.062 0-28.07 5.392-39 16.18-10.625 10.778-15.933 23.695-15.933 38.74 0 15.084 5.308 28.084 15.933 39.013 10.93 10.63 23.938 15.934 39 15.934 8.238 0 15.892-1.638 22.942-4.871 7.058-3.254 13.196-7.808 18.43-13.671v-22.6h-41.372v-27.342h68.959v58.98a89.668 89.668 0 0 1-13.196 15.195 83.7 83.7 0 0 1-16.288 11.784c-5.875 3.254-12.137 5.754-18.791 7.5-6.655 1.741-13.559 2.612-20.684 2.612-22.837 0-42.258-8.087-58.262-24.258-16.171-16.008-24.25-35.433-24.25-58.275 0-22.659 8.079-42.088 24.25-58.242 16.004-16.167 35.425-24.254 58.262-24.254zM4169.67 591.713h-55.154v54.683l55.154.238c7.458 0 13.875-2.692 19.292-8.08 5.375-5.374 8.083-11.887 8.083-19.5 0-7.429-2.708-13.862-8.083-19.254-5.417-5.387-11.834-8.087-19.292-8.087zm23.333 137.454l-31.879-54.929h-46.608v54.93h-27.342v-165.03h82.496c15.083 0 28 5.387 38.792 16.167 10.75 10.779 16.166 23.704 16.166 38.75 0 11.425-3.25 21.804-9.75 31.158-6.375 9.196-14.458 15.767-24.25 19.733l34 59.221h-31.625zM4366.17 674.238h48.5l-24.25-48.517-24.25 48.517zm62.292 27.342h-75.875l-14 27.587h-30.709l82.542-165.029 82.5 165.03h-30.666l-13.792-27.588zM4596.045 630.48v98.687h-27.333V564.138l82.542 82.496 82.708-82.496v165.03h-27.792V630.48l-54.916 55.166-55.209-55.166zM4858.92 630.48v98.687h-27.333V564.138l82.5 82.496 82.75-82.496v165.03h-27.791V630.48l-54.959 55.166-55.166-55.166zM5211.463 564.138v27.575h-82.5v41.383h82.5v27.342h-82.5v41.142h82.5v27.587h-109.876V564.138h109.876zM5398.713 591.713h-55.167v54.683l55.167.238c7.458 0 13.875-2.692 19.291-8.08 5.334-5.374 8.042-11.887 8.042-19.5 0-7.429-2.708-13.862-8.042-19.254-5.416-5.387-11.833-8.087-19.291-8.087zm23.291 137.454l-31.875-54.929h-46.583v54.93h-27.333v-165.03h82.5c15.041 0 28 5.387 38.791 16.167 10.75 10.779 16.167 23.704 16.167 38.75 0 11.425-3.292 21.804-9.75 31.158-6.333 9.196-14.458 15.767-24.292 19.733l34.042 59.221h-31.667zM5592.088 660.438c-13.292 0-24.625-4.687-33.959-14.042-9.375-9.333-14.041-20.762-14.041-34.237 0-13.154 4.666-24.413 14.041-33.775 9.167-9.504 20.542-14.246 33.959-14.246h89.458v27.575h-89.458c-2.834 0-5.5.517-8.042 1.558-2.583 1.03-4.75 2.484-6.667 4.396a19.27 19.27 0 0 0-4.375 6.646 20.427 20.427 0 0 0-1.541 7.846c0 5.708 1.958 10.625 5.916 14.746 3.917 4.12 8.875 6.191 14.709 6.191h41.167c13.291 0 24.666 4.68 34 14.017 9.5 9.354 14.291 20.704 14.291 34.004 0 13.18-4.791 24.504-14.291 34.009-9.334 9.354-20.709 14.041-34 14.041h-89.167V701.58h89.167c2.833 0 5.541-.517 8.083-1.554a21.284 21.284 0 0 0 6.667-4.267c1.875-1.838 3.375-4.013 4.375-6.55 1.041-2.521 1.583-5.221 1.583-8.092 0-5.537-2.083-10.366-6.167-14.491-4-4.113-8.833-6.188-14.541-6.188h-41.167z" fill="#303232"/></g></svg>