<?xml version="1.0" encoding="UTF-8" standalone="no"?>
<!DOCTYPE svg PUBLIC "-//W3C//DTD SVG 1.1//EN" "http://www.w3.org/Graphics/SVG/1.1/DTD/svg11.dtd">
<svg width="100%" height="100%" viewBox="0 0 5684 730" version="1.1" xmlns="http://www.w3.org/2000/svg" xmlns:xlink="http://www.w3.org/1999/xlink" xml:space="preserve" style="fill-rule:evenodd;clip-rule:evenodd;stroke-linejoin:round;stroke-miterlimit:1.41421;">
    <g transform="matrix(4.16667,0,0,4.16667,0,0)">
        <path d="M25.301,57.168L119.228,151.095L214.281,56.039L176.541,18.45L65.106,18.45L25.301,57.168ZM119.228,174.716L0,55.49L56.078,0.565L182.376,0.565L238.453,55.493L119.228,174.716Z" style="fill:rgb(219,58,84);fill-rule:nonzero;"/>
        <path d="M25.124,55.661L59.225,89.761L93.325,55.661L59.225,22.569L25.124,55.661ZM59.225,114.608L0.173,55.56L59.772,0.572L62.143,0.583L118.275,55.56L59.225,114.608Z" style="fill:rgb(219,58,84);fill-rule:nonzero;"/>
        <rect x="59.187" y="90.681" width="121.203" height="17.482" style="fill:rgb(219,58,84);fill-rule:nonzero;"/>
        <path d="M1274.37,1.298L1345.45,65.254L1345.45,1.298L1363.3,1.298L1363.3,107.99L1363.3,107.845L1363.3,108.145L1292.06,44.19L1292.06,107.99L1274.37,107.99L1274.37,1.298ZM1195.19,19.278C1185.45,19.278 1177.04,22.765 1169.96,29.741C1163.09,36.708 1159.65,45.061 1159.65,54.799C1159.65,64.529 1163.09,72.945 1169.96,80.014C1177.04,86.875 1185.45,90.312 1195.19,90.312C1204.94,90.312 1213.3,86.875 1220.28,80.014C1227.25,72.945 1230.74,64.529 1230.74,54.799C1230.74,45.061 1227.25,36.708 1220.28,29.741C1213.3,22.765 1204.94,19.278 1195.19,19.278ZM1195.19,1.445C1209.97,1.445 1222.53,6.67 1232.89,17.125C1243.46,27.59 1248.75,40.134 1248.75,54.799C1248.75,69.661 1243.46,82.216 1232.89,92.463C1222.53,102.919 1209.97,108.145 1195.19,108.145C1180.42,108.145 1167.85,102.919 1157.49,92.463C1147.03,82.115 1141.8,69.56 1141.8,54.799C1141.8,40.134 1147.03,27.59 1157.49,17.125C1167.75,6.67 1180.32,1.445 1195.19,1.445ZM1057.28,63.71C1048.66,63.71 1041.33,60.689 1035.28,54.635C1029.23,48.59 1026.2,41.209 1026.2,32.505C1026.2,23.998 1029.23,16.722 1035.28,10.666C1041.23,4.518 1048.56,1.445 1057.28,1.445L1115.13,1.445L1115.13,19.278L1057.28,19.278C1055.44,19.278 1053.7,19.617 1052.05,20.27C1050.41,20.942 1048.97,21.897 1047.74,23.118C1046.51,24.348 1045.56,25.789 1044.9,27.423C1044.24,29.068 1043.89,30.767 1043.89,32.505C1043.89,36.191 1045.18,39.367 1047.74,42.037C1050.31,44.699 1053.49,46.033 1057.28,46.033L1083.9,46.033C1092.52,46.033 1099.86,49.056 1105.9,55.112C1112.06,61.155 1115.13,68.482 1115.13,77.084C1115.13,85.602 1112.06,92.92 1105.9,99.068C1099.86,105.124 1092.52,108.145 1083.9,108.145L1026.2,108.145L1026.2,90.312L1083.9,90.312C1085.75,90.312 1087.49,89.98 1089.13,89.318C1090.78,88.646 1092.21,87.723 1093.45,86.544C1094.67,85.363 1095.62,83.957 1096.29,82.322C1096.95,80.675 1097.29,78.936 1097.29,77.084C1097.29,73.503 1095.96,70.376 1093.29,67.706C1090.72,65.046 1087.59,63.71 1083.9,63.71L1057.28,63.71ZM959.884,19.278L924.188,19.278L924.188,54.635L959.884,54.799C964.7,54.799 968.854,53.061 972.347,49.571C975.837,46.086 977.577,41.882 977.577,36.966C977.577,32.144 975.837,27.993 972.347,24.515C968.854,21.017 964.7,19.278 959.884,19.278ZM974.961,108.145L954.344,72.632L924.188,72.632L924.188,108.145L906.493,108.145L906.493,1.445L959.884,1.445C969.632,1.445 977.986,4.92 984.967,11.897C991.937,18.873 995.429,27.217 995.429,36.966C995.429,44.346 993.327,51.054 989.119,57.108C985.012,63.049 979.787,67.303 973.422,69.87L995.429,108.145L974.961,108.145ZM810.738,72.632L842.127,72.632L826.435,41.261L810.738,72.632ZM852.771,90.312L803.685,90.312L794.607,108.145L774.758,108.145L828.152,1.445L881.546,108.145L861.699,108.145L852.771,90.312ZM664.313,1.298L735.401,65.254L735.401,1.298L753.248,1.298L753.248,107.99L753.248,107.845L753.248,108.145L682.008,44.19L682.008,107.99L664.313,107.99L664.313,1.298ZM588.915,1.445C596.301,1.445 603.225,2.831 609.686,5.593C616.151,8.37 621.842,12.207 626.767,17.125L613.999,29.741C607.122,22.765 598.762,19.278 588.915,19.278C579.167,19.278 570.759,22.765 563.681,29.741C556.809,36.708 553.37,45.061 553.37,54.799C553.37,64.529 556.809,72.945 563.681,80.014C570.759,86.875 579.167,90.312 588.915,90.312C594.249,90.312 599.199,89.255 603.763,87.166C608.33,85.053 612.302,82.115 615.686,78.315L615.686,63.71L588.915,63.71L588.915,46.033L633.541,46.033L633.541,84.165C631.076,87.746 628.23,91.025 624.997,94.006C621.768,96.978 618.253,99.513 614.458,101.614C610.662,103.715 606.609,105.328 602.301,106.458C597.993,107.587 593.531,108.145 588.915,108.145C574.142,108.145 561.578,102.919 551.218,92.463C540.75,82.115 535.522,69.56 535.522,54.799C535.522,40.134 540.75,27.59 551.218,17.125C561.578,6.67 574.142,1.445 588.915,1.445ZM453.876,72.632L485.266,72.632L469.569,41.261L453.876,72.632ZM494.192,90.312L445.106,90.312L436.029,108.145L416.181,108.145L469.569,1.445L522.963,108.145L503.114,108.145L494.192,90.312ZM359.803,19.278L324.103,19.278L324.103,54.635L359.803,54.799C364.625,54.799 368.777,53.061 372.263,49.571C375.754,46.086 377.495,41.882 377.495,36.966C377.495,32.144 375.754,27.993 372.263,24.515C368.777,21.017 364.625,19.278 359.803,19.278ZM374.879,108.145L354.262,72.632L324.103,72.632L324.103,108.145L306.407,108.145L306.407,1.445L359.803,1.445C369.548,1.445 377.908,4.92 384.884,11.897C391.857,18.873 395.349,27.217 395.349,36.966C395.349,44.346 393.244,51.054 389.035,57.108C384.936,63.049 379.703,67.303 373.342,69.87L395.349,108.145L374.879,108.145Z" style="fill:rgb(48,50,50);fill-rule:nonzero;"/>
        <path d="M313.47,142.011L313.47,155.192L326.71,155.192C328.499,155.192 330.039,154.546 331.333,153.253C332.625,151.963 333.272,150.422 333.272,148.629C333.272,146.805 332.625,145.246 331.333,143.952C330.039,142.659 328.499,142.011 326.71,142.011L313.47,142.011ZM313.47,161.817L313.47,175L306.908,175L306.908,135.393L326.71,135.393C330.324,135.393 333.426,136.686 336.014,139.273C338.6,141.86 339.895,144.979 339.895,148.629C339.895,152.249 338.6,155.362 336.014,157.992C333.426,160.539 330.324,161.817 326.71,161.817L313.47,161.817Z" style="fill:rgb(48,50,50);fill-rule:nonzero;"/>
        <path d="M391.398,135.393L391.398,142.011L371.595,142.011L371.595,151.943L391.398,151.943L391.398,158.505L371.595,158.505L371.595,168.379L391.398,168.379L391.398,175L365.034,175L365.034,135.393L391.398,135.393Z" style="fill:rgb(48,50,50);fill-rule:nonzero;"/>
        <path d="M436.345,142.011L423.103,142.011L423.103,155.135L436.345,155.192C438.133,155.192 439.671,154.546 440.965,153.253C442.258,151.963 442.906,150.4 442.906,148.573C442.906,146.79 442.258,145.246 440.965,143.952C439.671,142.659 438.133,142.011 436.345,142.011ZM441.937,175L434.29,161.817L423.103,161.817L423.103,175L416.541,175L416.541,135.393L436.345,135.393C439.955,135.393 443.059,136.686 445.646,139.273C448.233,141.86 449.528,144.962 449.528,148.573C449.528,151.315 448.747,153.806 447.187,156.051C445.664,158.258 443.724,159.835 441.366,160.787L449.528,175L441.937,175Z" style="fill:rgb(48,50,50);fill-rule:nonzero;"/>
        <path d="M501.031,135.393L501.031,142.011L481.227,142.011L481.227,155.135L501.031,155.135L501.031,161.817L481.227,161.817L481.227,175L474.666,175L474.666,135.393L501.031,135.393Z" style="fill:rgb(48,50,50);fill-rule:nonzero;"/>
        <path d="M552.536,135.393L552.536,142.011L532.732,142.011L532.732,151.943L552.536,151.943L552.536,158.505L532.732,158.505L532.732,168.379L552.536,168.379L552.536,175L526.172,175L526.172,135.393L552.536,135.393Z" style="fill:rgb(48,50,50);fill-rule:nonzero;"/>
        <path d="M597.537,135.393C600.274,135.393 602.834,135.903 605.213,136.934C607.591,137.96 609.694,139.388 611.517,141.214L606.839,145.894C604.253,143.305 601.153,142.011 597.537,142.011C595.71,142.011 593.997,142.353 592.401,143.037C590.8,143.725 589.404,144.668 588.208,145.86C587.007,147.062 586.057,148.459 585.352,150.06C584.647,151.658 584.295,153.372 584.295,155.192C584.295,157.018 584.647,158.732 585.352,160.333C586.057,161.932 586.998,163.329 588.177,164.523C589.355,165.725 590.755,166.665 592.372,167.351C593.989,168.037 595.71,168.379 597.537,168.379C601.113,168.379 604.213,167.106 606.839,164.555L611.517,169.178C609.694,171.004 607.591,172.431 605.213,173.457C602.834,174.485 600.274,175 597.537,175C594.796,175 592.23,174.476 589.831,173.43C587.436,172.386 585.333,170.966 583.524,169.178C581.718,167.392 580.29,165.295 579.245,162.899C578.196,160.503 577.677,157.934 577.677,155.192C577.677,152.533 578.196,149.99 579.245,147.577C580.29,145.158 581.718,143.046 583.524,141.239C585.333,139.433 587.436,138.007 589.831,136.961C592.23,135.915 594.796,135.393 597.537,135.393Z" style="fill:rgb(48,50,50);fill-rule:nonzero;"/>
        <path d="M636.66,135.393L669.704,135.393L669.704,142.011L656.521,142.011L656.521,175L649.897,175L649.897,142.011L636.66,142.011L636.66,135.393Z" style="fill:rgb(48,50,50);fill-rule:nonzero;"/>
        <path d="M750.084,142.011L750.084,155.192L763.326,155.192C765.114,155.192 766.653,154.546 767.949,153.253C769.242,151.963 769.888,150.422 769.888,148.629C769.888,146.805 769.242,145.246 767.949,143.952C766.653,142.659 765.114,142.011 763.326,142.011L750.084,142.011ZM750.084,161.817L750.084,175L743.522,175L743.522,135.393L763.326,135.393C766.938,135.393 770.042,136.686 772.628,139.273C775.216,141.86 776.509,144.979 776.509,148.629C776.509,152.249 775.216,155.362 772.628,157.992C770.042,160.539 766.938,161.817 763.326,161.817L750.084,161.817Z" style="fill:rgb(48,50,50);fill-rule:nonzero;"/>
        <path d="M821.452,142.011L808.21,142.011L808.21,155.135L821.452,155.192C823.24,155.192 824.779,154.546 826.073,153.253C827.367,151.963 828.014,150.4 828.014,148.573C828.014,146.79 827.367,145.246 826.073,143.952C824.779,142.659 823.24,142.011 821.452,142.011ZM827.045,175L819.397,161.817L808.21,161.817L808.21,175L801.648,175L801.648,135.393L821.452,135.393C825.063,135.393 828.166,136.686 830.754,139.273C833.342,141.86 834.636,144.962 834.636,148.573C834.636,151.315 833.854,153.806 832.294,156.051C830.773,158.258 828.831,159.835 826.475,160.787L834.636,175L827.045,175Z" style="fill:rgb(48,50,50);fill-rule:nonzero;"/>
        <path d="M877.86,142.011C874.246,142.011 871.124,143.305 868.501,145.894C865.949,148.481 864.677,151.581 864.677,155.192C864.677,158.812 865.949,161.932 868.501,164.555C871.124,167.106 874.246,168.379 877.86,168.379C881.473,168.379 884.575,167.106 887.163,164.555C889.75,161.932 891.044,158.812 891.044,155.192C891.044,151.581 889.75,148.481 887.163,145.894C884.575,143.305 881.473,142.011 877.86,142.011ZM877.86,135.393C883.338,135.393 887.999,137.334 891.841,141.214C895.761,145.091 897.72,149.754 897.72,155.192C897.72,160.711 895.761,165.374 891.841,169.178C887.999,173.059 883.338,175 877.86,175C872.378,175 867.719,173.059 863.878,169.178C859.996,165.336 858.057,160.674 858.057,155.192C858.057,149.754 859.996,145.091 863.878,141.214C867.68,137.334 872.343,135.393 877.86,135.393Z" style="fill:rgb(48,50,50);fill-rule:nonzero;"/>
        <path d="M939.229,135.393C941.966,135.393 944.536,135.903 946.933,136.934C949.332,137.96 951.443,139.388 953.267,141.214L948.532,145.894C945.982,143.305 942.881,142.011 939.229,142.011C935.614,142.011 932.492,143.305 929.869,145.894C927.319,148.481 926.045,151.581 926.045,155.192C926.045,158.812 927.319,161.932 929.869,164.555C932.492,167.106 935.614,168.379 939.229,168.379C941.206,168.379 943.043,167.986 944.735,167.21C946.429,166.429 947.902,165.336 949.158,163.929L949.158,158.505L939.229,158.505L939.229,151.943L955.779,151.943L955.779,166.098C954.864,167.428 953.81,168.642 952.612,169.745C951.413,170.852 950.11,171.794 948.703,172.573C947.293,173.354 945.79,173.954 944.193,174.373C942.596,174.791 940.939,175 939.229,175C933.748,175 929.087,173.059 925.246,169.178C921.365,165.336 919.426,160.674 919.426,155.192C919.426,149.754 921.365,145.091 925.246,141.214C929.087,137.334 933.748,135.393 939.229,135.393Z" style="fill:rgb(48,50,50);fill-rule:nonzero;"/>
        <path d="M1000.72,142.011L987.483,142.011L987.483,155.135L1000.72,155.192C1002.51,155.192 1004.05,154.546 1005.35,153.253C1006.64,151.963 1007.29,150.4 1007.29,148.573C1007.29,146.79 1006.64,145.246 1005.35,143.952C1004.05,142.659 1002.51,142.011 1000.72,142.011ZM1006.32,175L998.669,161.817L987.483,161.817L987.483,175L980.921,175L980.921,135.393L1000.72,135.393C1004.34,135.393 1007.44,136.686 1010.03,139.273C1012.61,141.86 1013.91,144.962 1013.91,148.573C1013.91,151.315 1013.13,153.806 1011.57,156.051C1010.04,158.258 1008.1,159.835 1005.75,160.787L1013.91,175L1006.32,175Z" style="fill:rgb(48,50,50);fill-rule:nonzero;"/>
        <path d="M1047.88,161.817L1059.52,161.817L1053.7,150.173L1047.88,161.817ZM1062.83,168.379L1044.62,168.379L1041.26,175L1033.89,175L1053.7,135.393L1073.5,175L1066.14,175L1062.83,168.379Z" style="fill:rgb(48,50,50);fill-rule:nonzero;"/>
        <path d="M1103.05,151.315L1103.05,175L1096.49,175L1096.49,135.393L1116.3,155.192L1136.15,135.393L1136.15,175L1129.48,175L1129.48,151.315L1116.3,164.555L1103.05,151.315Z" style="fill:rgb(48,50,50);fill-rule:nonzero;"/>
        <path d="M1166.14,151.315L1166.14,175L1159.58,175L1159.58,135.393L1179.38,155.192L1199.24,135.393L1199.24,175L1192.57,175L1192.57,151.315L1179.38,164.555L1166.14,151.315Z" style="fill:rgb(48,50,50);fill-rule:nonzero;"/>
        <path d="M1250.75,135.393L1250.75,142.011L1230.95,142.011L1230.95,151.943L1250.75,151.943L1250.75,158.505L1230.95,158.505L1230.95,168.379L1250.75,168.379L1250.75,175L1224.38,175L1224.38,135.393L1250.75,135.393Z" style="fill:rgb(48,50,50);fill-rule:nonzero;"/>
        <path d="M1295.69,142.011L1282.45,142.011L1282.45,155.135L1295.69,155.192C1297.48,155.192 1299.02,154.546 1300.32,153.253C1301.6,151.963 1302.25,150.4 1302.25,148.573C1302.25,146.79 1301.6,145.246 1300.32,143.952C1299.02,142.659 1297.48,142.011 1295.69,142.011ZM1301.28,175L1293.63,161.817L1282.45,161.817L1282.45,175L1275.89,175L1275.89,135.393L1295.69,135.393C1299.3,135.393 1302.41,136.686 1305,139.273C1307.58,141.86 1308.88,144.962 1308.88,148.573C1308.88,151.315 1308.09,153.806 1306.54,156.051C1305.02,158.258 1303.07,159.835 1300.71,160.787L1308.88,175L1301.28,175Z" style="fill:rgb(48,50,50);fill-rule:nonzero;"/>
        <path d="M1342.1,158.505C1338.91,158.505 1336.19,157.38 1333.95,155.135C1331.7,152.895 1330.58,150.152 1330.58,146.918C1330.58,143.761 1331.7,141.059 1333.95,138.812C1336.15,136.531 1338.88,135.393 1342.1,135.393L1363.57,135.393L1363.57,142.011L1342.1,142.011C1341.42,142.011 1340.78,142.135 1340.17,142.385C1339.55,142.632 1339.03,142.981 1338.57,143.44C1338.11,143.897 1337.76,144.429 1337.52,145.035C1337.27,145.644 1337.15,146.27 1337.15,146.918C1337.15,148.288 1337.62,149.468 1338.57,150.457C1339.51,151.446 1340.7,151.943 1342.1,151.943L1351.98,151.943C1355.17,151.943 1357.9,153.066 1360.14,155.307C1362.42,157.552 1363.57,160.276 1363.57,163.468C1363.57,166.631 1362.42,169.349 1360.14,171.63C1357.9,173.875 1355.17,175 1351.98,175L1330.58,175L1330.58,168.379L1351.98,168.379C1352.66,168.379 1353.31,168.255 1353.92,168.006C1354.53,167.758 1355.06,167.416 1355.52,166.982C1355.97,166.541 1356.33,166.019 1356.57,165.41C1356.82,164.805 1356.95,164.157 1356.95,163.468C1356.95,162.139 1356.45,160.98 1355.47,159.99C1354.51,159.003 1353.35,158.505 1351.98,158.505L1342.1,158.505Z" style="fill:rgb(48,50,50);fill-rule:nonzero;"/>
    </g>
</svg>
