<svg viewBox="0 0 898 1252" xmlns="http://www.w3.org/2000/svg" fill-rule="evenodd" clip-rule="evenodd" stroke-linecap="round" stroke-linejoin="round" stroke-miterlimit="10"><g transform="scale(4.16667)"><path d="M143.8 173l13.6-2.2 11.3-29.3s-4.7-1.3-14.1-10.2a39 39 0 0 0-19.7-10.4l8.9 52z" fill="url(#a)" fill-rule="nonzero"/><path d="M157.4 170.8l-13.6 2.1-8.9-52s10.3 1.4 19.7 10.4c9.4 9 14 10.2 14 10.2l-11.2 29.3z" fill="none" stroke="#783634" stroke-width="3"/><g opacity=".2"><clipPath id="b"><path d="M61.2 260.3h134.3V275H61.2z"/></clipPath><g clip-path="url(#b)"><path d="M195.5 267.6c0 4-30 7.4-67.2 7.4-37 0-67.1-3.3-67.1-7.4s30-7.4 67.1-7.4c37.1 0 67.2 3.4 67.2 7.4" fill="#2f3130" fill-rule="nonzero"/></g></g><g opacity=".2"><clipPath id="c"><path d="M76.9 262h86v10.3H77z"/></clipPath><g clip-path="url(#c)"><path d="M163 267.1c0 2.9-19.3 5.2-43 5.2-23.8 0-43.1-2.3-43.1-5.2 0-2.9 19.3-5.2 43-5.2 23.8 0 43 2.3 43 5.2" fill="#2f3130" fill-rule="nonzero"/></g></g><path d="M81.4 242.9s-1.4 10.4-1.3 15.4c.1 5 1.3 9.3 1.3 9.3l.9.7s4.7 2.2 9.2 1.4c4.5-.8 7.9-2.1 7.9-2.1s-5.7-3.4-8-6.1-1.5-1.6-1.5-1.6.9-8.4 1.8-10.8c.9-2.4 5.6-12.1 8.2-14 2.5-1.9 21.1-7.2 27.7-8 6.5-1 12 1.8 12 1.8s8 2.7 10 3.9c2.2 1.2 3 5.2 6.4 3.6 1.8-.9 3.8-2.8 6-5.5a26.3 26.3 0 0 0 4.4-8.3c2.2-6.8 2.2-6.8 0-7.2-2-.4-2.2 2.9-6.6 4.4-4.4 1.5-1.7 1.4-3.7-.8a125 125 0 0 1-5.4-6.6l-9.4-20.2-9.8-28.7-17 19.7-11.3 9.5-6.1 18.6L81.4 243z" fill="#181615" fill-rule="nonzero"/><path d="M127.2 207a55.1 55.1 0 0 1 20.2 3.8l-6-12.6-10.6-7.8-16-1.2-11.4 9.5-5.5 16.7a55 55 0 0 1 29.3-8.4" fill="#0c0a08" fill-rule="nonzero"/><g opacity=".6"><clipPath id="d"><path d="M110.2 186.5h23.4v18h-23.4z"/></clipPath><g clip-path="url(#d)"><path d="M128.3 199.7a46.4 46.4 0 0 1-8.4 1.5c-3.2.2-3.5-.4-3.9-1.4-.8-2.2-2-7.4-2-7.4l.7-1.6s1.6.2 7.8-1.2 5.4 1.4 6.6 5.4c.3.8.6 2.4.7 2.9.1 1-.8 1.6-1.5 1.8m4.7-.4c0-.7-.5-3-.9-4.1-1.8-5.7-.6-9.6-9.4-7.6s-11 1.7-11 1.7l-1 2.3s1.7 7.3 2.9 10.3c.5 1.4 1 2.3 5.4 2a65.6 65.6 0 0 0 12-2.1c1-.3 2.3-1 2-2.5" fill="#583e31" fill-rule="nonzero"/><g opacity=".6"><clipPath id="e"><path d="M110.7 187h21.4v14h-21.4z"/></clipPath><g clip-path="url(#e)"><path d="M132.1 195.2c-1.8-5.7-.6-9.6-9.4-7.6s-11 1.7-11 1.7l-1 2.3s.7 3 2.7 9.2l3-.3c-1.8-5.5-2.4-8-2.4-8l.7-1.7s1.5.2 7.8-1.2c6.2-1.4 5.4 1.4 6.6 5.4l-1.8-5.2 3.8 1.5 1 3.9" fill="#41352c" fill-rule="nonzero"/></g></g><path d="M128.3 199.7a46.4 46.4 0 0 1-8.4 1.5c-3.2.2-3.5-.4-3.9-1.4-.8-2.2-2-7.4-2-7.4l.7-1.6s1.6.2 7.8-1.2 5.4 1.4 6.6 5.4c.3.8.6 2.4.7 2.9.1 1-.8 1.6-1.5 1.8zm4.7-.4c0-.7-.5-3-.9-4.1-1.8-5.7-.6-9.6-9.4-7.6s-11 1.7-11 1.7l-1 2.3s1.7 7.3 2.9 10.3c.5 1.4 1 2.3 5.4 2a65.6 65.6 0 0 0 12-2.1c1-.3 2.3-1 2-2.5z" fill="none" stroke="#1d160e" stroke-linecap="butt" stroke-linejoin="miter"/><path d="M131.2 192.7l-6.7.8s-2.4 0-1.7 2.2 1.8 1.2 2.7 1.1c1 0 6.8-.8 6.8-.8l-1.1-3.3z" fill="#41352c" fill-rule="nonzero"/><path d="M131.2 192.7l-6.7.5s-2.4 0-1.7 1.5c.7 1.4 1.8.7 2.7.7l6.8-.5-1.1-2.2z" fill="#583e31" fill-rule="nonzero"/><path d="M131.2 192.7l-6.7.8s-2.4 0-1.7 2.2 1.8 1.2 2.7 1.1c1 0 6.8-.8 6.8-.8l-1.1-3.3z" fill="none" stroke="#1d160e" stroke-linecap="butt" stroke-linejoin="miter"/></g></g><path d="M154.1 236.7c-2.7-.3 4-5.3 4.7-6.3.7-1 1.6-2.7 1.7-5.5 0-2.8 2.3-7 2.3-7l2.7-2 1-.5 1.8 1.1-.8 2.5-1.6 5-3.8 6.7-4.3 4.6-2.9 1.4h-.8z" fill="#101414" fill-rule="nonzero"/><path d="M81.4 242.9s-1.4 10.4-1.3 15.4c.1 5 1.3 9.3 1.3 9.3l.9.7s4.7 2.2 9.2 1.4c4.5-.8 7.9-2.1 7.9-2.1s-5.7-3.4-8-6.1-1.5-1.6-1.5-1.6.9-8.4 1.8-10.8c.9-2.4 5.6-12.1 8.2-14 2.5-1.9 21.1-7.2 27.7-8 6.5-1 12 1.8 12 1.8s8 2.7 10 3.9c2.2 1.2 3 5.2 6.4 3.6 1.8-.9 3.8-2.8 6-5.5a26.3 26.3 0 0 0 4.4-8.3c2.2-6.8 2.2-6.8 0-7.2-2-.4-2.2 2.9-6.6 4.4-4.4 1.5-1.7 1.4-3.7-.8a125 125 0 0 1-5.4-6.6l-9.4-20.2-9.8-28.7-17 19.7-11.3 9.5-6.1 18.6L81.4 243z" fill="none" stroke="#010709" stroke-width="2" stroke-linecap="butt" stroke-linejoin="miter"/><path d="M55.4 175.9s1.1.4-.4 5.5c-1.6 5-1.8 4.7-1.8 4.7s2.3.3 4-2.7c1.8-3 1.2-1.8 1.2-1.8s.2 5.3-1.7 7.2l-1.9 2s6.3-1.8 6.9-5.2l.6-3.3s-1.8 9-.4 13 6.2 7 6.2 7l-1.4-19.1-.8-7.6-5.3-4.5-5.2 4.8z" fill="#7e201e" fill-rule="nonzero"/><path d="M55.6 175.3l2.5-2.6 2.5-2.5a.5.5 0 0 1 .6 0c2 1.4 3.7 2.8 5.5 4.2a.8.8 0 0 1 .3.5l.9 6.7v.9l.2.8.1 1.7.3 3.3.4 6.7.4 6.7a.9.9 0 0 1-1.4.8 14.6 14.6 0 0 1-1-.7 22.3 22.3 0 0 1-1-.9 19.8 19.8 0 0 1-2-1.8 12 12 0 0 1-2-3.4l-.2-.6-.2-.7a20.4 20.4 0 0 1-.4-5.1 50.7 50.7 0 0 1 .4-5v-.1c0-.2.1-.5.3-.7v-.2l.1-.1h.1a.4.4 0 0 1 .1-.1.3.3 0 0 1 .2 0c.2.1.2.2.2.3v1.2l-.2.8a5.2 5.2 0 0 1-1.7 2.6 12 12 0 0 1-2.5 1.7 19.2 19.2 0 0 1-2.8 1.2.7.7 0 0 1-.7-1.1l1.8-2 .3-.4.2-.4.4-1.1.5-2.4a26.3 26.3 0 0 0 .1-2.4 1 1 0 0 1 0-.4h.1v.3a.9.9 0 0 0 1 .7h.2l.2-.2-.3.4-.5.8-.5.8-.6.9a5.8 5.8 0 0 1-1.8 1.3 4.4 4.4 0 0 1-1.6.5h-.7l.7-1c-.4-.6-.7-.3-.8-.3H53v.1l.2-.3.2-.6.5-1.2a74.8 74.8 0 0 0 1.7-5 7 7 0 0 0 .2-2c0-.1-.1-.4-.3-.5a.1.1 0 0 1 0-.1m.3 0l.3.6.1.7v1.4c0 .9-.2 1.8-.4 2.7a67.2 67.2 0 0 1-.7 2.6 23.4 23.4 0 0 1-.7 2 4 4 0 0 1-.2.3l-.1.3a1 1 0 0 1-.1.1.8.8 0 0 1-.3.2s-.5.2-.9-.3a.6.6 0 0 1 .5-1h.2l.3-.1.4-.1a3.1 3.1 0 0 0 .7-.3 4.3 4.3 0 0 0 1.2-1l.5-.8.5-.8.5-.9.3-.4v-.2h.2l.2-.2.2-.1a1 1 0 0 1 .5 0 .9.9 0 0 1 .6.7v.5l-.1.2v-.3a20.9 20.9 0 0 1 0 2.6 15.8 15.8 0 0 1-.6 2.7 7 7 0 0 1-.5 1.3 5.8 5.8 0 0 1-.4.7 5 5 0 0 1-.6.6l-1.8 1.7-.7-1.2a16.8 16.8 0 0 0 5-2.2 4 4 0 0 0 1.6-2.1l.2-.7a8.8 8.8 0 0 0 .1-1l.2.2a.3.3 0 0 0 .2 0 7.9 7.9 0 0 0-.2.7l-.2 2.4a25.6 25.6 0 0 0 .7 7.3l.2.5.3.6.6 1 .7 1 .8.8a18.3 18.3 0 0 0 1.7 1.6 21.7 21.7 0 0 0 2 1.4l-1.4.8-.6-6.6-.5-6.7-.3-3.4v-1.6l-.1-.8v-.9c-.3-2.2-.5-4.4-.6-6.7l.3.6-5.1-4.7h.7l-2.8 2.2-2.6 2.1" fill="#610c15" fill-rule="nonzero"/><g opacity=".5"><clipPath id="f"><path d="M58 174.7h10v25.6H58z"/></clipPath><g clip-path="url(#f)" fill="#610c15" fill-rule="nonzero"><path d="M58.9 181.6a19.5 19.5 0 0 0 3-5.8c.2-.5-.7-.5-.9 0a19 19 0 0 1-3 5.5c-.3.5.6.7.9.3m3.6 3.2c.2-3.6 3.7-6.2 4-9.8 0-.5-1-.3-1 .1-.2 3.6-3.7 6.1-4 9.8 0 .5 1 .3 1-.1"/><path d="M65.3 176.6c.7 4.8-1.7 9.3-1.7 14.1 0 3.5 1.5 6.7 3.5 9.5.3.3 1.2 0 .9-.5-3-4-3.9-8.3-3-13.1.5-3.5 1.8-6.7 1.3-10.3-.1-.5-1-.2-1 .2"/></g></g><path d="M66.1 175s3.6 40 3.9 40.3c.2.2 7 18 7 18l32.1-12.4s0-27.3-1.4-31.4c-1.4-4-23.3-28-23.3-28l-15.7.5-2.6 13z" fill="#2d5879" fill-rule="nonzero"/><g opacity=".5"><clipPath id="g"><path d="M66.4 161.5h42.8v46.1H66.4z"/></clipPath><g clip-path="url(#g)"><path d="M108 189.5c-1.4-4-23.3-28-23.3-28l-15.8.5-2.5 13 1.6 17.8c-1.2-25.3 1.5-15.4 6.8-9.6 5.8 6.3 10.7 12.3 16.3 16.8 4.7 3.7 10 7.6 18.1 7.6-.1-7.5-.5-16-1.2-18" fill="#344c72" fill-rule="nonzero"/></g></g><path d="M66 174.5l1-6.6 1-6.6v-.6l.7-.1 7.9-.5 7.9-.5h.5l.5.4A459.9 459.9 0 0 1 97 172.6a236 236 0 0 1 8.2 9.8 74 74 0 0 1 2.6 3.5l1.2 2v.3l.2.1v.3l.2.6.2 1.2.4 4.4.2 8.5v8.5l-.2 8.5v.6l-.5.2-8.1 2.8a507.7 507.7 0 0 0-8 3l-8 3.3c-2.7 1-5.3 2.2-8 3.3l-.7.3-.3-.8-3-6.8-1.4-3.5-1.5-3.4-1.2-3.2-.2-.4-.1-.2.2.2-.2-.2a3 3 0 0 1-.3-1v-.3l-.1-.5a52.6 52.6 0 0 1-.2-1.9l-.7-7.4c-.4-5-.8-10-1-15l-.4-7.4-.2-7.5zm.4 0l1 7.4c.5 2.5.8 5 1 7.4a1006.7 1006.7 0 0 1 1.8 14.8l.8 7.5.2 1.8v.5l.1.1a.4.4 0 0 0-.1-.2.5.5 0 0 0-.2-.1c0 .1-.3-.2.1.2l.1.2.2.5a57.5 57.5 0 0 1 1.6 3.7 229 229 0 0 1 2.5 7l2.4 7.1-1-.4 8-2.9 8.1-3a511.7 511.7 0 0 0 8-3.2c2.7-1 5.3-2.2 8-3.3l-.6.7a522 522 0 0 0-.3-8.5l-.4-8.4-.5-8.5-.5-4-.2-1v-.4h-.1l-.1-.3-1-1.6a73 73 0 0 0-2.6-3.2l-2.6-3.3-5.5-6.5-11-12.8 1 .4H68.7l.7-.6A310.4 310.4 0 0 1 68 168l-1.6 6.4" fill="#3b3a68" fill-rule="nonzero"/><g opacity=".5"><clipPath id="h"><path d="M101.7 191.3h3.5v20.2h-3.5z"/></clipPath><g clip-path="url(#h)" fill="#3b3a68" fill-rule="nonzero"><path d="M102.4 191.3a7.1 7.1 0 0 0 .7 2h-1.4l.2-1a7.2 7.2 0 0 1 .3-1h.2zm1 5.2v.6l-.2 1.1v1.7h-.6l-.2-1.6-.4-1.1-.2-.5 1.6-.2zm.7 6.5l.5 1.6.3 1.6-2.2.3-.1-1.6a55.1 55.1 0 0 1-.1-1.6l1.7-.3zm1 6.4l.1 1a9.6 9.6 0 0 1 0 1l-.2.1-.6-.8-.6-.9 1.3-.4z"/></g></g><path d="M69.5 173l.2.9.2 1h-.8v-1l.2-1h.2zm1 5.7l.3 1.9.2 1.9-1.7.1-.1-1.9-.1-2h1.4zm.9 7.6v3.9h-1l-.3-1.9-.4-1.9 1.7-.1zm.3 7.6l.1.6.2 1.3.2 1.3.2.6-.9.1v-.6l-.1-1.3-.2-1.3v-.6h.5zm1.5 7.5l.5 1.9.4 1.9-1.8.3-.3-2-.2-1.8 1.4-.3zM75 209l.5 1.8.4 1.9-2.1.5-.4-2a37.3 37.3 0 0 1-.4-1.8l2-.4zm1.7 7.3l.5 1.9.5 1.9-1.4.4-.7-1.8-.7-1.8 1.8-.6zm2 7.4l.4 1 .3.9h-.1l-.6-.8-.6-.8.6-.3z" opacity=".5" fill="#3b3a68" fill-rule="nonzero"/><path d="M136 194.7s.7 24.8 3.2 28.5c0 0 2-8.7 5.5-10.6 3.6-1.8 5-3.8 5-3.8l-3.8-25-9.8 10.9z" fill="#344c72" fill-rule="nonzero"/><path d="M151.2 209.2l-.3.5v.1h-.1v.1h-.1v.1h-.1v.1l-.1.1-.1.1-.1.1-.1.1h-.1v.2h-.2v.2h-.2l-.1.2h-.1v.1h-.1v.1h-.1v.1h-.1l-.1.1-.1.1h-.1v.1h-.1v.1h-.1l-.1.1h-.1v.1h-.1v.1h-.1v.1h-.2v.1h-.1l-.1.1-.1.1-.2.1-.2.1-.1.1-.1.1h-.1v.1h-.2v.1h-.1v.1h-.2l-.1.1-.2.1-.1.1h-.1l-.1.1-.2.1-.1.1h-.1l-.1.1h-.1l-.1.1h-.1v.1h-.1v.1h-.1l-.1.1h-.1v.1h-.1v.1h-.1v.1l-.1.1-.1.1-.1.1v.1h-.1v.1h-.1v.1l-.1.1v.1h-.1v.1l-.1.1-.1.1v.1l-.1.1v.1h-.1v.1l-.1.1v.1h-.1v.2h-.1v.2h-.1v.2h-.1v.1l-.1.1v.1l-.1.1v.2h-.1v.2h-.1v.2h-.1v.2l-.1.2v.1l-.1.1v.1l-.1.1v.1l-.1.2v.2h-.1v.2h-.1v.2l-.1.2v.1l-.1.1v.2l-.1.1v.2l-.1.1v.2l-.1.1v.2l-.1.1v.3h-.1v.2l-.1.1v.3l-.1.1v.3l-.1.2-.1.2v.3l-.1.2v.1l-.9 3.5-1.9-3v-.1l-.1-.1v-.1h-.1v-.2l-.1-.1v-.2h-.1v-.4l-.1-.1v-.2l-.1-.1v-.3l-.1-.1v-.3l-.1-.1v-.4h-.1v-.5l-.1-.1v-.4l-.1-.2v-.2l-.1-.2v-.4l-.1-.2v-.4l-.1-.2v-.4l-.1-.2v-.5l-.1-.2v-.5l-.1-.2v-.5l-.1-.2v-.5l-.1-.3v-.5l-.1-.3v-.5l-.1-.3v-.5l-.1-.3v-.3l-.1-.2v-.6l-.1-.3v-.6l-.1-.3v-.6l-.1-.3v-.6l-.1-.3v-.6l-.1-.3v-.6l-.1-.3v-.7l-.1-.3v-.7l-.2-.6V203l-.2-.7V201l-.2-.7v-1.4l-.2-.7v-1.4l-.2-.7v-1.4l-.2-.7v-1.4l-.1-.7-.1-.7v-.6l-.1-.7v-.7l-.2-.7V187l-.1-.7v-.7l-.2-.7v-1.2l-.1-.7v-.7l-.1-.6v-.7l-.1-.6v-.7l-.1-.6v-.6l-.1-.7v-.6l-.1-.6v-.6l-.1-.6-.1-1.1-.1-1.2-.1-1V171l-.2-1v-1l-.1-.9v-.8l-.1-.8v-.8l-.1-.7v-.6l-.1-.6v-.5l-.1-.7v-.5l-.1-.7 12.9-20 7.2 67.9zm-17-47v1.4l.1.6v.6l.1.7v.7l.1.8v.9l.2.9v1l.1 1v1l.2 1v1.2l.1 1.2.1.6v.6l.1.6v.6l.1.6v.7l.1.6v.6l.1.7v.6l.1.7v.7l.1.6v.7l.1.7.1.6v.7l.1.7v.7l.1.7.1.7v.7l.1.7v.7l.2.7v1.4l.1.7.1.7v.7l.1.7v.7l.2.6v1.4l.2.7v1.4l.2.6v1.4l.2.6v.7l.1.6v.7l.1.3v.6l.1.3v.7l.1.3v.6l.1.3v.6l.1.3v.6l.1.3v.5l.1.3v.6l.1.3v.5l.1.3v.5l.1.3v.5l.1.3v.5l.1.2v.5l.1.2v.5l.1.2v.5l.1.2v.4l.1.1v-.1l.1-.1v-.2h.1v-.2l.1-.1v-.2h.1v-.2l.1-.1v-.1h.1v-.2h.1v-.2l.1-.1v-.1l.1-.1v-.1h.1v-.1l.1-.2.1-.1v-.2h.1v-.1l.1-.1.1-.2.1-.1v-.1h.1v-.2h.1v-.1l.1-.1.1-.1v-.1l.1-.1.1-.1v-.1h.1v-.1h.1v-.1l.1-.1.1-.1v-.1h.1v-.1h.1v-.1h.1v-.1h.1v-.1l.1-.1h.1v-.1h.1v-.1h.1v-.1h.1v-.1h.1l.1-.1.1-.1h.1v-.1h.1v-.1h.2v-.1h.1l.1-.1h.1l.1-.1h.2v-.1h.1v-.1h.2l.1-.1.1-.1h.1v-.1h.2v-.1h.2v-.1h.2v-.1l.1-.1h.1l.1-.1.1-.1h.2v-.1h.1v-.1h.1v-.1h.1l.1-.1h.1v-.1h.1v-.1h.1l.1-.1h.1v-.1h.1v-.1h.1v-.1h.1l.1-.1.1-.1.1-.1.2-.1v-.1h.1v-.1h.1v-.1h.1v-.1h.1l-6.2-58.2-7.7 12z" fill="#3b3a68"/><path d="M143.8 196.3a28.9 28.9 0 0 0 3.8-2.5l-4.7-48.6-12.3-1.5 5.5 49.5s.2 7.6.8 15c1.1-3.9 3.5-10.1 7-12" fill="#393e6a" fill-rule="nonzero"/><path d="M123.5 184.6s2.2 2.4 1.2 4.6l-1 2.1s-2-3.8-4.2-5.4c-2.2-1.5 3 6 .3 8.9-2.6 2.9-.8 4.4-.8 4.4s-8.7-1.5-10.3-6.7c-1.7-5.2-2-2.6-2-2.6s-.2 1.3.6 3.9c.9 2.5-5.5-2.8-6-5.8-.3-3-.1-6-.1-6s-5.7 7.4-4.3 9.5c1.3 2.2-5-4-6-5.8-1-1.7-3.3-9.2-2.6-10.5.7-1.4-3.3 3-2.6 6 .7 3-4.2-4-3.5-7.9.8-4-.3 1.3-4 1.2l-3.6-.2s6.8-2.7 4.9-6.2c-2-3.6-.7-.7-.7-.7l10.8-14.7 14-2.2 21.3 32.7-1.5 1.8" fill="#922725" fill-rule="nonzero"/><path d="M87.3 157.7s1 7.6 0 10.5c-1 3 4.4-10.1 3.1-14.3-1.3-4.1 1.9 0 1.9 0s1.4 7.2.7 8.8c-.7 1.7 2-7.2 2-9.6.2-2.5 1.5-1 1.5-1s-.3 6.4.4 8.7c.6 2.3 5.4 6.8 5.4 6.8s-4-8.4-1.9-16.9c2.1-8.4-.7-2.4-.7-2.4s-.3 8.6 5.9 16.5a71.5 71.5 0 0 1 10.3 15.7l-.6-11.3-14.7-26.2-12.4 7.8-.9 7z" fill="#7e201e" fill-rule="nonzero"/><path d="M123.5 184.6s2.2 2.4 1.2 4.6l-1 2.1s-2-3.8-4.2-5.4c-2.2-1.5 3 6 .3 8.9-2.6 2.9-.8 4.4-.8 4.4s-8.7-1.5-10.3-6.7c-1.7-5.2-2.2-1.3-1.4 1.2.9 2.6-5.5-2.7-6-5.7-.3-3-.1-6-.1-6s-5.7 7.4-4.3 9.5c1.3 2.2-5-4-6-5.8-1-1.7-3.3-9.2-2.6-10.5.7-1.4-3.3 3-2.6 6 .7 3-4.2-4-3.5-7.9.8-4-.3 1.3-4 1.2l-3.6-.2s6.8-2.7 4.9-6.2c-2-3.6-.7-.7-.7-.7l10.8-14.7 14-2.2 21.3 32.7-1.5 1.8" fill="none" stroke="#610c15" stroke-width="2"/><g opacity=".5"><clipPath id="i"><path d="M82 151.5h38.4v47.2H82z"/></clipPath><g clip-path="url(#i)" fill="#610c15" fill-rule="nonzero"><path d="M83 176.4c0-5.2 1.8-10 2-15 0-.4-1-.2-1 0 0 2.9-1 5.5-1.5 8.2a34.6 34.6 0 0 0-.5 7c0 .3 1 .1 1-.2m5.2-.6c6-5.3 11-14.9 8.3-23-.1-.5-.9-.3-1 .1v.6c-.1.4.8.3 1-.1v-.5l-1 .1c2.5 7.9-2.2 17.2-8 22.4-.5.4.3.7.7.4m13.8 6.6l-.1-.7c-.2-.4-1.2 0-1 .4a.7.7 0 0 1 .2.4c0 .5 1 .3 1-.1"/><path d="M101.7 184.3c.2-6.8-6.3-11.5-6.1-18.3 0-.1-1 0-1 .3-.1 6.8 6.3 11.4 6.1 18.2 0 .2 1 0 1-.2m6.2 9.4c1.2-6.2 4-13.5 1.5-19.7-.2-.4-1.2-.1-1 .3 2.5 6-.3 13.3-1.4 19.5-.1.4.9.3 1-.1"/><path d="M95.9 158.2c0 5.2 5.6 8.9 9 12.2 3.7 3.5 8.1 6.7 10.6 11.3 0 .2 1 0 1-.2-.3-3.5-1-6.8-1.2-10.3 0-.1-1 0-1 .3.2 3.4 1 6.8 1.2 10.2l1-.2a33.6 33.6 0 0 0-7.4-8.5c-4.3-3.7-12.2-9-12.3-15 0-.2-1 0-1 .2m-1.6 9c-.2 2.4-1.8 5.2-2.3 7.6-.6 3.2-.2 6 .7 9.1.6 1.8 1.8 7.8 4.4 7.8.6 0 .8-.7.1-.7-2 0-3.8-8.5-4.2-10-1.3-5.2 1.8-9 2.3-13.9 0-.5-1-.4-1 0"/><path d="M95.8 172c0 2-.2 4.3-.1 6.4.1 3 1 5.6 2 8.4.2.4 1.1.1 1-.3-.7-2-1.4-4-1.9-6.2-.5-2.7 0-5.7 0-8.5 0-.4-1-.2-1 .1M90 154.8c.6 5.2-1.7 9-3.4 13.7a28.3 28.3 0 0 0-1.5 11.2c0 .4 1 .2 1-.1-.1-5.5.7-9.3 2.8-14.5a20 20 0 0 0 2-10.6c0-.3-1-.1-1 .3"/><path d="M85.9 177c.4 0 1-.6.4-.6-.4 0-1 .6-.4.6m3-2c-.9-4.5 2.2-7.1 4-10.9 1.6-3.2 2-6.7 2.5-10.2 0-.4-1-.2-1 .1-.6 4.6-1.2 8.5-3.9 12.5-1.8 2.7-3.2 5.5-2.6 8.8 0 .3 1 0 1-.2m18.8-2.2c1 2.6 3.1 4.4 4.5 6.7 1.5 2.2 1.6 5.3 1.8 7.9.4 4.5 1 9 5.4 11.2.3 0 1-.3 1-.4-4.5-2.2-5-6.6-5.4-11a24 24 0 0 0-1.8-8c-1.1-2.5-3.5-4-4.5-6.6-.1-.2-1 0-1 .2m8 8.9c1.1 1.6 2 3.6 3.8 4.6.3.2 1.2-.2.8-.4-1.8-1-2.6-3-3.8-4.6-.2-.2-1 0-.9.4"/><path d="M99.7 152c.7 12.3 14 18.5 16 30.1.1.4 1 .2 1-.2-2.1-11.7-15.3-17.8-16-30.2 0-.3-1-.1-1 .3"/><path d="M99.8 152.4c-1 4.8-1.4 12.9 3 16.2.3.2 1.2-.2.9-.4-4.3-3.2-4-11.2-3-15.9.2-.4-.8-.2-.9.1m-3.7 9.2c.5 3 1.7 5 3.3 7.5 2.5 3.7 3.8 8.4 5.3 12.7.5 1.3 1.3 9 3.3 9 .6 0 .8-.6.1-.6-.3 0-4-12.9-4.2-13.6-1.8-5.1-6-10-6.9-15.2 0-.5-1-.2-1 .2m13.1 15.4c.7 1.6 1.7 2.9 2 4.6.4 2 0 4.3.2 6.3.3 3.9 1.3 7 4.4 9.6.3.2 1.2-.2.9-.4-3.1-2.5-4-5.6-4.3-9.4-.2-2.1 0-4.2-.2-6.3-.1-2-1.3-3-2-4.7-.1-.3-1.1 0-1 .3m5.2 2.6c2.4 2.6 2 6.5 2 9.7.1 3 1.6 4.1 3 6.4.3.4 1.2 0 1-.4-1-1.5-2.2-2.5-2.7-4.2-.6-1.7-.3-3.7-.4-5.4-.1-2.4-.4-4.7-2-6.5-.3-.3-1.2.1-1 .5"/><path d="M108.3 188.3c.7 1.7 1.1 3.6 2.2 5 1.2 1.7 3 2.7 4.4 4.1.2.2 1-.1.9-.3-1.2-1.2-2.6-2-3.7-3.2-1.5-1.5-2-4-2.8-5.9-.1-.3-1 0-1 .3m-13.6-22.8c.7 3.3 3 6 5 8.6 2 3 5.2 7.4 5.8 11 0 .3 1 .1 1-.3-.6-3.3-3.1-6.4-4.8-9.2-2-3.4-5.3-6.4-6-10.4 0-.4-1-.1-1 .3"/><path d="M102.8 168.6c2.6 4.5 1.8 9.7 2.3 14.7 0 .5 1 .2 1-.3-.6-5 .2-10.2-2.4-14.8-.3-.4-1.2 0-1 .4m-12.1 3.8c-.4 3 .6 5.9 1.3 8.8.1.5 1 .2 1-.3-.7-2.8-1.7-5.6-1.3-8.5 0-.6-1-.4-1 0"/><path d="M93.1 181.3c0-1.7.3-3.4.6-5 .3-1.5.8-4.4 2.5-5 .6-.3 0-.4-.4-.3-3.3 1.3-3.6 7.5-3.7 10.5 0 .2 1 0 1-.2m-6-22.6c.4 2.7.6 5.5.2 8.2-.1.5.9.4 1 0 .3-2.8.2-5.7-.2-8.4 0-.5-1-.2-1 .2m4.7-3.8c0 3 1.4 6 .2 8.8-.2.6.8.5 1 .1 1.2-3-.3-6-.2-9 0-.4-1-.3-1 .1m7.6 5.4c1.4 2.3 3.3 4.1 5.2 6 1.7 1.6 4 2.6 5.3 4.7.1.2 1 0 .9-.4-1.3-2-3.5-3.2-5.3-4.7a26 26 0 0 1-5.2-6c-.1-.2-1 0-.9.4"/></g></g><path d="M133 99.8a40 40 0 1 1-80.2 0 40 40 0 0 1 80.1 0" fill="#d5916f" fill-rule="nonzero"/><path d="M97.3 98.9a630.3 630.3 0 0 0-18 5.1l-16.2 6.3v5.8h.2s1.3 3.7 4.3 4.3a9 9 0 0 0 4.5-.9 9.7 9.7 0 0 1 5-.8c3.5.5 8.6.7 9-5.7.4-6.3 9.3-1.8 6.1 4.4-1 2 36-12.2 36.1-12.3l6.6-5.7S119.5 98 108 98a51 51 0 0 0-10.6.8z" fill="url(#j)" fill-rule="nonzero"/><g opacity=".3"><clipPath id="k"><path d="M74.7 114.5h12.7v10.4H74.7z"/></clipPath><g clip-path="url(#k)"><path d="M85.4 114.6c.7.3 1.3.9 1.6 1.6.4.7.5 1.5.5 2.3a7 7 0 0 1-1.9 4.1 7.3 7.3 0 0 1-3.9 2.1 6.8 6.8 0 0 1-2.2.1 6 6 0 0 1-2-.6 4.9 4.9 0 0 1-1.8-1.5 5.2 5.2 0 0 1-1-2.2 5.5 5.5 0 0 1 1.5-4.6 5 5 0 0 1 2.1-1.3c1-.3 1.8-.2 2.7.1.8.3 1.6.8 2 1.7a2.5 2.5 0 0 1 .3 1.5 3 3 0 0 1-.5 1.2 5.9 5.9 0 0 1-.8.7 3.8 3.8 0 0 1-.9.4c-.3.2-.6.2-1 .2a1 1 0 0 1-.7-.7.1.1 0 0 1 0-.1.1.1 0 0 1 .1 0c.2.2.5.3.7.3l.6-.3a5 5 0 0 0 1-1.2l-.1.1c.2-.5.1-1-.1-1.3a2.1 2.1 0 0 0-1.2-.6 2.7 2.7 0 0 0-1.5 0c-.4.1-.9.5-1.3.8a3.9 3.9 0 0 0-1.2 3c0 .5.1 1.1.4 1.7.2.5.5 1 1 1.4a3.6 3.6 0 0 0 1.8.7 3.7 3.7 0 0 0 1.9-.2 5.6 5.6 0 0 0 1.5-1.1l1.3-1.4a8.3 8.3 0 0 0 1.7-3.2v-1.8a4.3 4.3 0 0 0-.7-1.7.1.1 0 0 1 0-.2.1.1 0 0 1 .1 0z" fill="#98191e" fill-rule="nonzero"/></g></g><path d="M105.8 97a90 90 0 0 0-24.8 6c-6.8 2.6-17.9 8.1-17.9 8.1l-.4 4.3s5.5 1 9.7 1c4.3 0 10.9-1.9 10.9-1.9.8-1.3 0-4.6 7.5-7.7.2-.1 2 .7 3.7 1.5a15 15 0 0 0 3.7 1.6c4.3-1.6 6.2-8 10.9-5.5 10.3 5.4 20.4-1.4 20.4-1.4l5.8-2.7-.1-1.6s-15.3-1.9-25.4-1.9c-1.5 0-2.8 0-4 .2z" fill="url(#l)" fill-rule="nonzero"/><path d="M54.7 86c-3.4-.6-6.5 2.3-9.3.5A24.8 24.8 0 0 1 34 65.6c0-11.5 5.6-31.3 17.5-35.9-19.9 6.6-28.2 19.8-28.2 38.6A34.5 34.5 0 0 0 53 102.4L54.7 86z" fill="#cbbaae" fill-rule="nonzero"/><g opacity=".7"><clipPath id="m"><path d="M29 29.7h21.4v19H29z"/></clipPath><g clip-path="url(#m)"><path d="M50.4 29.7s-3.7 2.5-8 9.2c-4.4 6.8-2.7 4.3-2.7 4.3l-2.5 5.5s2.1-9.2 2.3-9.5c.2-.3-9.4 6.4-10.4 8.4s4.7-12.4 19.7-17.9h1.6z" fill="#4c4139" fill-rule="nonzero"/></g></g><g opacity=".1"><clipPath id="n"><path d="M23 34.9h21.8v64.4H23.1z"/></clipPath><g clip-path="url(#n)"><path d="M37.7 36.8v.2l.2.5c0 .5 0 1.2-.2 2.1a18 18 0 0 1-1.1 3.1l-1.8 3.8c-.4.6-.7 1.3-1 2.1l-1 2.3c-.6 1.6-1.5 3.3-2 5.1-.4.9-.8 1.8-1 2.7l-.7 3c-.4 1.9-.5 3.9-.3 6L29 69l.3 1.5c0 .5.2 1 .3 1.4a34.7 34.7 0 0 0 2.7 6.8 67.3 67.3 0 0 0 2.6 4.8 122.9 122.9 0 0 0 2.6 4 93.7 93.7 0 0 0 2.4 3.5 17 17 0 0 0 2.1 2.3c.6.7 1.2 1 1.6 1.4l.5.4v.1l-.6-.4-1.8-1.2a16.1 16.1 0 0 1-2.3-2.2 51.4 51.4 0 0 1-2.6-3.3 65.6 65.6 0 0 1-2.8-4 43.7 43.7 0 0 1-2.7-5 34.3 34.3 0 0 1-2-5.5c-.6-2-1-4-1-6v-3.1l.2-1.6.3-1.4c.4-2 .8-4 1.4-5.8A52.5 52.5 0 0 1 34 46l2-3.7a21.1 21.1 0 0 0 1.3-2.9 7 7 0 0 0 .4-2v-.7z" fill="#6a5b6d" fill-rule="nonzero"/><path d="M42.9 84.9c-.4 4.2-2.3 8.5-2.1 13m-4-1.6c1.3-5 4-9.5 6-13.9m-10 11.4C34 90.1 37.4 86 40 83m-9.8 7c3-3.1 5.2-6.6 8.3-9.3m-10.3 5.8a81.2 81.2 0 0 1 7.6-7m-8 4a51.8 51.8 0 0 1 6-5.5M25 80c2.2-1.4 4.3-3.5 6.6-5.3m-7.3.8c1.9-1.9 3.6-4 5.8-5.2m-5.6-.2c1.9-1.3 3.8-2.7 5.6-3.7m-6.8-.9a18.8 18.8 0 0 1 6.8-2M23.4 62c3-.8 6-1.9 9.1-2M24 58.3a37.4 37.4 0 0 1 9.6-1m-8-2.5a53 53 0 0 1 8.2-.7m-6.9-2.7c2.7 0 5.6 0 8.3.7m-5.4-4c2.3 0 4.8 0 7 .4M32.4 43c2 .5 4 1.3 5.8 2.1m-2.9-4a35.4 35.4 0 0 0 5.6 2.8m-2.3-7.3a8.4 8.4 0 0 0 3 2.5m1.6-4a5.2 5.2 0 0 1 1.2 3.2m-1.5 48c-.4 4-2.3 8.4-2.1 13m-4-1.6c1.3-5 4-9.6 6-14m-10 11.4c1.2-3.7 4.7-7.8 7.2-10.7m-10 6.8c3-3 5.2-6.6 8.3-9.3M28 87.7a81.4 81.4 0 0 1 7.7-7m-8 4a51.9 51.9 0 0 1 6-5.5m-8.8 2.3c2.3-1.5 4.4-3.5 6.7-5.4m-7.3.8c1.9-1.8 3.5-4 5.8-5.2m-5.6-.2c1.9-1.2 3.8-2.7 5.6-3.7m-6.8-.8a18.8 18.8 0 0 1 6.8-2.1m-6.8-1.5c3-.8 6-1.8 9.1-2M24 59.7c3.1-.8 6.4-1 9.5-1m-7.8-2.5a53 53 0 0 1 8-.6m-6.8-2.7c2.7 0 5.6 0 8.3.6m-5.4-4c2.3 0 4.8 0 7 .5m-4.5-5.6c2 .4 4 1.2 5.8 2m-2.9-3.9c1.9 1 2 1.3 4 1.9m-.7-6.4a8.4 8.4 0 0 0 3 2.4m1.6-3.9a5.2 5.2 0 0 1 1.2 3.1" fill="none" stroke="#6a5b6d" stroke-linecap="butt" stroke-linejoin="miter"/><path d="M25.5 51.7a33.3 33.3 0 0 0 .7 2.6 19.2 19.2 0 0 1 0 4l-.3 2.5a22.4 22.4 0 0 0-.3 2.5V66c.1.9.1 1.8.3 2.6 0 .9.3 1.7.4 2.5l.8 2.1.5 1 .6.8c.3.6.8 1 1.1 1.3l1 1 1 .7v.1l-1.2-.5a6 6 0 0 1-1.2-.8c-.4-.3-1-.7-1.4-1.3l-.7-.8-.6-1-.3-.6-.2-.6-.4-1.2c-.1-.8-.3-1.7-.3-2.6V66c.3-1.8.4-3.6.4-5.3v-4.5a24 24 0 0 0 .1-1.8V53a32.6 32.6 0 0 1 0-1.3zm5.6 3.3l.2.5.4 1.1.3.7v1c0 .2 0 .6.2.8l.5.9.5.8.5.8a8.4 8.4 0 0 1 1.1 3.2s-.6-.4-1.2-1.2l-.4-.7a5.8 5.8 0 0 1-.4-.8 8.7 8.7 0 0 1-.6-1.9l-.3-1-.4-.8-.4-.8-.2-.8v-1.3l.1-.4h.1z" fill="#6a5b6d" fill-rule="nonzero"/></g></g><path d="M45.5 100.4c-6.5-1.2-11-7.6-14.3-12.7a43.3 43.3 0 0 1-7-19.6 33.3 33.3 0 0 1 6.7-23c2-2.7 4.3-5 6.5-7.5 3-3.2 6.6-4.9 10.4-6.9 2.7-1.3-1 1.6-1.7 2.3a65.3 65.3 0 0 0-6 7.5c-3.8 5.5-6 12-7 18.5-1.7 11 2.1 23.5 13.2 27.8.7.3 3.3-.8 2.3-1.1C37.6 81.4 34.7 69 36 58.6a45 45 0 0 1 15.9-28.7c.2-.2 0-.4-.2-.5-4.5-1.5-9.7 2.7-13.3 5-3.5 2.4-6.4 6.3-9 9.5a36.4 36.4 0 0 0-7 13.3A37.8 37.8 0 0 0 26.7 86c3.5 6.2 8.9 14.1 16.3 15.5.7.1 3.2-1 2.4-1.2" fill="#373139" fill-rule="nonzero"/><path d="M118.3 64.1c0 1.6-.2 3-.4 4.5a28.5 28.5 0 0 1 7.2 12.8c1.9-4.5 3-9.4 3-14.6 0-19-14-40-31.3-40.3 11 4.6 21.4 26 21.4 37.6" fill="#c4b4a9" fill-rule="nonzero"/><g opacity=".7"><clipPath id="o"><path d="M98.4 26.6h22.1v17.3H98.4z"/></clipPath><g clip-path="url(#o)"><path d="M98.4 26.6l.4 1s8.2 7 9.9 10.2c7.1 14.4 3.8-1 3.8-1l8 5.2s-9-15.5-22.1-15.4" fill="#4c4139" fill-rule="nonzero"/></g></g><path d="M50.8 103l1.7-16.5a32 32 0 0 0-6.7-.6c-.8 4.5-1.4 10.8-1.6 15.5a34.2 34.2 0 0 0 6.6 1.6" fill="#4c4139" fill-rule="nonzero"/><path d="M78.3 58a3 3 0 0 1 2-4 3 3 0 0 1 3.9 2" fill="#8f7d6f" fill-rule="nonzero"/><path d="M118.3 64.1c0 1.6-.2 3-.4 4.5a28.5 28.5 0 0 1 7.2 12.8c1.9-4.5 3-9.4 3-14.6 0-19-14-40-31.3-40.3 11 4.6 21.4 26 21.4 37.6z" fill="none" stroke="#373139" stroke-width="2" stroke-linecap="butt" stroke-linejoin="miter"/><path d="M47 84.4h1.8l.2.1h.8l.1.1h.6l.1.1h.5v.1h.5l.3.1h.4l.2.1 1.6.3-2 19.4-1.6-.2h-.4l-.1-.1h-.5l-.2-.1H49l-.1-.1h-.4v-.1H48l-.1-.1h-.4v-.1H47v-.1h-.2l-.2-.1h-.2l-.1-.1H46v-.1h-.4v-.1h-.2l-.2-.1H45l-.1-.1h-.2l-.1-.1h-.2l-.1-.1H44l-.1-.1h-.1l-1.2-.5v-2l.1-.2v-1.4l.1-.3V97l.1-.2v-1l.1-.3v-1l.1-.3v-.7l.1-.3v-.8l.1-.2v-.8l.1-.2v-.6l.1-.2v-.5l.1-.3V89l.1-.2v-.5l.1-.2v-.4l.1-.1V87l.1-.2v-.4l.1-.2v-.4l.3-1.3h2.1l.1-.1h.4zm0 3.1v.7l-.1.2v.5l-.1.2v.5l-.1.2v.7l-.1.2v.5l-.1.3v.7l-.1.3v.7l-.1.3v.7l-.1.3v1l-.1.2v1l-.1.3v1.5l-.1.2v1.4l-.1.2h.2v.1h.2l.2.1h.2l.2.1h.2l.2.1h.2v.1h.3l.1.1h.4l.1.1h.3l.1.1h.4l.1.1h.3l1.4-13.4h-.4l-.2-.1h-.6l-.1-.1h-.8l-.1-.1h-1.5v-.1H47v.1z" fill="#272329"/><path d="M78.3 58a3 3 0 0 1 2-4 3 3 0 0 1 3.9 2" fill="none" stroke="#272329" stroke-width="2" stroke-linecap="butt" stroke-linejoin="miter"/><path d="M50.6 91.8a40.3 40.3 0 0 0-.6 6.8c0 6 1.4 12.6 3.8 17.7A118.6 118.6 0 0 1 117.4 97c4.9 0 13 1.1 17.8 1.7.4-8.5-1.2-16.7-5.5-23-4.3-.5-13.7-.7-18.1-.7a118 118 0 0 0-61 16.8" fill="#8f7d6f" fill-rule="nonzero"/><path d="M51.7 106a43 43 0 0 0-.4 3.3 33 33 0 0 0 2.5 7.3 111 111 0 0 1 39.6-16.1c.5-.1 2.6 4.7 3.1 4.6 1.3-.3 3.7.8 5 .6 1-.1 4.2-3.1 5.2-3.3.6 0-.2-4.4.4-4.4a80.1 80.1 0 0 1 10.3-.7c4.9 0 13 1.1 17.8 1.8a47 47 0 0 0-.5-10.2 252 252 0 0 0-18.2-.7 126 126 0 0 0-64.8 17.9" fill="#827365" fill-rule="nonzero"/><path d="M111.6 74.5c3.6 0 8.8.2 12.9.5a40.1 40.1 0 0 0-72 15.2c17-10 38-15.7 59-15.7" fill="#4c4139" fill-rule="nonzero"/><path d="M92 56.6h2.2l.2.1h1.1l.2.1h.8l.1.1h.7l.1.1h.5l.2.1h.4l.2.1h.5l.1.1h.5l.1.1h.3l.2.1h.3l.2.1h.3l.1.1h.2l.1.1h.4l.2.1h.2l.1.1h.2l.1.1h.2l.1.1h.3l.2.1h.1l.2.1h.1l.2.1h.2v.1h.2l.2.1h.1l.2.1h.1l.2.1h.1l.2.1h.1l.2.1h.1l.2.1h.1l.2.1.2.1h.2l.1.2h.3l.2.1h.1l.1.1.2.1h.1l.2.1h.1l.2.2h.2l.2.1.1.1h.2v.1l.2.1h.2l.1.1.2.1.2.1.2.1h.1l.1.1.2.1h.1l.1.2h.3l.2.2.2.1h.2v.2h.2l.2.1.2.2h.2v.1l.2.1h.2v.2h.2l.1.1h.2l.1.2h.1l.2.1v.1l.2.1h.2v.2h.2l.1.1.2.1v.1h.2l.1.2h.2v.2h.2l.1.1.2.1v.1h.2l.1.2h.2v.2h.2l.1.2h.2v.1l.2.1.1.1.1.1.2.1v.1l.2.1h.1l.1.2h.1l.2.2.2.2h.1l.1.2h.2v.2h.2v.2h.2l.1.2h.1l.2.2.2.2.2.2h.1l.1.2h.1l.1.2h.2v.2l.2.1v.1l.2.1v.1l.2.1.1.1.1.1.1.2h.1l.1.2h.1l.1.2.1.1.2.1v.1l.2.1v.2h.2v.2l.2.1v.1l.2.1v.1l.2.1v.2h.2v.2l.2.1v.1l.2.1v.2h.2v.2l.1.1.1.1.1.2h.1l.1.2.1.1.1.1.1.2h.1l.1.2v.1l.2.1v.2h.2v.2l.1.1.1.2 2 2.7-3.6-.3h-1.4l-.4-.1h-1.1l-.2-.1h-1.8l-.2-.1h-3.1l-.3-.1h-10.2l-.2.1h-1.3l-.2.1h-1l-.2.1h-1l-.3.1h-.7l-.2.1h-.8l-.2.1h-.7l-.3.1h-.5l-.2.1H97l-.2.1h-.5l-.3.1h-.4l-.3.1h-.5l-.2.1h-.2l-.3.1h-.5l-.2.1h-.2l-.3.1h-.5l-.2.1H92l-.3.1h-.2l-.3.1H91l-.2.1h-.3l-.2.1H90l-.2.1h-.5l-.2.1h-.2l-.3.1-.2.1H88l-.2.1h-.2l-.3.1h-.2l-.2.1h-.3l-.2.1h-.2l-.3.1h-.2l-.2.1-.3.1H85l-.2.1h-.3l-.2.1-.2.1h-.3l-.2.1h-.2l-.3.1-.2.1h-.2l-.3.1-.2.1H82l-.3.1h-.2l-.2.2h-.5l-.2.2h-.5l-.2.2h-.2l-.3.1h-.2l-.2.1-.3.1h-.2l-.2.1-.2.1-.3.1h-.2l-.2.1-.2.1H77l-.2.2h-.2l-.2.1H76l-.2.2h-.2l-.3.1-.2.1H75l-.2.1-.2.1-.3.1h-.2l-.2.2h-.2l-.3.1-.2.1-.2.1h-.2l-.3.2h-.2l-.2.1-.2.1-.2.1h-.3l-.2.2H71l-.2.1-.2.1-.3.1-.2.1H70l-.2.2h-.2l-.3.1-.2.1-.2.1-.2.1-.2.1-.2.1-.3.1h-.2l-.2.2h-.2l-.2.2H67l-.3.1-.2.1-.2.1-.2.1-.2.1-.2.1-.2.1-.3.1-.2.1-.2.1-.2.1-.2.1-.2.1-.2.1-.2.1h-.3l-.2.2H63l-.2.2h-.2l-.2.2h-.2l-.2.2h-.2l-.2.2h-.2l-.3.2-.2.1-.2.1-.2.1-.2.1-.2.1-.2.1-.2.1-.2.1-.2.1-.2.1-.2.1-.2.1-.2.2h-.2l-.2.2h-.2l-.3.2-.2.1-.2.1-.2.1-.2.1-.2.1-.2.1-.2.2H56l-.2.2h-.2l-.2.2-.2.1-.2.1-.2.1-.2.2h-.2l-.2.2-.2.1-.2.1-.2.1-.2.1-3 1.9.6-3.4v-.2l.1-.2V90l.1-.1v-.4h.1V89h.1v-.3l.1-.1v-.2l.1-.2V88h.1v-.4l.1-.1v-.2l.1-.2v-.2h.1v-.2l.1-.2v-.2l.1-.1V86l.1-.1v-.3h.1v-.2h.1v-.2l.1-.2v-.2l.1-.1v-.1l.1-.1v-.2l.1-.1V84l.1-.1v-.2h.1v-.2h.1v-.2l.1-.2.1-.2.1-.2v-.2l.1-.1v-.1l.1-.1v-.1l.1-.1v-.1l.1-.1v-.1l.1-.1v-.2l.1-.1v-.1l.1-.1V81l.1-.1v-.1l.1-.1v-.1l.1-.1v-.1l.1-.1v-.1l.1-.1V80l.1-.1v-.1l.1-.1v-.1l.1-.1v-.1l.1-.1v-.1l.1-.1V79l.1-.1.1-.1v-.1l.1-.1v-.1l.1-.1v-.1l.1-.1V78l.1-.1v-.1h.1l.1-.2.1-.2.1-.2.1-.2h.1l.1-.1v-.1l.1-.1v-.1l.2-.1v-.2l.1-.1v-.1l.2-.1v-.2h.1v-.2h.2v-.2l.1-.1.1-.1V75l.1-.1v-.1l.2-.1v-.2h.1l.1-.2.1-.1.1-.1V74l.1-.1.1-.1.1-.2h.1v-.2h.1l.1-.1v-.1l.1-.1.1-.1.1-.2h.1v-.1l.1-.1.1-.1v-.1l.2-.1v-.2h.2V72l.1-.1v-.1l.1-.1h.1v-.2h.2v-.2l.2-.1.1-.2.2-.1v-.1l.1-.1.2-.2.1-.1v-.1l.2-.1.1-.2.2-.1v-.1h.1v-.2h.2v-.1l.1-.1v-.1h.2v-.2h.1V69h.2v-.2h.1l.1-.1v-.1h.2v-.2h.1l.1-.1.2-.2.1-.1.1-.1.2-.1v-.1l.1-.1h.1v-.1l.2-.1v-.1h.1l.1-.1.1-.1V67h.2l.1-.1h.1l.1-.2.2-.1.1-.2h.1l.1-.1.2-.1V66h.2l.1-.1h.1v-.2h.2v-.1h.2v-.1l.1-.1h.1l.1-.1v-.1h.2V65l.2-.1.1-.1.1-.1h.1l.1-.1v-.1h.2v-.1l.2-.1.1-.1.1-.1h.1l.1-.1h.1v-.2h.2l.2-.1v-.1h.2v-.1l.1-.1h.1l.1-.1h.1l.1-.1.1-.1.2-.1.2-.1v-.1h.2v-.1h.2v-.1h.1l.1-.1.1-.1h.1l.1-.1h.1l.1-.1h.1l.1-.1.1-.1h.3v-.1h.2v-.1h.2v-.1l.2-.1.2-.1.2-.1.2-.1.2-.1.2-.1.2-.1.2-.1.2-.1.2-.1.2-.1.2-.1.2-.1.2-.1.2-.1h.2V60h.4v-.1h.2v-.1h.2l.2-.1h.1l.1-.1h.1l.1-.1h.2l.1-.1h.1l.1-.1h.2l.1-.1h.1l.2-.1h.2V59h.2l.2-.1h.1l.1-.1h.2l.1-.1h.2l.1-.1h.2l.2-.1h.2v-.1h.4l.1-.1h.2l.1-.1h.2V58h.2l.2-.1h.3l.1-.1h.2l.2-.1h.2l.2-.1h.4l.1-.1h.4v-.1h.4l.1-.1h.4l.2-.1h.5v-.1h.5l.1-.1h.6l.1-.1h.6l.1-.1h.8l.1-.1h1.3l.1-.1H92zm-.3 3h-2.2l-.1.1h-1l-.2.1h-.9l-.1.1h-.7v.1H86l-.1.1h-.5l-.1.1h-.4l-.1.1h-.4l-.2.1H84l-.2.1h-.4v.1H83l-.1.1h-.3l-.1.1h-.2l-.1.1h-.3l-.1.1h-.2l-.1.1h-.3l-.1.1h-.2l-.1.1h-.2l-.1.1h-.2l-.1.1H80l-.1.1h-.2l-.1.1h-.2l-.1.1H79l-.1.1h-.2l-.1.1h-.1v.1h-.2l-.2.1H78v.1h-.2v.1h-.2l-.1.1h-.1l-.1.1H77l-.1.1h-.1l-.1.1h-.1l-.1.1h-.2v.1h-.2v.1H76v.1h-.2l-.1.1h-.1l-.1.1h-.1l-.1.1h-.1l-.1.1H75v.1h-.2l-.2.1-.1.1h-.1l-.1.1h-.1l-.1.1H74v.1h-.2v.1h-.2v.1h-.1l-.1.1h-.1l-.1.1H73v.1h-.2v.2h-.2l-.1.1h-.1l-.1.1h-.1v.1H72v.1l-.1.1h-.1l-.1.2h-.1l-.2.1-.1.1h-.1l-.1.1-.1.1-.2.1-.1.1h-.1l-.1.2h-.1l-.2.1-.1.1-.1.1h-.1v.1h-.2v.1l-.1.1h-.1l-.1.1-.2.2H69l-.1.1-.1.1-.2.1-.1.2h-.1l-.2.2h-.1l-.1.1v.1h-.2v.1l-.1.1h-.1v.1l-.2.1-.1.1-.1.1-.2.1v.2l-.2.1-.1.1-.1.1-.2.1v.1h-.1v.2H66v.2l-.2.1-.1.1v.1h-.2v.2h-.1v.1h-.2v.1l-.1.1v.1H65l-.1.1-.1.1-.1.2h-.1v.1h-.2v.2h-.1v.1h-.1l-.1.2-.1.1h-.1v.2h-.2v.1h-.1v.2h-.1l-.1.1v.1h-.1l-.1.1v.1l-.1.1H63v.2h-.2v.2h-.2v.2l-.2.1v.1l-.1.2h-.1v.1l-.1.1H62v.2h-.1l-.1.1v.1h-.1l-.1.2-.1.1v.1h-.1l-.1.2-.1.1-.1.1v.1H61v.2h-.1l-.1.1v.1l-.1.1-.1.2h-.1v.1l-.1.1v.1l-.1.1h-.1v.2H60v.1l-.1.1v.1l-.1.1h-.1v.2h-.1v.1l-.1.1v.1l-.1.1-.1.1-.1.2-.1.1v.1l-.1.1v.1l-.1.1-.1.2h-.1v.2h-.1v.1l-.1.1v.1l-.1.1-.1.2-.1.2-.1.1v.1l-.1.1v.1l-.1.1v.1l-.1.1-.1.2-.1.2-.1.1v.1l-.1.1v.1l-.1.1v.2h-.1v.2h-.1v.2H57v.4h-.1v.2l-.1.1v.1l-.1.1v.1l-.1.1v.2l-.1.1-.1.2v.2h-.1v.2h-.1v.2l-.1.2-.1.1v.2l-.1.1v.1l-.1.1v.2l-.1.1v.2l-.1.1v.2l-.1.1v.2l-.1.1v.1l-.1.1v.2l-.1.1v.3l-.1.1v.2l-.1.1v.2l-.1.1v.2l-.1.1h.2l.2-.2.2-.1.2-.1.2-.1.2-.1.2-.1.2-.2h.2l.3-.2h.2l.2-.2.2-.1.2-.1.2-.1.2-.1.2-.1.2-.2h.2l.3-.2h.2l.2-.2h.2l.2-.2h.2l.2-.2.2-.1.3-.1.2-.1.2-.1.2-.1.2-.1.2-.1.3-.1.2-.1.2-.1.2-.1.2-.1.2-.1.3-.1.2-.1.2-.1.2-.1.2-.1.2-.1.3-.1.2-.1.2-.1.2-.1.2-.1.3-.1.2-.1.2-.1h.2l.2-.2h.3l.2-.2h.2l.2-.2h.3l.2-.1.2-.1.2-.1.3-.1.2-.1h.2l.2-.2h.3l.2-.2h.2l.2-.1.3-.1.2-.1h.2l.2-.2h.3l.2-.2h.2l.2-.1.3-.1h.2l.2-.2h.3l.2-.1.2-.1.3-.1h.2l.2-.2h.2l.3-.1.2-.1h.2l.3-.2h.2l.2-.1h.3l.2-.2h.2l.3-.1h.2l.2-.2h.3l.2-.1h.2l.3-.2h.2l.2-.1h.3l.2-.1.2-.1h.3l.2-.2h.5l.2-.2h.3l.2-.1h.2l.3-.1.2-.1h.2l.3-.1h.2l.3-.2h.4l.3-.1.2-.1h.2l.3-.1h.2l.3-.2h.4l.3-.1h.2l.3-.1.2-.1h.3l.2-.1h.2l.3-.1h.2l.3-.1h.2l.2-.1h.3l.2-.1h.3l.2-.1h.3l.2-.1h.3l.2-.1h.2l.3-.1h.2l.3-.1h.2l.3-.1h.2l.3-.1h.2l.3-.1h.4l.3-.1h.2l.3-.1h.5l.2-.1h.3l.2-.1h.5l.3-.1h.5l.2-.1h.3l.2-.1h.8l.2-.1h.5l.3-.1h.5l.2-.1h.8l.2-.1h.8l.2-.1h1l.3-.1h1l.3-.1h1.2l.3-.1h2l.3-.1h11.4l.1.1h2l.2.1h.1l-.1-.2h-.1v-.2h-.2v-.2h-.2v-.2l-.2-.1v-.1l-.2-.1V72l-.1-.1-.1-.1-.1-.1-.1-.1-.1-.1-.1-.1-.1-.1-.1-.1-.1-.1-.1-.1-.1-.1-.1-.1-.1-.1-.1-.1-.1-.1-.1-.1-.1-.1-.1-.1-.1-.1-.1-.1-.1-.1-.1-.1-.1-.1-.1-.1-.1-.1-.1-.1-.2-.1v-.1h-.2V69h-.2v-.2h-.2l-.1-.2h-.1l-.1-.1-.1-.1-.1-.1-.1-.1h-.2V68h-.2v-.2h-.2l-.1-.1-.1-.1-.1-.1h-.1l-.2-.2-.2-.1-.1-.1-.1-.1-.1-.1h-.1l-.2-.2-.2-.1-.1-.1h-.1l-.1-.2h-.2v-.1l-.2-.1h-.1l-.1-.2h-.1l-.2-.1v-.1h-.2l-.1-.2h-.1l-.2-.1-.2-.2h-.1l-.1-.1h-.2V65h-.5l-.1-.2h-.2l-.1-.1h-.1l-.1-.2h-.2l-.1-.2h-.3l-.1-.2h-.2l-.2-.2h-.2l-.2-.2h-.2l-.1-.1-.2-.1-.2-.1h-.1l-.2-.2h-.2l-.2-.1h-.1l-.1-.2h-.2l-.2-.1h-.2v-.1h-.2l-.1-.2h-.3l-.1-.1h-.2l-.1-.1h-.1l-.2-.1h-.1l-.1-.1h-.2l-.1-.1h-.2v-.1h-.2l-.2-.1h-.1l-.1-.1h-.2l-.1-.1h-.3l-.1-.1h-.2l-.1-.1h-.1l-.2-.1h-.2l-.2-.1h-.1l-.2-.1h-.2l-.2-.1h-.1l-.2-.1h-.2l-.2-.1h-.2l-.1-.1h-.4l-.1-.1h-.4l-.2-.1h-.2l-.1-.1h-.4l-.2-.1h-.3l-.1-.1h-.6l-.1-.1h-.5l-.1-.1h-.6l-.2-.1h-.8l-.2-.1h-1l-.2-.1h-2.5z" fill="#413942"/><path d="M88.9 56.4c-5.3.1-10.4.5-15 2.5-.5.5-1.6 2-1.1 2.5.1.2 2.8-.4 3-.2a62 62 0 0 1 9.5 18.2 121.9 121.9 0 0 1 16.6-2.8 57 57 0 0 0-13-20.2" fill="#8f7d6f" fill-rule="nonzero"/><path d="M112.4 73.1h4.4l.3.1h1.9l.3.1h1.2l.2.1h1.2l.3.1h1.1l.3.1h.8l.2.1h.8l.3.1h.7l.3.1h.7l.2.1h.7l.2.1h.7l.2.1 1 .1.5.7.1.1h.1v.2h.1v.1l.1.1.1.2.1.1v.1h.1v.2h.1v.1l.1.1v.1h.1v.2h.1v.1l.1.1.1.2.1.1v.2h.1v.2h.1v.1l.1.1v.1h.1v.2h.1v.2l.1.1.1.2.1.1v.2l.1.1v.1h.1v.2l.1.1v.1l.1.1v.1l.1.2.1.1v.2l.1.1v.1l.1.2v.1l.1.1v.1l.1.1v.1l.1.2v.2h.1v.2l.1.1v.2h.1v.2l.1.2v.1l.1.1v.3l.1.1v.2h.1v.4h.1v.2l.1.1v.3l.1.1v.2l.1.2v.2l.1.1v.3l.1.1v.3l.1.1v.3l.1.2v.2l.1.2v.4l.1.1v.5l.1.1v.5l.1.1v.4l.1.2v.6h.1v.5l.1.1v.9l.1.1v.9l.1.1v1.7l.1.1v4.8l-.1 1.7-2-.3h-.5l-1-.1-.6-.1h-.5l-.5-.1-.6-.1h-.6l-.3-.1h-.3l-.2-.1h-.6l-.3-.1h-.6l-.3-.1h-.6l-.3-.1h-.6l-.3-.1h-.6l-.3-.1h-.6l-.3-.1h-.9l-.3-.1h-.9l-.1-.1h-1.3l-.1-.1h-1.8l-.1-.1h-5.8l-.1.1H111l-.2.1h-1.3l-.2.1h-.9v.5h-.1v.7l-.1.1v.4h-.1v.4h-.1v.4l-.1.1v.2l-.1.1v.2h-.1v.2h-.1v.2l-.1.1v.2h-.1v.1l-.1.1v.1h-.1v.2h-.1v.2h-.1v.1h-.1v.1l-.1.1v.1h-.1v.1h-.1v.1l-.1.1v.1h-.1v.1h-.1v.1h-.1v.1h-.1v.1l-.1.1-.1.1-.1.1h-.1v.1h-.1v.1h-.1v.1h-.1v.1h-.1v.1h-.1l-.1.1-.1.1h-.1l-.1.1-.1.1h-.1v.1h-.1l-.1.1h-.1l-.1.1h-.1v.1h-.2v.1h-.1l-.1.1h-.2v.1h-.2v.1h-.3v.1h-.2l-.1.1h-.2l-.1.1h-.2v.1h-.4l-.1.1h-.7v.1h-2.5v-.1h-.4v-.1h-.3l-.1-.1h-.3v-.1h-.3v-.1H97v-.1h-.2l-.1-.1h-.2v-.1h-.1l-.1-.1h-.1l-.1-.1H96v-.1h-.2v-.1h-.1l-.1-.1h-.1v-.1h-.1l-.1-.1-.1-.1H95v-.1l-.1-.1-.1-.1h-.1v-.1h-.1v-.1h-.1v-.1h-.1v-.1h-.1v-.1h-.1v-.1H94v-.2h-.1v-.1l-.1-.1-.1-.1v-.1h-.1v-.1h-.1v-.1h-.1v-.2h-.1v-.1h-.1v-.2H93v-.3h-.1v-.1l-.1-.1v-.1l-.1-.1v-.2h-.1v-.1l-.1-.1v-.2h-.1v-.2l-.1-.1v-.1h-.5l-.1.1h-.2l-.1.1H91l-.1.1h-.2l-.2.1h-.3l-.2.1-.2.1h-.2l-.1.1H89l-.1.1h-.2l-.2.1h-.1l-.2.1h-.1l-.2.1h-.2l-.1.1h-.4l-.1.1h-.2l-.2.1h-.1l-.2.1h-.2l-.1.1h-.2l-.1.1h-.2l-.2.1h-.1l-.2.1h-.2l-.1.1h-.2l-.1.1h-.2l-.2.1H84l-.2.1h-.2l-.1.1h-.2l-.1.1H83l-.2.1h-.1l-.2.1h-.1l-.2.1H82l-.1.1h-.2l-.1.1h-.2l-.2.1-.1.1h-.2l-.1.1h-.2l-.2.1h-.1l-.2.1H80l-.2.1-.2.1h-.1l-.2.1h-.1l-.2.1h-.2l-.1.1-.2.1h-.1l-.2.1H78l-.1.1-.2.1h-.1l-.2.1h-.1l-.2.1-.2.1h-.1l-.2.1h-.1l-.2.1-.1.1H76l-.2.1h-.1l-.2.1-.1.1h-.2l-.1.1h-.2l-.1.2h-.4l-.1.1-.2.1H74l-.2.1-.1.1h-.2l-.1.1h-.2l-.1.2h-.4l-.1.2h-.3l-.2.1-.1.1h-.2l-.1.1-.2.1h-.1l-.2.1-.1.1h-.2l-.1.2h-.4l-.1.2H70l-.1.1h-.2l-.1.1-.2.1h-.1l-.2.1-.1.1h-.2l-.1.2h-.2l-.1.1h-.2l-.1.1-.2.1h.1l-.2.1-.1.1-.2.1h-.1l-.2.1-.1.1h-.2l-.1.2h-.1l-.2.1h-.1l-.2.1-.1.1-.2.1h-.1l-.2.1-.1.1-.2.1h-.1l-.2.1-.1.1-.2.1h-.1l-.2.1-.1.1-.1.1H64l-.1.2h-.2l-.1.1h-.2l-.1.2H63l-.1.1-.1.1h-.2l-.1.1-.2.1-.1.1H62l-.1.2h-.1l-.2.1-.1.1h-.2l-.1.2H61l-.1.1-.1.1h-.2l-.1.2h-.2l-.1.1-.1.1h-.2l-.1.2h-.2l-.1.1-.1.1-.2.1h-.1l-.2.2h-.1l-.1.1-.2.1h-.1l-.2.2h-.1l-.1.1-.2.1-.1.1h-.1l-.2.2h-.1l-.2.1-.1.1-.1.1-.2.1h-.1l-.1.2h-.2l-.1.1-.1.1-.2.1-.1.1h-.1l-.2.2h-.1l-.1.1-.2.1-.1.1-.2.1-1.7 1.1-.8-1.7v-.2l-.1-.2-.1-.2-.1-.1v-.2h-.1v-.2l-.1-.2-.1-.2v-.2h-.1v-.2l-.1-.2-.1-.2v-.2h-.1v-.2l-.1-.2-.1-.2v-.2l-.1-.1v-.1l-.1-.2v-.1l-.1-.2-.1-.2v-.4l-.1-.2-.1-.2v-.2l-.1-.1v-.3l-.1-.1v-.2l-.1-.1v-.3l-.1-.2v-.2l-.1-.2v-.1l-.1-.2v-.3l-.1-.1v-.3l-.1-.1v-.3l-.1-.2v-.3l-.1-.1v-.5l-.1-.1v-.4l-.1-.2v-.2l-.1-.2v-.5l-.1-.1v-.6l-.1-.2v-.6l-.1-.1v-.8l-.1-.1v-.8l-.1-.1V101l-.1-.1v-5.6l.1-.1v-.9l.1-.2v-.7h.1v-.6l.1-.1v-.5l.1-.1v-.2l.2-.7.8-.5.2-.2.3-.1.2-.2.2-.1.3-.1.2-.2.3-.1.2-.2.2-.1.3-.2h.2l.3-.2.2-.2.2-.1.3-.2h.2l.3-.2.2-.2h.3l.2-.2.3-.2.2-.1.3-.1.2-.2.3-.1.2-.1.3-.2.2-.1.3-.1.2-.2h.3l.2-.2.3-.2h.2l.3-.2.2-.1.3-.2h.2l.3-.2.3-.1.2-.2h.3l.2-.2.3-.1.2-.2h.3l.3-.2.2-.1.3-.2h.2l.3-.2.3-.1.2-.1.3-.1.3-.2h.2l.3-.2.2-.1.3-.1.3-.1.2-.2h.3l.3-.2h.2l.3-.2.3-.1.2-.1.3-.1.3-.1.3-.1.2-.1.2-.1.2-.1h.2v-.1h.2l.2-.1h.1l.1-.1h.2l.1-.1h.1l.2-.1h.1l.1-.1h.2l.1-.1h.2l.1-.1h.1l.2-.1h.1l.1-.1h.2l.1-.1h.2v-.1h.2l.2-.1h.1l.1-.1h.2l.1-.1h.2l.1-.1h.1l.2-.1h.1l.1-.1h.2l.1-.1h.2l.1-.1h.3l.1-.1h.2l.1-.1h.1l.2-.1h.1l.2-.1h.1l.1-.1h.3l.2-.1h.1l.1-.1h.2l.1-.1h.3l.1-.1h.2l.1-.1h.2l.1-.1h.3l.1-.1h.2l.1-.1h.3l.1-.1h.2l.1-.1h.1l.2-.1h.3l.1-.1h.4l.1-.1h.2l.1-.1h.2l.2-.1h.1l.1-.1h.3l.2-.1h.3l.1-.1h.3v-.4l-.1-.1v-.2H82v-.2l-.1-.2V76l-.1-.1v-.2l-.1-.1v-.1l-.1-.2-.1-.1V75l-.1-.2v-.1l-.1-.2-.1-.2v-.2l-.1-.1-.1-.2-.1-.1v-.2h-.1v-.2l-.1-.2-.1-.1v-.2h-.1v-.2l-.1-.2-.1-.1V72h-.1l-.1-.2v-.2l-.1-.1-.1-.2-.1-.2V71l-.2-.1v-.2h-.1v-.2l-.1-.2-.1-.1V70h-.1l-.1-.2v-.2l-.1-.1-.1-.2-.2-.2v-.2l-.1-.1v-.1l-.1-.2-.1-.1v-.2h-.2V68l-.1-.2v-.1l-.2-.1v-.2l-.1-.1v-.1l-.1-.2-.1-.1-.1-.1v-.2h-.1l-.1-.2-.1-.2-.1-.2-.1-.1-.1-.2-.1-.2-.1-.1-.1-.2-.1-.2-.1-.1-.1-.2-.2-.2v-.1l-.1-.1V64h-.2v-.2l-.1-.1v-.1l-.2-.1v-.1l-.1-.2-.2-.2-.1-.2-.1-.2h-.5l-.2.1h-.5l-.1.1h-1.5l-.2-.1-.1-.1h-.1l-.1-.1v-.1h-.1l-.1-.2h-.1V62h-.1v-.3h-.1v-.3h-.1v-1.2h.1V60h.1v-.2h.1v-.2h.1v-.2h.1v-.1l.1-.2h.1V59l.1-.1.1-.2.1-.1.1-.1.1-.1v-.1h.1v-.1h.1V58h.1l.1-.1.1-.1.1-.1.2-.2h.3v-.1h.2l.1-.1h.1l.2-.1.2-.1h.1l.1-.1h.2l.2-.1.2-.1h.1l.1-.1h.4v-.1h.4l.1-.1h.2v-.1h.3l.1-.1h.3v-.1h.3l.1-.1h.4l.1-.1h.2l.2-.1h.3l.1-.1h.4l.1-.1h.2l.2-.1h.4l.2-.1h.5l.1-.1h.5l.1-.1h.8v-.1h.8l.1-.1h1.1l.2-.1h1.2l.2-.1h1.8l.2-.1h1.6l.1.1h.1l.1.1h.1l.1.1h.1v.1h.1l.1.1h.1v.1h.1v.1h.1l.1.1h.1v.1l.1.1h.1v.1h.1v.1h.1v.1h.1v.1h.1v.1h.1v.1h.1v.1h.1v.1l.1.1.1.1.1.1.1.1.1.1v.1h.1v.1h.2v.2h.1v.1h.1v.1l.2.2v.1l.2.1.1.2.1.1.1.1.1.2.2.1v.2l.2.1.1.2.1.1.1.2.2.1v.2l.2.2.1.1.1.2.2.1v.2l.2.2.1.1.1.2.2.2v.1l.2.2.1.2.2.2v.1l.2.2.1.2.2.2v.2l.2.2.1.1.2.2v.2l.2.2.1.2.2.2v.2l.2.1.1.2.1.2.2.2v.2l.2.2.1.2.1.2.2.2v.2l.2.2.1.2.1.2.2.2v.1l.2.2v.2l.2.2.1.2v.1l.1.1v.1l.1.1v.1l.2.1v.2l.1.1v.1l.1.1.1.2.1.2.1.2.1.2.1.2.1.1v.1l.1.1v.1l.1.1v.1l.1.1v.1l.1.1.1.2.1.2v.2h.1v.1l.1.1v.1l.1.1v.2l.1.1.1.2.1.2v.1l.1.1v.2l.1.1h2.5l.2-.1h1.4l.2-.1h3.2l.3-.1h2.2zm-24-15.2H86l-.1.1h-1.2l-.1.1h-1l-.2.1h-.7l-.2.1h-.7l-.1.1h-.5l-.2.1h-.4l-.1.1H80v.1h-.4l-.1.1H79v.1h-.4v.1h-.5l-.1.1h-.2l-.1.1h-.2l-.2.1H77v.1h-.2l-.2.1h-.2v.1h-.2l-.2.1.2.1.2.1.1.1h.1v.1l.1.1h.1l.1.2v.1l.2.1v.1l.1.2h.1v.2l.2.1v.1l.1.1.1.2.2.2v.1l.1.1.1.2.2.2v.1l.1.2h.1v.2l.2.1v.2h.1l.1.2v.1l.2.2v.1l.1.1.1.2v.1l.2.1v.2l.1.1.1.2.1.2.1.2h.1v.2l.2.2v.1l.1.2h.1v.2l.1.2.1.1.1.2v.1l.2.1v.2l.1.1v.2l.2.1v.2l.1.1v.2h.2v.2l.1.2v.1l.1.2.1.1v.2l.2.1v.2l.1.1v.2l.1.1.1.1v.2l.2.1v.3l.2.2v.3l.2.1v.3l.2.2v.3l.1.1.1.1v.2l.1.1.1.2v.1l.1.2v.1l.1.2.1.1v.2h.1v.2l.1.2v.1l.1.2.1.1v.2h.1v.2l.1.2v.1l.1.2.1.2v.2l.1.1v.2h.1v.2l.1.2v.1l.1.1v.3l.1.1v.2l.1.1v.1l.1.2v.2l.1.2.5 1.6-1.7.4H84l-.2.1h-.2l-.2.1H83v.1h-.4l-.1.1h-.1l-.2.1H82l-.1.1h-.4l-.1.1h-.2l-.2.1h-.2l-.1.1h-.3l-.1.1H80l-.2.1h-.2l-.1.1h-.2l-.1.1H79v.1h-.4l-.1.1h-.1l-.2.1H78v.1h-.2l-.2.1h-.1l-.1.1H77l-.1.1h-.2l-.1.1h-.2v.1H76l-.1.1h-.1l-.2.1h-.1l-.1.1h-.2l-.1.1h-.3l-.1.1h-.2v.1h-.2l-.2.1-.2.1h-.2v.1h-.2l-.2.1-.2.1h-.3l-.1.1h-.2l-.1.1h-.1l-.2.1H72l-.1.1h-.2l-.1.1h-.1l-.2.1h-.1l-.1.1h-.2v.1h-.2l-.2.1-.2.1H70v.1h-.2l-.2.1-.2.1h-.2v.1l-.3.1-.3.2h-.3l-.2.2h-.3l-.3.2h-.2l-.3.2-.2.1-.3.1-.3.1-.2.1-.3.1-.2.2h-.3l-.2.2-.3.1-.3.1-.2.1-.3.2h-.2l-.3.2-.2.1-.3.1-.2.1-.3.2h-.2l-.3.2-.2.1-.3.1-.2.2H61l-.2.2-.3.1-.2.2H60l-.2.2-.3.1-.2.2H59l-.2.2-.3.1-.2.2H58l-.2.2-.2.2h-.3l-.2.2-.3.1-.2.2-.2.1-.3.1-.2.2-.3.1-.2.1-.2.2-.3.1-.2.1-.3.2-.2.1-.2.1-.3.2-.2.1-.2.2-.3.1-.2.1-.2.2-.3.1-.2.2H52v.7l-.1.2v.5l-.1.1v.8h-.1v1.2l-.1.1v5.7l.1.2v.7l.1.2v.6l.1.2v.5l.1.2v.5l.1.2v.4l.1.1v.5h.1v.5l.1.1v.3l.1.2v.4l.1.1v.3l.1.1v.4l.1.1v.2l.1.2v.2l.1.2v.2l.1.2v.2h.1v.4h.1v.3l.1.2v.1l.1.1v.2h.1v.4h.1v.2l.1.1v.2h.1v.3l.1.2.1.2v.1l.1.2.1.2v.1l.1.2.2-.1h.1l.2-.2h.1l.1-.1.2-.1.1-.1.2-.1h.1l.1-.2h.2l.1-.1.2-.1.1-.1.1-.1h.2l.1-.2h.2l.1-.1.2-.1.1-.1.1-.1h.2l.1-.2h.2l.1-.1.2-.1.1-.1h.1l.2-.2h.1l.2-.1.1-.1.2-.1h.1l.2-.2h.1l.2-.1.1-.1h.1l.2-.2h.1l.2-.1.1-.1.2-.1h.1l.2-.2h.1l.2-.1.1-.1h.2l.1-.2h.2l.1-.1h.2l.1-.2h.2l.1-.1.2-.1h.1l.2-.2h.1l.2-.1h.1l.2-.2h.1l.2-.1.1-.1h.2l.1-.1.2-.1.1-.1h.2l.1-.1.2-.1.1-.1h.2l.1-.1.2-.1.1-.1h.2l.1-.1.2-.1.1-.1h.2l.1-.1.2-.1h.2l.1-.2h.2l.1-.1h.2l.1-.1.2-.1h.1l.2-.2h.1l.2-.1h.2l.1-.1.2-.1h.1l.2-.1.1-.1h.2l.1-.2h.2l.2-.1h.1l.2-.1.1-.1h.2l.1-.1.2-.1h.2l.1-.1.2-.1h.1l.2-.1.1-.1h.2l.2-.1.1-.1h.2l.1-.1.2-.1h.2l.1-.1h.2l.1-.1.2-.1h.2l.1-.1.2-.1h.1l.2-.1.2-.1h.1l.2-.1h.1l.2-.1.2-.1h.1l.2-.1h.1l.2-.1.2-.1h.1l.2-.1h.2l.1-.1.2-.1h.1l.2-.1h.2l.1-.1.2-.1h.2l.1-.1h.2l.1-.1.2-.1h.2l.1-.1h.2l.2-.1h.1l.2-.1h.2l.1-.1.2-.1h.2l.1-.1h.2l.1-.1h.2l.2-.1h.1l.2-.1h.2l.1-.1.2-.1h.2l.1-.1h.2l.2-.1h.1l.2-.1h.2l.1-.1h.2l.2-.1h.1l.2-.1h.2l.1-.1h.2l.2-.1h.1l.2-.1h.2l.1-.1h.2l.2-.1h.1l.2-.1h.3l.2-.1h.2l.1-.1h.2l.2-.1h.2l.1-.1h.2l.2-.1h.3l.2-.1h.1l.2-.1h.2l.1-.1h.2l.2-.1h.2l.2-.1h.2l.1-.1h.4l.1-.1h.2l.2-.1h.4l.2-.1h.2l.1-.1h.4l.1-.1 1.8-.4.2 1.6v.2l.1.1v.3l.1.1v.2l.1.1v.2h.1v.2h.1v.2h.1v.2h.1v.1l.1.1v.1h.1v.1l.1.1v.1h.1v.1h.1v.1l.1.1.1.1.1.1.1.1v.1h.1l.1.1h.1v.1h.1v.1h.1v.1h.1l.1.1h.1v.1h.1l.1.1h.1l.1.1h.1v.1h.2l.1.1h.2v.1h.4v.1h.3l.1.1h.4l.1.1h1.9v-.1h.4v-.1h.2l.1-.1h.2v-.1h.2v-.1h.2v-.1h.2v-.1h.1l.1-.1h.1v-.1h.1v-.1h.1v-.1h.1l.1-.1h.1v-.1h.1v-.1h.1v-.1h.1v-.1h.1v-.1h.1v-.1h.1v-.1l.1-.1v-.1h.1v-.1l.1-.1v-.1h.1v-.2h.1v-.1l.1-.1v-.1l.1-.1v-.1l.1-.1v-.2h.1v-.5h.1v-.4h.1v-.6l.1-.1v-1.3l-.5-1.7 2-.2h1.1l.2-.1h1l.2-.1h1.3l.2-.1h1.5l.1-.1h2.6l.2-.1h5.1l.2.1h1.3l.1.1h1.1l.3.1h.6l.3.1h.6l.3.1h.6l.3.1h.6l.3.1h.6l.3.1h.6l.3.1h.6l.3.1h.3l.3.1h.3l.6.1h.5l.6.1.5.1h.5l.3.1v-4.6l-.1-.1v-1l-.1-.1v-.7l-.1-.2v-.6h-.1V89l-.1-.1v-.5h-.1v-.5h-.1v-.4l-.1-.1v-.5h-.1v-.4l-.1-.1v-.3l-.1-.1v-.2l-.1-.2v-.2l-.1-.1V85h-.1v-.4l-.1-.1v-.2l-.1-.1V84l-.1-.2v-.2l-.1-.1v-.2h-.1V83h-.1v-.2l-.1-.1v-.2h-.1v-.3l-.1-.1V82h-.1v-.2h-.1v-.2l-.1-.1v-.1l-.1-.2V81l-.1-.1v-.2h-.1v-.1l-.1-.1v-.1l-.1-.1v-.1l-.1-.2-.1-.1v-.1l-.1-.1v-.2h-.1v-.1l-.1-.1v-.1l-.1-.2-.1-.1v-.2h-.1v-.1h-.1v-.1l-.1-.1v-.1l-.1-.1v-.1l-.1-.1-.1-.1v-.1l-.1-.2-.1-.1-.1-.1v-.1h-.1v-.2h-.5l-.2-.1h-.6l-.3-.1h-.7l-.2-.1h-.8l-.2-.1h-1l-.3-.1h-.8l-.2-.1H122l-.3-.1h-1.1l-.3-.1H119l-.3-.1h-2.1l-.3-.1h-11.1l-.2.1h-.8l-.5.1h-1l-.6.1-1.7.1-.4-1.1v-.2l-.1-.1V75l-.1-.1v-.1l-.1-.1v-.2h-.1v-.2l-.1-.1V74l-.1-.1v-.2h-.1v-.2l-.1-.1-.1-.2v-.1L99 73l-.1-.1v-.2h-.1v-.2h-.1v-.1l-.1-.1v-.1h-.1V72h-.1v-.2l-.1-.1v-.1l-.1-.1v-.1l-.1-.1v-.1H98V71h-.1v-.2h-.1v-.1l-.1-.1v-.1l-.1-.1v-.1l-.1-.1V70l-.1-.1-.1-.2h-.1l-.1-.3-.1-.1-.1-.2-.1-.2-.1-.2-.2-.2v-.2l-.2-.2V68l-.2-.2-.1-.2-.1-.2-.2-.2V67l-.2-.2-.1-.1-.1-.2-.1-.2-.2-.2V66l-.2-.2-.1-.1-.1-.2-.2-.2v-.2l-.2-.1-.1-.2-.1-.2-.2-.2v-.1l-.2-.2-.1-.2-.1-.2-.1-.1-.2-.2v-.2l-.2-.1-.1-.2-.1-.1-.2-.2v-.2l-.2-.1-.1-.2-.1-.1-.1-.2-.1-.1-.2-.2v-.1l-.2-.2v-.1l-.2-.1-.1-.2-.1-.1-.1-.1-.1-.2-.1-.1-.1-.1-.1-.2h-.1l-.1-.2-.1-.1-.1-.1-.1-.1-.1-.1v-.1h-.1v-.1h-.1V59l-.1-.1-.1-.1h-.1v-.1l-.1-.1-.1-.1-.1-.1H89v-.1l-.1-.1h-.1v-.1h-.1V58h-.2v-.1h-.2zm17 39.8z" fill="#272329"/><path d="M88.8 64.1c-1 1-2.5.8-3.5-.2s-1-2.7 0-3.6c.9-1 2.5-.8 3.5.2s1 2.7 0 3.6zm6.2 7.4c.7 1.5.3 3.3-1 4-1.3.6-3-.2-3.7-1.7-.8-1.5-.3-3.3 1-3.9 1.3-.6 3 0 3.7 1.6z" fill="none" stroke="#342f28" stroke-width="2" stroke-linecap="butt" stroke-linejoin="miter"/><path d="M89.9 121.4s-3-1.3-6.7.7-2.1 3.3-4.2 3.4c-2 .1-3-.3-4.5-3.1-.5-1-3.8 6.6-1 7.2 4.6 1-2.7-1.2-3.3-5.6-.7-4.8-4.5-2.6-5.9-5-1.3-2.2-2-6.7-2-6.7s-.8 2.2-5.1 2.2c-4.4 0-3.8 3-3.8 3s-.4 3-3.2 2.6l-2.7-.4s.5 4 4 3.8c3.6-.1-1.8 3.5-3.9 1.4-.6-.7 1 3.8 4.1 3.4.8 0 1 1.9-.6 2.2-3.3-1.5-1.3 2.3-.4 3.2a85.4 85.4 0 0 0 27.2 7.2l6.8-2.7 6.8-9.2 1-6.7-2.6-.9z" fill="#db3c36" fill-rule="nonzero"/><path d="M89.9 121.1s-3-1.3-6.7.6-2.1 3.3-4.2 3.4c-2 .2-3-.3-4.5-3-.5-1-2.5 4-1.1 6.4 1.5 2.7-2.6 0-3.2-4.8-.7-4.8-4.5-2.6-5.9-5-1.3-2.3-2.1-7-2.1-7s-.7 2.8-5 2.8c-4.4 0-3.8 2.8-3.8 2.8s-.4 2.9-3.2 2.5l-2.7-.5s.5 4 4 4c3.6-.2-1.8 3.4-3.9 1.3-.6-.7 1 3.8 4.1 3.4.8 0 1 1.9-.6 2.2-3.3-1.5-1.3 2.3-.4 3.1a87.6 87.6 0 0 0 19.3 6.5c3.8 1 7.9 1 7.9 1l6.8-3 6.8-9.1 1-6.7-2.6-.9z" fill="none" stroke="#610c15" stroke-width="2"/><path d="M109 99.7s-3.3-2.4-.7-2.6c2.5-.2 5.3.4 8-1.4 2.7-1.8 4.2-2 6.8-1 2.6 1 1.3 1.1 3.1.6s1.8.4.2 2.4.8.6 1.5.4c.6-.3-.6 3.2-3 2.6a45 45 0 0 0-8.9-.6c-1 .2-3.8 1.7-5.3.6l-1.6-1z" fill="#db3c36" fill-rule="nonzero" stroke="#610c15" stroke-width="2"/><path d="M82.7 137.1l-5 2.7-5.9-6.6.9-4.4 5.8 4.8 7 .3-2.8 3.2z" fill="#922725" fill-rule="nonzero"/><path d="M72.6 129.8c1.3.8 2.2 2 3.4 3 1 .7 2.3 1 3.4 1.4 1.8.7 4 1.1 5.5-.3.4-.3-1-.2-1.3 0-1 1-4.2-.7-5.2-1.1-1.9-.8-2.8-2.5-4.4-3.5-.4-.2-1.6.4-1.4.5" fill="#610c15" fill-rule="nonzero"/><g opacity=".5"><clipPath id="p"><path d="M49.4 94.6h77.8v45H49.4z"/></clipPath><g clip-path="url(#p)" fill="#610c15" fill-rule="nonzero"><path d="M115.2 100.3c1-.2 1.7-.6 2.5-1 1.3-.6 3.1-.5 4.5-.7a10 10 0 0 0 4.8-1.5c.5-.4-.3-.5-.6-.3-2 1.4-4.5 1.3-6.9 1.5-1.6.2-2.8 1-4.4 1.5-.6.2-.4.7.1.5"/><path d="M119.5 99.3c2.3 0 4.5.1 6.6-1 .6-.2-.3-.1-.5 0-1.7.8-3.6.7-5.5.7-.2 0-1 .3-.6.3m-7 1.9c4.2-1 6-6.7 10.6-6 .3 0 1.2-.5.7-.5a6.9 6.9 0 0 0-5.1 1.2c-2.2 1.6-3.5 4.2-6.3 5-.6 0-.5.4.1.3"/><path d="M111.2 101c1.3 0 1.5-.8 2.3-1.7 1.3-1.4 1.8-3.2 3.6-4.1.6-.3-.3-.3-.6-.2a6.5 6.5 0 0 0-2.4 2.2L113 99l-1.2 1.6c-.2 0-1.1.4-.6.4m-38 26.3c.3 2.4 3.8 3.8 5.7 4.7a7.8 7.8 0 0 0 8.2-.9l-.8-.1-.1.4c-.1.4.9.3 1-.1v-.4c.1-.4-.6-.3-.8-.2-2.4 2-5.3 1.5-7.9.2-1.5-1-4.1-1.8-4.4-3.8 0-.5-1-.2-1 .2"/><path d="M72.8 125.6c2.2 1.4 4 2.3 6.7 2.2 1.2 0 2.4-.8 3.4-1.3a12.5 12.5 0 0 1 6.7-1.4h2c0 .6.9.4 1 0v-.1a.3.3 0 0 0-.2-.3 17.6 17.6 0 0 0-6.3-.2c-1.2.1-2.5.9-3.6 1.4-3.4 1.8-6 1-9-.9-.3-.2-1.1.3-.7.6"/><path d="M73.2 127.3c2.3 1.1 4 2.6 6.6 2.6a8.9 8.9 0 0 0 2.5-.6c.8-.3 7-2.6 8-.5.2.3 1.1 0 1-.3-.5-1.1-3.5-1-4.5-1-1.3.1-2.6.7-3.7 1.1-4.5 1.7-5.9-.2-9.1-1.7-.3-.1-1.1.2-.8.4m-23.4-3.8c2.8 0 4.9 1 6.8-1.6 2-2.6 6.8-2.1 7.5-6 .1-.6-1.4-.4-1.5.2-.6 3.2-4 2.3-5.9 4l-1.8 2.2c-.9 1-3.4.3-4.6.3-.6 0-1.5 1-.5 1m5.9 2.9c3.1-1.9 11.5-1.2 10.9-6.7-.1-.7-1.6-.3-1.5.3.5 4.4-7.4 4-10 5.5-.9.5-.1 1.3.6.9"/><path d="M61.8 113.3c-2.5.6-4.4 2.1-6 4.1l-2.6 3.3c-.4.5-2.3 2.2-2 2.5-.4-.4-1.8.1-1.4.6 1.3 1.2 3.3-1.4 4-2.1 2.4-2.8 4.3-6.7 8.2-7.6.9-.2.7-1-.2-.8m-11.2 14.5a15.7 15.7 0 0 0 13.9-11.1c.2-.7-1.3-.5-1.5 0a14 14 0 0 1-12.2 10c-.8.1-1.2 1.2-.2 1.1"/><path d="M63.7 123.4c-2 1.7-10.3 8.3-12.4 5.5-.2-.3-1.6.2-1.4.5 1.5 1.9 4.9.2 6.5-.5a37 37 0 0 0 8.6-5.6c.4-.3-1-.1-1.3.1"/><path d="M50.8 130.2c3.9-.4 6.8.7 10.3-1.3 3-1.8 5.2-5 6.5-8.1.2-.5-1.2-.4-1.5.1a16 16 0 0 1-5.9 7.4c-2.9 2-6.1.7-9.2 1-.8.1-1.2 1-.2 1"/><path d="M53.6 133.8c3.4-1.8 7.6-2.3 10.6-4.6a15 15 0 0 0 5.2-8.4c.2-.6-1.3-.3-1.4.2a14 14 0 0 1-5.5 8.3c-2.9 1.8-6.7 2.4-9.8 4-.8.6.5.8 1 .6"/><path d="M68.7 123a14.8 14.8 0 0 1-5.2 7.3c-1.7 1.2-4 2.5-4.5 4.7-.1.5 1.3.3 1.4-.2.6-2.4 3.9-3.9 5.6-5.4a14.8 14.8 0 0 0 4.2-6.6c.1-.6-1.3-.3-1.5.1M63.3 136c1.8-1.9 3.2-4.1 5.2-5.8 1.3-1.2 3-2.6 2.8-4.5 0-.7-1.5-.5-1.4.1 0 2.2-2 3.5-3.5 4.7-1.7 1.5-2.8 3.5-4.3 5.1-.6.7.8.9 1.2.4m7.9-7.6c-1.8 2.6-5.7 4.8-6 8.1 0 .6 1.4.3 1.5-.2.3-3.2 4-5.3 5.8-7.8.4-.6-1-.4-1.3 0"/><path d="M68.7 137.4c.1-3.4 3.6-5.4 4.4-8.5.1-.6-1.3-.4-1.5.1-.8 3.2-4.2 5.1-4.3 8.5 0 .7 1.4.4 1.4-.1m12.8-3c0 1.4-.3 2.7-1.6 3.3-.9.4 0 1.3.7 1a4.3 4.3 0 0 0 2.3-4.3c0-.8-1.5-.6-1.4.1m-2.3 0c0 1.6-1.3 3-2.6 4-.8.6.4 1 .9.6 1.5-1.1 3-2.8 3.2-4.8 0-.7-1.5-.5-1.5.1"/><path d="M76.8 133.8c.4 2.2-1.6 4.3-3.2 5.5-.6.4.8.2 1 0 1.9-1.2 4.1-3.5 3.7-5.9 0-.3-1.6 0-1.5.4m-2-1.5a12 12 0 0 1-4 6.4c-.6.5.8.5 1.2.2a13 13 0 0 0 4.2-6.8c.1-.6-1.3-.3-1.5.2"/><path d="M73.3 130c0 1.3-.5 2.7-1 4a9.2 9.2 0 0 1-2.5 3.6c-.8.6.4 1.1 1 .7 1.2-1 2-2.4 2.6-3.8a9.8 9.8 0 0 0 1.3-4.7c0-.7-1.5-.5-1.4.1"/></g></g><g opacity=".5"><clipPath id="q"><path d="M71.7 106.3h15.5v5H71.7z"/></clipPath><g clip-path="url(#q)"><path d="M71.7 110.5s7.6 1.7 11.8 0 3.7-4.2 3.7-4.2l-15.5 4.2z" fill="#502c58" fill-rule="nonzero"/></g></g><g opacity=".5"><clipPath id="r"><path d="M68.9 105.2h20.5v8H68.9z"/></clipPath><g clip-path="url(#r)"><path d="M68.9 111s10.4 4 16 1.5c5.5-2.4 4.4-7.3 4.4-7.3L68.9 111z" fill="#4e4563" fill-rule="nonzero"/></g></g><path d="M108.7 117.2l-.4-1.9a88.9 88.9 0 0 1-.8-4l-.4-2.3-.3-1.9-.3-1.9.8 1.8.7 1.8.9 2a86.8 86.8 0 0 0 1.8 3.7l.8 1.6a1.5 1.5 0 1 1-2.8 1.1z" fill="#783634" fill-rule="nonzero"/><g opacity=".5"><clipPath id="s"><path d="M79.4 105.6h7.2v4.6h-7.2z"/></clipPath><g clip-path="url(#s)"><path d="M79.5 107.6s-1 4 3.3 2.2 3.7-4.2 3.7-4.2l-7 2z" fill="#502c58" fill-rule="nonzero"/></g></g><path d="M85.4 99.8L80.6 98c-8-2.9-16.4 1.2-18.2 1.2-.6 0 3 1.9 3.5 2.8 0 .3-2.8 2-5.2 1.7-3.6-.6.3 3.4 2.2 3.4 1.5 0 1.5 2-.5 2s2.8 2.1 10.7.6c.3 0 18.1-1.5 16.8-7 0-.5 1.4-.4 1.6-1.2.5-1.9-.1-4.7-2.6-3.5l-3.5 1.8z" fill="#db3c36" fill-rule="nonzero" stroke="#610c15" stroke-width="2"/><path d="M65.5 101.2c3.3 2.1 4.9 2 8.8 2.1 3.9.1 9.1-.1 11.2 3.8.2.3 1.2 0 1-.2-1.4-2.6-4-3.4-6.7-3.8-4.7-.8-9.2.5-13.5-2.4-.3-.2-1.2.2-.8.5" fill="#610c15" fill-rule="nonzero"/><path d="M63.5 104.5c6.8 3 16.5-4.1 21.9 2.3.2.3 1.1 0 .9-.4-5.7-6.8-15.1.7-22-2.4-.4-.2-1.3.3-.8.5m.3 3.6c4.7 1.8 9.2-.1 14 .5.4 0 1-.6.3-.7-4.7-.6-9.2 1.3-13.7-.5-.5-.1-1.2.5-.6.7" fill="#610c15" fill-rule="nonzero"/><path d="M65.7 110.4c2.4 1.3 5.2-.9 7.5-1.5.6-.1.4-.8-.2-.6-1.9.5-4.6 2.6-6.6 1.5-.3-.2-1.2.3-.7.6" fill="#610c15" fill-rule="nonzero"/><path d="M66.6 110.3c1.3.3 2.2-.7 3-1.6.2-.1 0-.2-.2-.2a1 1 0 0 0-.6.3c-.4.4-1 1.2-1.6 1-.3 0-1.1.4-.6.5m3.6-5.2a3.4 3.4 0 0 0 1.5-.5c.7-.4 1.2-1 2-1.2 0 0 .4-.1.4-.3h-.5a5 5 0 0 0-1.5.6c-.4.3-1 1-1.5 1-.3 0-1 .5-.4.4m-6-5.9c3.7.8 7.5.5 11.3.9 2.4.2 4.6 1 6.9 2 2 1 2.8 2.8 4 4.5.2.4 1.2 0 1-.4-.9-1-1.1-2.6-2.3-3.4a20.6 20.6 0 0 0-5.4-2.6c-4.8-1.7-10-.6-14.9-1.6-.4 0-1.1.5-.6.6m-1.4 4.8c1.5 1.9 3.7 2 5.9 2.4 2 .4 4.1.7 6.1 1.4.8.3 1.9 1.2 2.7 1.2.4 0 1-.5.4-.5-.8 0-2.4-1.2-3.2-1.5-1.1-.4-2.4-.6-3.6-.8-2.4-.4-5.8-.5-7.4-2.6-.2-.2-1.1.1-1 .4m21.8-3.6c2.2 1 3 3.1 3 5.4 0 .3 1 0 1-.3 0-2.4-1-4.6-3.3-5.6-.2-.1-1.1.3-.7.5" fill="#610c15" fill-rule="nonzero"/><path d="M88 105.9c.6 0 .7-.7 0-.7-.5 0-.7.7 0 .7m-2-6.1c.2.3.6.4 1 .6l1.2 1c.8.6 1.5 1.4 1.5 2.4 0 .2 1 0 1-.3 0-1-.7-1.7-1.4-2.3a16.8 16.8 0 0 0-1.2-1c-.4-.3-1-.4-1.3-.8-.2-.2-1 .2-.9.4" fill="#610c15" fill-rule="nonzero"/><path d="M116.7 219.2c-1.3-.6-2.8-1.4-2.3-2.8.3-1 1.4-2 1-3.1-.7.7-3.6 0-4.5-.2-.9 0-1.3-.2-2.1 0 0-2.1.9-4.3 0-6.5 0 0-3.5 4.8-5.1 6.5-.5.6-1 1.5-1.7 1.4l-.2.5-.8-2.6c-.8 1.8-3 2.7-3.7 4.5-.7-2.4-3.2-3.6-3.3-6.3-1 1-1.8 2.5-2.5 3.8a9.7 9.7 0 0 1-.5-3.1 16.2 16.2 0 0 0-2.1 8s-2.4-3-4-3.7l-3.3-1.4c.1.9 1.6 2 1 2.8-.5.8-1.7-.1-2.3 0 .8.5 1.3 1.5 1.7 2.3a21.1 21.1 0 0 1 1.6 3.5c-1-.4-2.2-.9-2.5-1.2-.7-.7-.8-2-.8-2v3.7a12.7 12.7 0 0 1-1 0c-2-.3-3.9-1.7-5.7-1.5.4 1 0 3.8 1.6 3.7-.1.6-.5 1.1-.7 1.6l-2.3 2.5c-.4.4-2.1 1.8-2.1 2.5 0 1 5.5 1.3 6.6 1.4 0 2.7-1.1 5.6-1 8.3l3.1-1.6s-1.1 4.6-.5 7l1.1-1.7c.3-.3 1.9-2.8 2.3-2.8.6 0 .7 1.8 1 2.3a10 10 0 0 0 2 2.1c.8-1.3.7-3.8 1.1-5.4.6-2 1.8-3 3.5-4.3 1-.8 1.3-1 2.3 0 1.6 1.6 3.2 2.9 5.6 3.5a330.1 330.1 0 0 0-2.2-5.4c2 1 4.3 1 6 2.5.7-1 2.4-3 2.4-4.4 0-.1 3.3 2.9 3.8 2.9 1.2 0 0-1.7 0-2.4 0-1 .5-1.9.6-2.9 1 .7 1.5 1.8 2.7 2 .8.2 2.6.2 3.3-.2l-.2-1.2c-.4-.6-1.1-2.5-.4-3.1.4-.4 2.2.3 2.6-.6.1-.3-1.1-1.6-1.3-2.2-.3-.7-.3-1.8-.9-2.3 1.4-.7 3-1.4 4.2-2.5 1.6-1.7.3-1.3-1.1-2" fill="#8f7d6f" fill-rule="nonzero"/><g opacity=".8"><clipPath id="t"><path d="M75.7 225.6h40v21.7h-40z"/></clipPath><g clip-path="url(#t)" fill="#554d44" fill-rule="nonzero"><path d="M81.3 230v-.2m34.4-1.6c.2-.4-1-1.7-1.3-2.2l-2.2-.5-4.3 1.1-2.4.3 2.4 3.7-4.1-.6-3-2.5-4-1.7-.8 2.4-.5 1.1.7 2.6.2 4.3c1.6.5 3.3.7 4.6 1.9.7-1.1 2.4-3 2.4-4.5 0-.1 3.3 3 3.8 3 1.2 0 0-1.7 0-2.4 0-1 .5-2 .6-3 1 .8 1.5 1.8 2.7 2 .8.2 2.5.2 3.3-.1l-.3-1.3c-.3-.6-1-2.4-.3-3 .4-.5 2.2.2 2.5-.6m-19.3 8l-2-2.5-2-4.4-2 .4-.5 1.8-2.5 1 .1-1.9-.8-.2-1 1.6s.3.5.4 1.7c0 1.3-4.2 4.1-4.2 4.1h-.7l.1-7.5c0 .3 0 .8-.3 1.7-.4 1.7-3.9 5.6-5.1 7a13.9 13.9 0 0 0-.2 2.9c1-.6 2.1-1 3-1.7 0 0-1 4.6-.4 7 .4-.4.6-1 1-1.6.4-.3 2-2.8 2.4-2.8.6-.1.7 1.8 1 2.2.4.8 1.3 1.6 1.9 2.2.9-1.4.7-3.8 1.2-5.4.6-2 1.8-3.1 3.5-4.4 1-.7 1.3-1 2.3 0 1.6 1.7 3.2 3 5.6 3.6-.7-2-2.2-5.4-2.2-5.4l1.4.5"/></g></g><g opacity=".1"><clipPath id="u"><path d="M74.3 208.1h35.6v16.2H74.3z"/></clipPath><g clip-path="url(#u)" fill="#fff" fill-rule="nonzero"><path d="M77.3 223.4c1 .4 1.8.7 2.7.8l1 .1v-1.6l-1 .1-2.7.6zm3.8-2.8l1.2 2h-.5c.4.3 1.6.8 2.6 1.2a21.1 21.1 0 0 0-1.7-3.5l-.6-1.2-2.2-.3 1.1 1.8zm11.1-5.2l.4-.6-.7-1c0 .6.2 1 .3 1.6m13.6-3.8s-2.6 1.8-3.7 3.1l.4 1.3.2-.5c.8.1 1.2-.8 1.7-1.4a37 37 0 0 0 2.1-2.4v-.1h-.7z"/><path d="M106.4 219.6v-.5.5m-25.3 1c0 .4.2 1.4.7 2h.5l-1.2-2z"/><path d="M81 220.7v2l.8-.1c-.5-.6-.7-1.6-.7-2m4.5-4a111 111 0 0 0-3.3-1.3c.2.8 1.6 1.9 1 2.7-.5.9-1.6-.1-2.3 0 .5.3.8.7 1 1.1l2 .3 3 2.5 4 1.7.8-2.4.4-1.1-.6-2.5-.3-4.3a16 16 0 0 0-1.7 7s-2.4-3-4-3.7m-8.3 6.9c-1-.4-2-.8-3-.7l.2.9 1 .2 1.8-.4zm14.6-9.6v-.5l-.5-.1.5.6zm6.1 4l2.4-1-.2 2 .9.1 1-1.6s-.4-.5-.4-1.7c0-.3.2-.6.4-1l-.4-1.3c-.7 1.8-2.9 2.7-3.7 4.5m-5.4-3.1l.7.9 2.1 4.4 2-.4.4-1.7.2-.1c-.7-2.4-3.2-3.6-3.2-6.3-.8.9-1.6 2-2.2 3.2m13.8 4.4l.3-1.8a16 16 0 0 1 3-4.4c.1-1.4.4-2.9.1-4.3a9 9 0 0 0-.8.5l.2-1-2.7 3.5v7.5z"/></g></g><path d="M116.7 219.2c-1.3-.6-2.8-1.4-2.3-2.8.3-1 1.4-2 1-3.1-.7.7-3.6 0-4.5-.2-.9 0-1.3-.2-2.1 0 0-2.1.9-4.3 0-6.5 0 0-3.5 4.8-5.1 6.5-.5.6-1 1.5-1.7 1.4l-.2.5-.8-2.6c-.8 1.8-3 2.7-3.7 4.5-.7-2.4-3.2-3.6-3.3-6.3-1 1-1.8 2.5-2.5 3.8a9.7 9.7 0 0 1-.5-3.1 16.2 16.2 0 0 0-2.1 8s-2.4-3-4-3.7l-3.3-1.4c.1.9 1.6 2 1 2.8-.5.8-1.7-.1-2.3 0 .8.5 1.3 1.5 1.7 2.3a21.1 21.1 0 0 1 1.6 3.5c-1-.4-2.2-.9-2.5-1.2-.7-.7-.8-2-.8-2v3.7a12.7 12.7 0 0 1-1 0c-2-.3-3.9-1.7-5.7-1.5.4 1 0 3.8 1.6 3.7-.1.6-.5 1.1-.7 1.6l-2.3 2.5c-.4.4-2.1 1.8-2.1 2.5 0 1 5.5 1.3 6.6 1.4 0 2.7-1.1 5.6-1 8.3l3.1-1.6s-1.1 4.6-.5 7l1.1-1.7c.3-.3 1.9-2.8 2.3-2.8.6 0 .7 1.8 1 2.3a10 10 0 0 0 2 2.1c.8-1.3.7-3.8 1.1-5.4.6-2 1.8-3 3.5-4.3 1-.8 1.3-1 2.3 0 1.6 1.6 3.2 2.9 5.6 3.5a330.1 330.1 0 0 0-2.2-5.4c2 1 4.3 1 6 2.5.7-1 2.4-3 2.4-4.4 0-.1 3.3 2.9 3.8 2.9 1.2 0 0-1.7 0-2.4 0-1 .5-1.9.6-2.9 1 .7 1.5 1.8 2.7 2 .8.2 2.6.2 3.3-.2l-.2-1.2c-.4-.6-1.1-2.5-.4-3.1.4-.4 2.2.3 2.6-.6.1-.3-1.1-1.6-1.3-2.2-.3-.7-.3-1.8-.9-2.3 1.4-.7 3-1.4 4.2-2.5 1.6-1.7.3-1.3-1.1-2z" fill="none" stroke="#403730" stroke-width="1.5" stroke-linecap="butt"/><path d="M139.8 200.5c.2 1.6-1.6 3-2.1 4.4-.9 2.3-.5 5.1-.3 7.6a3.3 3.3 0 0 0-1.4-.3c-.1 1.7.1 3.6.2 5.2.1 1-.4 2-.4 2.9 0 .8-.5 1.2-.9 1.9l4.9 3.8a8.2 8.2 0 0 1 2.5-3.8 13.8 13.8 0 0 0 2.7-5.4c-.2 1-1.4.8-1-.4.3-1.2 1.5-1.8 2.5-2.3 1.6-.7 3.2-1 4.5-2 1.9-1.3 2.5-2.2 3-4.2-1 .5-3 1.2-4 .5 1.1-1.8 3.9-3 4.4-5.1l-2-.1c-.9-.2-1.5-.5-2.4-.6a5 5 0 0 0-3.9 1.3c-.4-.9-.7-2.8-1.6-3.3-.4 1.2-.8 2.2-2.1 2.4-1.5.3-1.5-2-2.6-2.3" fill="#74675a" fill-rule="nonzero"/><path d="M150 208.3c-3.1.1-4.8-1.2-4.8-1.2s1 1 .5 2.2c-.5 1.4 3 .9 3 .9s2.2.3-2 2c-1.3.7-2 .7-2 .7l-1.2-.8s-3.4 2.1-1.9 2c1.6 0 .6 3.3.6 3.3s-.6-3.2-1.9 1c-.5 1.8-1-2.2-1-2.2l-1 .3.4 3.1c.3 2.6-.3 4-1 4.7a60.5 60.5 0 0 1 2.1 1.7 8.2 8.2 0 0 1 2.5-3.8 13.8 13.8 0 0 0 2.8-5.4c-.2 1-1.5.8-1-.4.3-1.2 1.4-1.8 2.5-2.3 1.6-.7 3-1 4.5-2a6.7 6.7 0 0 0 3-4.2c-1.1.5-3 1.2-4.1.5" fill="#554d44" fill-rule="nonzero"/><path d="M139.8 200.7c.2 1.5-1.6 3-2.1 4.3-.9 2.4-.5 5.2-.3 7.6a3.3 3.3 0 0 0-1.4-.2c-.1 1.6.1 3.6.2 5.1.1 1-.4 2-.4 3 0 .8-.5 1.1-.9 1.8l4.9 3.8c.4-1.6 1.4-2.6 2.5-3.7a13.8 13.8 0 0 0 2.7-5.4c-.2 1-1.4.8-1-.4.3-1.3 1.5-1.9 2.5-2.4 1.6-.7 3.2-1 4.5-2 1.9-1.3 2.5-2.1 3-4.2-1 .6-3 1.3-4 .5 1.1-1.8 3.9-3 4.4-5-.7-.1-1.3 0-2-.2-.9-.2-1.5-.5-2.4-.5a5 5 0 0 0-3.9 1.3c-.4-1-.7-2.9-1.6-3.3-.4 1.1-.8 2-2.1 2.4-1.5.3-1.5-2-2.6-2.4" fill="none" stroke="#403730" stroke-width="1.5"/><g opacity=".6"><clipPath id="v"><path d="M153 217.6h10.3v19.6H153z"/></clipPath><g clip-path="url(#v)"><path d="M162.8 217.9s-2.2 4.2-2.3 7c-.1 2.8-1 4.5-1.7 5.5s-7.4 6-4.7 6.3" fill="none" stroke="#010709" stroke-linecap="butt" stroke-linejoin="miter"/></g></g><path d="M94.6 121.3s4.4 3.7 8.6 1c4.1-2.6 6.8-8.6 12.4-6 5.6 2.8 9.5 8 11.4 3.9 1.9-4.2 4.8-13.8 4.8-13.8l-2-7.4 3.1 1.4s-.2 3.9 1.5 8.9c1.8 5 6.9 15.2 6.9 15.2s-3.1-3-4.7-1.9c-1.3 1-1.3 1-1.3 6 0 3.2 5 3.4 5.5 5.6.5 2.3-9.2-3.8-3.6 2.6s7.7 1.8 8.2 8.1l.5 6.3s-3.7-11-8.7-4c-5 6.9 7.3 6.2 7 14.3a32 32 0 0 1-2.9 12.7s-.3-14-7.7-7.7c-7.4 6.2-1.3 8.4.8 11.8 2.2 3.5-2 4.6-2 4.6l-4.6.8-3.4-.8-28.4-45-1.4-16.6z" fill="#922725" fill-rule="nonzero"/><path d="M96 138l-1.4-16.7s4.5 3.7 8.6 1c4.1-2.6 6.8-8.6 12.4-6 5.6 2.7 9.5 8 11.4 3.9 1.9-4.2 4.8-13.8 4.8-13.8l-2-7.4 3.1 1.4s-.2 3.9 1.5 8.9a23 23 0 0 0 3.8 7.2l2.5 7.7s-3-2.5-4-1.6c-1.7 1.7-1.5.8-1.5 6 0 3 5 3.4 5.6 5.6.5 2.3-9.2-3.8-3.6 2.6s7.7 1.8 8.2 8.1l.5 6.3s-3.7-11-8.7-4c-5 6.9 7.3 6.2 7 14.3a32 32 0 0 1-2.9 12.7s-.3-14-7.7-7.7c-7.4 6.2-1.3 8.4.8 11.8 2.2 3.5-2 4.6-2 4.6l-4.6.8-3.4-.8" fill="none" stroke="#610c15" stroke-width="2"/><g opacity=".5"><clipPath id="w"><path d="M109.3 122.9h33.4v58h-33.4z"/></clipPath><g clip-path="url(#w)" fill="#610c15" fill-rule="nonzero"><path d="M142.7 135.2a42.5 42.5 0 0 0-5.6-5.5c-2.4-1.9-5-3.3-7-5.5-.2-.1-1.1.2-1 .3 1.9 2 4.2 3.5 6.4 5a35.6 35.6 0 0 1 6.2 6c.2.2 1-.2 1-.3m-5.4 3.1c-8.4 0-19.4-4.4-22.9-12.7l-1 .3.5.3c.3.2 1.1-.2 1-.3l-.5-.4c-.2-.1-1 0-1 .3 3.6 8.6 14.9 12.9 23.5 13 .3 0 1-.5.4-.5m-6 15.6c-.2-.2-.3-.3-.3-.5 0-.4-1-.1-1 .3l.3.6c.3.3 1.2 0 1-.4"/><path d="M133 155.3c-5.2-5.5-3.2-14-8.3-19.5-.2-.2-1 .1-.9.4 5.1 5.4 3.1 14 8.2 19.5.2.2 1.1-.1 1-.4m1.4 12.1c-5.2-4.2-13-8.1-15.2-15-.2-.4-1.1-.1-1 .3 2.2 7 10.1 11 15.5 15.3.3.2 1.2-.2.7-.6"/><path d="M117 130.4c4 4.6 1.6 12.9 1 18.4-.4 5-1.5 10.1-.2 15.2l1-.3c-2.4-3-4.2-6.3-6.5-9.3-.2-.2-1 .2-1 .3 2.4 3 4.1 6.3 6.5 9.3.1.1 1 0 1-.3-1.4-5.6 0-11.5.4-17 .5-5.3 2.4-12.3-1.3-16.7-.2-.1-1 .2-1 .4m8 6.3c1 1 2.1 1.4 3.4 2 2.6 1 5 3.4 6.9 5.4 1.2 1.3 7.6 12 5.3 14-.4.4.6.4.8.2 2.2-2-2.1-9.4-3-11.3-1.2-2.4-3-4.3-5-6-2.3-1.8-5.6-2.7-7.5-4.7-.2-.2-1.1.1-.9.4"/><path d="M127 141.7c1.8 2 3.7 3.9 5.3 6 1.8 2.1 2.8 5 3.8 7.6.2.4 1.1.1 1-.2-.9-2.2-1.7-4.4-3-6.4-1.5-2.8-4-5-6.2-7.4-.2-.3-1.1 0-.9.4m-7.7-18.3a20 20 0 0 0 9.3 7.2c5.3 2.4 9 5.5 12.8 9.9.2.3 1.2-.1.9-.4a29 29 0 0 0-9.1-8c-4.9-2.7-9.8-4.2-13-9.1-.2-.3-1.1 0-1 .4"/><path d="M139.4 138.6c.5 0 .7-.8 0-.8-.5 0-.7.8 0 .8m-2.6-.2c-1.7-3.1-4.7-4.3-7.9-5.2-5.3-1.6-8.7-4-12.8-7.7-.3-.2-1.2.2-1 .4 3.2 2.7 6 5.3 9.9 6.9 4 1.6 8.6 1.7 11 6 .1.3 1 0 .8-.5m-19 12.8c1.7 4.6.5 8.8 3.1 13.3 3 5.2 8.6 9.7 5.9 16.2-.2.5.8.4 1 0 1.8-4.5-.2-8.2-2.8-12-2-3-4.1-5.5-5.2-9-.8-3 0-6-1-8.8-.2-.4-1.1 0-1 .3m-.1 13c.2 2 .9 4.3.1 6.4 0 .4.9.3 1 0 .8-2.2 0-4.5-.2-6.7 0-.4-1-.2-1 .3"/><path d="M109.3 128c8.4 10.7 1.9 25.4 8.6 36.5.1.2 1-.1 1-.3-6.8-11.1-.3-25.8-8.7-36.5-.2-.2-1 .1-1 .3"/><path d="M109.7 128.6c4.2 3.1 10.2 9.4 9 15.2 0 .4 1 .2 1-.1 1.2-6-5-12.4-9.3-15.6-.3-.2-1.1.2-.7.5m9.6 4.8a19 19 0 0 1 2.5 8.4 41 41 0 0 0 3 9.4c.3 1 6.6 13.7 6 14.2-.4.4.6.4.8.2 1.2-1-4.3-10.4-4.8-11.8-1.3-3.5-2.8-7-3.7-10.7-1-3.6-1-6.9-3-10.1 0-.3-1 0-.8.4m.3 22c1 3.8 1.8 5.6 4.5 8.7 3.3 3.6 5.8 7.8 4.9 12.9-.1.3.9.2 1-.2.5-3.2 0-6-1.8-8.8a43.3 43.3 0 0 0-4.2-5.4c-2-2.3-2.6-4.6-3.5-7.4 0-.4-1 0-1 .2m-2.3 5.8c-.1 2.7 1.4 4.7 3 6.8 1 1.3 2.1 2.5 3 3.9 1.5 2 1.2 4 1.5 6.3 0 .5 1 .2 1-.3-.5-3.5-.5-5.3-2.8-8.2-2-2.5-4.8-5.1-4.7-8.6 0-.5-1-.3-1 .1"/><path d="M128.4 164.2c.7 1.9 1.6 3.7 2 5.7.3 2.1-.6 4.4-.8 6.5 0 .3 1 .1 1-.2.2-1.8 1-3.8.8-5.7-.2-2.3-1.2-4.4-2-6.6-.1-.3-1 0-1 .3m-5.3-28.7c4.2 7 1 16.9 5.3 24 .2.2 1-.1 1-.3-4.2-7-1.1-17-5.3-24-.1-.2-1 .2-1 .3"/><path d="M118.7 143.8c1 5.7 5.6 9.5 8.8 14 .3.4 1.2 0 .9-.4-3.1-4.5-7.7-8.2-8.7-13.8-.1-.5-1-.2-1 .2m13-5.3c2.5 2.1 3.7 5.2 5.2 8 .2.4 1.1 0 .9-.4-1.5-2.9-2.8-6-5.3-8.2-.3-.3-1.2.2-.7.6"/><path d="M137.8 146.6a27.6 27.6 0 0 0-6-5c-1.4-.9-3.1-1.6-4.8-1-.6.2 0 .4.3.3 1.8-.7 4.4 1.5 5.7 2.5a27.3 27.3 0 0 1 4 3.6c.1.2 1-.2.8-.4m-13.3-22.1a34 34 0 0 0 6 7c.1.1 1-.3.8-.4a33.6 33.6 0 0 1-5.8-6.9c-.2-.2-1 .1-1 .3m-6.5.3c2.3 2.4 3.2 6 6.4 7.6.3.1 1.1-.3.7-.5-3.1-1.5-4-5.1-6.2-7.5-.3-.2-1.2.1-1 .4m-2.4 9.8a31 31 0 0 1 0 9.3c-.4 2.4-1.3 4.6-1 7 .1.3 1 .1 1-.2-.3-2.6.6-5.1 1-7.7.4-2.8.5-5.8 0-8.7 0-.2-1 0-1 .3"/></g></g><g opacity=".9"><clipPath id="x"><path d="M82 96.5h110.2v98.2H82z"/></clipPath><g clip-path="url(#x)"><path d="M170.7 105c0 3.4-15.8 5.6-35 5-19.3-.6-34.8-3.8-34.7-7.1.1-3.4 15.8-5.6 35-5 19.3.6 34.8 3.8 34.7 7.1" fill="#dc4351" fill-rule="nonzero"/><path d="M190 128.9c0-.5-1.3-2-1.3-2l-18.5-22.6-69-1.7-12.5 15-5.3 6-.8 1.9c0 .5-.6 1-.1 1.5l48.4 66.2h2.5l57.8-63v-1c.3-.3-1.2.1-1.2-.3" fill="#dc4351" fill-rule="nonzero"/><g opacity=".4"><clipPath id="y"><path d="M100.4 133h35.4v59.5h-35.4z"/></clipPath><g clip-path="url(#y)"><path d="M100.4 133s6.2 1.7 17.1 2.6a454.5 454.5 0 0 0 18.3 1.1l-3.2 55.8h-.5l-31.7-59.4z" fill="#e5776f" fill-rule="nonzero"/></g></g><g opacity=".8"><clipPath id="z"><path d="M132.6 135.3h37.8v57.2h-37.8z"/></clipPath><g clip-path="url(#z)"><path d="M135.9 136.9s9.7.2 19.2-.3c9.4-.5 15.3-1.2 15.3-1.2l-37 57.1h-.8l3.3-55.6z" fill="#b11c3d" fill-rule="nonzero"/></g></g><path d="M170.7 135.4L134 191h1.1l56.1-61.6-.4-.2s-4 3.4-10.4 4.6c-6.3 1.3-9.7 1.7-9.7 1.7" fill="#a31f3d" fill-rule="nonzero"/><g opacity=".6"><clipPath id="A"><path d="M101 97.8h35.4v10.7H101z"/></clipPath><g clip-path="url(#A)"><path d="M136.4 98h-.3c-19.3-.7-35 1.5-35 4.9-.1 2.6 6.4 4.3 20.2 5.6l15-10.5z" fill="#e5776f" fill-rule="nonzero"/></g></g><g opacity=".6"><clipPath id="B"><path d="M120.6 108.9h29v27.8h-29z"/></clipPath><g clip-path="url(#B)"><path d="M120.6 108.9l15.2 27.8 13.8-26.8s-9.1.2-13.2 0a638.7 638.7 0 0 1-15.8-1" fill="#e5776f" fill-rule="nonzero"/></g></g><g opacity=".5"><clipPath id="C"><path d="M149.6 105.4h21.2v29.8h-21.2z"/></clipPath><g clip-path="url(#C)"><path d="M149.6 109.9s9.5-.5 12.9-1.4c3.4-1 8-3.1 8-3.1l.4 1.4-.2 28.4-21-25.3z" fill="#b11c3d" fill-rule="nonzero"/></g></g><g opacity=".6"><clipPath id="D"><path d="M100.4 103.4H121V133h-20.5z"/></clipPath><g clip-path="url(#D)"><path d="M121 108.5L100.5 133l.9-29.6s1.2 1.9 8.7 3.4a86.2 86.2 0 0 0 10.9 1.7" fill="#e5776f" fill-rule="nonzero"/></g></g><g opacity=".8"><clipPath id="E"><path d="M170.8 104.3H190v31h-19.3z"/></clipPath><g clip-path="url(#E)"><path d="M170.8 104.3v30.5l.5.5s9-1.1 12.6-2.6c3.5-1.4 6.5-3 6.1-3.8-.4-1-.1-1.6-.1-1.6l-19.1-23z" fill="#b11c3d" fill-rule="nonzero"/></g></g><path d="M120.6 108.9L100.4 133s1.9 1.2 17.4 2.5c15.5 1.4 18 1.1 18 1.1L120.6 109z" fill="#e67d72" fill-rule="nonzero"/><path d="M100.2 133.3l32.3 60 3.3-56.7m35-1.2l-38.3 57.8m-31.3-89.8l-1 29.9 20.4-24.2 15.2 27.5 13.7-26.2 21.4 25-.2-30" fill="none" stroke="#5b003f" stroke-width="2"/><path d="M170.7 104.7c0 3.3-15.8 5.5-35 4.9-19.3-.6-34.8-3.8-34.7-7.1.1-3.3 15.8-5.5 35-5 19.3.7 34.8 3.9 34.7 7.2z" fill="none" stroke="#5b003f" stroke-width="2"/><path d="M101 102.3l-17.3 21.9s-.7 1.4-.7 1.8c0 .5.2 1 .6 1.5l48.4 66.2h.9l57.8-63v-.1c.3-.4.5-.8.5-1.2 0-.6-1.3-2.1-1.3-2.1L170.6 104" fill="none" stroke="#5b003f" stroke-width="2"/><path d="M190.3 128.3c-.2 5-22.4 9.4-54.5 8.4-30-.9-53-5.8-52.8-11" fill="none" stroke="#5b003f" stroke-width="2"/></g></g><path d="M174 139s-2.5-2.2-3.8-3.7c-1.4-1.5-5-2.8-6.3-3.7-3.5-2.3-6 .7-3.6 2.7a23 23 0 0 1 3.9 3.8c.6.8-2-1.2-6.8-1.3-4.7-.2-3.3 4 .6 4.7l4.5.8s-4.5-.3-6.4.3c-2 .6-2.5 3.5 1.3 3.3 3.8-.4 5.7 1 6.5.8.8-.1-6.3 1.2-6.5 2.8-.2 1.6.9 1.8 2.2 1.6 1.3-.1 2.9.6 4.6.7 1.7.1 1.5 3.6 4.6 4 3.2.4 2.2 0 2.2 0" fill="#e09985" fill-rule="nonzero"/><path d="M162.5 152s-4.2 10.6-4 14c0 3.3-1 4.1-1 4.1s11 3.4 14.4-1.6c3.4-5 6.4-9 6.3-12.7-.1-3.9-.6-9.2 0-12 .6-2.8-.6-2.5-.7-4.1-.1-1.6 2.1-10.4-.7-9.2-3.7 1.6-3.6 6-3.6 6l-1.3.3-3.2 1.3 2 2.5-4.2 1.3 2.2 3.8-2.2 1.2" fill="#d28169" fill-rule="nonzero"/><clipPath id="F"><path d="M154.6 144.7l1.2.6 8.5 1.4 1.9 2.3-8.4 1.3.3.8 4.7.8-3.6 8.3-1.8 11s8-3.2 11.4-6.6c3.3-3.3 2.5-9.7 2.5-9.7l-1.6-4.7-4.2-5.4-3.4-.6-7.5.5z"/></clipPath><g clip-path="url(#F)"><path d="M172 171.2h-17.4v-27h17.5v27z" fill="url(#G)" fill-rule="nonzero"/></g><clipPath id="H"><path d="M162.4 152.3l-3.3 8.1-1.7 10.8s1.3-2.2 4.4-5.5c3-3.2 3.2-13 3.2-13l-7-1.3 4.4.9z"/></clipPath><g clip-path="url(#H)"><path d="M165 151.4v19.8h-7.6v-19.8h7.6z" fill="url(#I)" fill-rule="nonzero"/></g><path d="M159.3 132.8l1.4 2 4.5 4h2l-1.9-3.5-5.3-3.4-.7.9z" fill="url(#J)" fill-rule="nonzero"/><path d="M174 139s-2.5-2.2-3.8-3.7c-1.4-1.5-5-2.8-6.3-3.7-3.5-2.3-6 .7-3.6 2.7a23 23 0 0 1 3.9 3.8c.6.8-2-1-6.8-1-3-.1-3 1-2.6 2.4.3 1 2.2 1.1 3.7 1.4l4 1.4s-4.4-.3-6.4.3-2.5 3.8 1.3 3.5c3.8-.3 5.7.8 6.5.6.8-.1-6.3 1.2-6.5 2.8-.2 1.6.9 1.8 2.2 1.6 1.4-.1 2.9.6 4.6.7 1.7.1 1.5 3.6 4.6 4 3.2.4 2.2 0 2.2 0" fill="none" stroke="#783634" stroke-width="2"/><path d="M162.7 152.1l-1.1 4.7-.6 2.2a47 47 0 0 0-.5 2.3 45.2 45.2 0 0 0-.5 2.3l-.2 1v2.2l-.1 1.4a7.4 7.4 0 0 1-.4 1.4c0 .3-.2.5-.4.8-.2.2-.2.4-.7.8l-.4-2.3a47.8 47.8 0 0 0 7.5 1.5 10 10 0 0 0 3.7-.4l.9-.3.7-.5.7-.7.5-.8a60.6 60.6 0 0 0 2.2-3.3 32 32 0 0 0 1.8-3.5l.6-1.8.3-.9.1-.8v-.9c0-.3.1-.5 0-.8v-2l-.4-4v-5.2l.2-1v-.6c.1-.1.2-.3.1-.4a1.4 1.4 0 0 1 0-.2.5.5 0 0 1 0-.1l-.3-.6-.2-.3v-.4l-.3-.8v-1.4l.2-1c.3-1.4.6-2.6.7-3.9l.2-1.8a3.1 3.1 0 0 0 0-.6h.3l-.5.2a2 2 0 0 0-.3.2l-.4.2a5 5 0 0 0-1.2 1.2 7.7 7.7 0 0 0-1.3 3.4.3.3 0 0 1-.3.3H172a.1.1 0 0 1-.2-.1.1.1 0 0 1 .1-.2l1.3-.4-.3.4a7.7 7.7 0 0 1 .7-4.2 6 6 0 0 1 1.4-1.9l.4-.4.5-.3.4-.3h.4l.2-.2h.5c.4 0 1 .1 1.2.4l.4.4.2.4.3 1.3.1 2.2c0 1.4-.2 2.8-.4 4.1 0 .6-.1 1.4 0 1.6v.1a.4.4 0 0 1 0 .1l.1.1.6 1.2.1.9v1.3l-.1.5-.2 1v.9a40 40 0 0 0-.2 3.8v7.1l-.3 1.2-.3 1-.4 1-1 1.8-2.4 3.4-2.4 3.2-.6.8-.8.8-.9.6-1 .5c-1.2.6-2.6.8-4 1a22.1 22.1 0 0 1-4.1 0 23 23 0 0 1-4.2-.6l-.4-2.3c-.1.1 0 0 0-.1l.2-.3.2-.9v-.5l.1-.5v-1.2l.2-1.3.3-1.3.7-2.3a53.5 53.5 0 0 1 1.9-4.4 44.8 44.8 0 0 1 2.2-4.3.1.1 0 0 1 .2 0v.1" fill="#783634" fill-rule="nonzero"/><g opacity=".6"><clipPath id="K"><path d="M166.5 168h4.3v4.7h-4.3z"/></clipPath><g clip-path="url(#K)"><path d="M166.5 168l.2.3.3.7.3.5.2.4.3.5.4.4.4.4.4.3.9.6 1 .5h-1.2l-1.1-.3-.6-.3-.6-.5-.4-.6-.3-.6c-.2-.4-.2-.8-.2-1.1V168" fill="#783634" fill-rule="nonzero"/></g></g><g opacity=".8"><clipPath id="L"><path d="M168.7 162.8h6.2v5.4h-6.2z"/></clipPath><g clip-path="url(#L)"><path d="M168.7 162.8l.9 1 .8 1 1 1.2.6.5.6.5.6.3.5.3.5.3.4.1.3.2h-1.4c-.4-.1-.9-.2-1.4-.5l-.7-.4-.6-.6a140.4 140.4 0 0 0-.6-.6l-.5-.7c-.3-.4-.4-.9-.6-1.3l-.3-1-.1-.3" fill="#783634" fill-rule="nonzero"/></g></g><g opacity=".6"><clipPath id="M"><path d="M172.6 159.7h5.6v4.2h-5.6z"/></clipPath><g clip-path="url(#M)"><path d="M172.6 159.7l.3.2.6.6.8.7 1 .8 1 .7.5.3.4.3.7.4.3.2H177l-1.1-.4-.6-.3-.6-.4-.6-.5-.4-.5a5.3 5.3 0 0 1-.7-1l-.3-.8a4.3 4.3 0 0 1 0-.3" fill="#783634" fill-rule="nonzero"/></g></g><g opacity=".4"><clipPath id="N"><path d="M174.5 158.4h4v3h-4z"/></clipPath><g clip-path="url(#N)"><path d="M174.5 158.4l.2.1.5.4 1.3 1 .7.5.6.5.5.3.2.2h-.9a3 3 0 0 1-.8-.2l-.5-.2-.4-.3-.4-.3-.3-.4a3.3 3.3 0 0 1-.5-.8l-.1-.6a2.8 2.8 0 0 1 0-.2" fill="#783634" fill-rule="nonzero"/></g></g><g opacity=".4"><clipPath id="O"><path d="M165.2 170.9h3.4v3.6h-3.4z"/></clipPath><g clip-path="url(#O)"><path d="M165.2 170.9l.1.1.4.5 1.1 1.2.6.6.6.6.4.4.2.2h-.3l-.6-.1a2.7 2.7 0 0 1-.8-.4l-.4-.3-.4-.3-.3-.4-.3-.4a3.4 3.4 0 0 1-.3-.9v-.8" fill="#783634" fill-rule="nonzero"/></g></g><g opacity=".6"><clipPath id="P"><path d="M171 161.4h5.6v4.2H171z"/></clipPath><g clip-path="url(#P)"><path d="M171 161.4l.2.2.6.6.9.7 1 .8 1 .7.4.3.5.3.7.4.3.2h-1.2l-1.2-.4-.6-.3-.6-.4-.5-.5-.5-.5a5.4 5.4 0 0 1-.6-1l-.3-.8-.1-.3" fill="#783634" fill-rule="nonzero"/></g></g><path d="M167.3 165.3l.8.8 1.6 1.8 1 .8.4.4.5.3.7.4.2.2h-.3l-.9-.1a8.2 8.2 0 0 1-.5-.2l-.6-.3c-.2 0-.4-.2-.6-.4l-.6-.4-.4-.6-.4-.5a6.6 6.6 0 0 1-.6-1 6 6 0 0 1-.3-1.2" fill="#783634" fill-rule="nonzero"/><path d="M104.3 143c4.5-1.2 4.6-.7 7.7-2 3.4-1.4.1-4-.9-3.7l-6.5 1 6.8-4.1c2.3-1.4.7-3.4-.3-3.5-1 0-9 2.7-9 2.7s5.3-3.5 5.8-6.4c.4-3-2.4-1.3-5.8.9a41.7 41.7 0 0 1-6.2 3.6c0-.3 1.8-3 0-7s-3 .2-4 2.7c-1.2 2.5-1.8 2.6-4.2 4.7-2.4 2-2.7 2.9-2.7 2.9-1.3.2-2.3.9-4.5.5l-1.5-.2c-9.2-6.1-22.7-6.8-22.7-6.8S44 126.6 34 143.1c0 0-3.9 6.7-2.9 10.2 1 3.5-2.5 6.3 0 9.3 4 4.8 4.2 2.7 8.9 3.4 1.1.1 8.5 7.3 13.3 9a24.5 24.5 0 0 0 24.3-6.4c8.8-8.7 11.1-12.8 14-14.5l4.3-1.4c3-1 7.8-4.8 9.7-4.8 2 0 4.1.4 4.5-.6.5-1 .3-2-2.3-2.5-2.5-.5-3.2-2-3.2-2" fill="#d48e78" fill-rule="nonzero"/><path d="M54 128.5s-10 7.6-10.2 11c-.2 3.4-5.9-9.8 31.8-4.6 0 0 3.2-2-6.7-4.3-7-1.6-14.8-2-14.8-2" fill="#d97573" fill-rule="nonzero"/><clipPath id="Q"><path d="M96.7 144.2c-.4.5-11 .6-12 1.6a90 90 0 0 1-24.4 10.4c-11.8 2.8-24 1.5-24 1.5l-4.7 4.4 2.6 3.4 7.1.4 7 6 9.2 4 13.3-2.3 9.6-7.4 11-12.7 5.4-.6 6-3.5 2.5-1.4 4.8-.7-.1-1.6h-4.8l-1.5-1.5 1-1.3 7.3-1.9 1.3-1.7s-16.1 4.3-16.6 4.9z"/></clipPath><g clip-path="url(#Q)"><path d="M113.3 175.9H31.6v-36.6h81.7v36.6z" fill="url(#R)" fill-rule="nonzero"/></g><clipPath id="S"><path d="M105.2 146.9s-16.9 4.1-17.9 5c-.4.6-9.7 13.8-21.8 16.6-11.8 2.9-27.4-6.3-27.4-6.3l-6.5.3 2.6 3.3 7.1.5 7 6 9.2 4 6.8-.7 6.2-2 3.8-2.3 6-5.4 11-12 5.5-.7 6-3.5 2.5-1.4 4.8-.7-.1-.7h-4.8z"/></clipPath><g clip-path="url(#S)"><path d="M110.1 146.9v29.3H31.6V147H110z" fill="url(#T)" fill-rule="nonzero"/></g><path d="M112 132.2l-8.4 4.7.7 1.7 7.5-4.7.8-1.4-.6-.3z" fill="#d97573" fill-rule="nonzero"/><path d="M76.5 133.9a28.8 28.8 0 0 0-8.3-3c-2.9-.8-5.8-1.2-8.7-1.6l-2.2-.3-1.1-.2h-1a16.8 16.8 0 0 0-4.3.7 23.1 23.1 0 0 0-7.6 4 31.3 31.3 0 0 0-6 6.3l-.7.9-.6.9-1.2 1.8a29.7 29.7 0 0 0-1.8 3.9 15 15 0 0 0-1.1 4 5 5 0 0 0 0 1v.4l.1.6.2.5v2c-.4 1.6-1 3-1.1 4.2 0 .6.1 1.2.4 1.7a14.3 14.3 0 0 0 2.9 2.9c.5.3 1 .4 1.6.4h3.4l.6.2h.4l.1.1.3.2.4.2.2.2.5.3.9.7 1.7 1.4a95.5 95.5 0 0 0 3.5 2.8 34.2 34.2 0 0 0 5.6 3.3l1 .3 1 .2c2.9.6 5.8.7 8.7.2a24.4 24.4 0 0 0 8.2-3 30.3 30.3 0 0 0 6.8-5.6c2.1-2 4.1-4.3 6-6.5l3-3.3a19 19 0 0 1 3.4-3.1.3.3 0 0 1 .1 0l1.8-.4 1.6-.4 1.7-.5h.4l.2-.1.2-.1.8-.3c1-.5 1.9-1.2 2.8-2 .9-.7 1.8-1.4 2.9-2l1-.4.5-.1h2.2a4.8 4.8 0 0 0 1.5-.1c.2 0 .2-.2.2-.2l.1-.4v-.1a.3.3 0 0 1 0-.1l-.2-.2-.2-.2a1 1 0 0 0-.3-.1l-.7-.3-1-.2a6.3 6.3 0 0 1-1.7-.7 4.2 4.2 0 0 1-1.6-1.5.7.7 0 0 1 .5-1v-.1l7.3-2-.2.2.5-.4.2-.2.1-.2a.9.9 0 0 0 .1-.4.6.6 0 0 0 0-.3l-.3-.3a1.8 1.8 0 0 0-.4-.3 1.3 1.3 0 0 0-.4 0h-.5l-3 .6-3.1.5a1 1 0 0 1-.6-1.8l4.7-2.8 1.1-.7.6-.4.3-.2h.1l.1-.1.4-.3a1 1 0 0 0 .1-.3.7.7 0 0 0 0-.6 1 1 0 0 0-.4-.4h.1-.1l-.3.1-.6.2-.6.1-.7.2-1.3.4a233 233 0 0 0-5.2 1.7 1 1 0 0 1-1-1.9h.1a28.3 28.3 0 0 0 2.3-1.8 15.6 15.6 0 0 0 2.8-3.1l.2-.6v-.8l.3.2a2.8 2.8 0 0 0-1 .3l-2.5 1.4-2.6 1.7-2.7 1.6-1.4.8-.4.2a1.7 1.7 0 0 1-.2.1 1 1 0 0 1-.2 0H96a1.1 1.1 0 0 1-.4 0l-.3-.3a1 1 0 0 1-.3-.6v-.3l.1-.2.2-.5.1-.4c.3-.8.5-1.7.4-2.6l-.2-1.3-.5-1.3-.3-.7-.2-.4h-.1.2c-.3.1-.5.6-.7 1-.3.4-.5.8-.6 1.3l-.7 1.5-.3.7-.4.7c-.7 1-1.6 1.8-2.4 2.4l-4.8 4a.6.6 0 0 1-.4 0c-1 .2-2 .2-2.9.2-1 0-1.8-.2-2.7-.3l-5.5-.6-2.7-.3a54.7 54.7 0 0 0-2.7-.2l-2.7-.2-2.7-.1a40 40 0 0 0-2.7 0H57c-1 0-1.8 0-2.7.2l-2.7.3-1.3.3-1.3.3-1.3.5-.6.2-.6.4a5.6 5.6 0 0 0-2 1.7c-.5.7-.7 1.6-.5 2.5a.1.1 0 0 1-.2 0 3.4 3.4 0 0 1 .5-2.7 6 6 0 0 1 2-2l.6-.3.6-.3 1.3-.5 1.3-.4 1.4-.3c.9-.3 1.8-.4 2.7-.5l2.7-.3 2.8-.2a40.5 40.5 0 0 1 2.7 0H68l2.7.3c1 0 1.9 0 2.8.2l5.4.5c1 0 1.8.2 2.7.1H84l-.4.1 4.7-4a6 6 0 0 0 1.9-2l.3-.5.3-.7.6-1.4.6-1.5c.3-.5.5-1 1-1.6.2 0 .4-.2.6-.4a1.8 1.8 0 0 1 1.7.2c.3.1.3.2.5.4l.6.8.4.8.5 1.6c.1.6.3 1.1.3 1.7a8.5 8.5 0 0 1-.5 3.4v.4l-.2.2v-.1a1 1 0 0 0-.3-.6l-.3-.2a1 1 0 0 0-.3-.1h-.2a3.2 3.2 0 0 0 .2 0l1.3-.8 2.6-1.7 2.6-1.6c.9-.6 1.7-1.1 2.8-1.6.5-.2 1-.5 2-.5.4 0 1.2.4 1.4 1 .2.5.2 1 .2 1.3v.4l-.1.6-.4.9a8.8 8.8 0 0 1-1 1.5c-.6.8-1.4 1.6-2.2 2.3a24.6 24.6 0 0 1-2.5 2l-1-1.9a226.5 226.5 0 0 1 5.3-1.7l1.4-.4.6-.1.8-.2.8-.2h1a2.8 2.8 0 0 1 1.8 3.5 3 3 0 0 1-.5 1l-.7.5-.1.1-.2.1-.3.2-.6.4-1.2.7-4.8 2.8-.6-1.7 3-.4 3-.5h.4l.2-.1a2.2 2.2 0 0 1 .4 0c.4 0 .8 0 1 .2l1 .6.6 1 .2 1.1a2.6 2.6 0 0 1-.4 1l-.3.5-.4.3-.7.6a.6.6 0 0 1-.2.1l-7.4 1.8.5-1a3 3 0 0 0 1 .8l.6.3.8.3.8.2a5.6 5.6 0 0 1 1.4.6c.2 0 .3.2.5.3l.4.6a2 2 0 0 1 .2.3v1l-.2.5c-.2.5-.7.8-1 1-.8.2-1.4.1-2 .1h-2.5a3.5 3.5 0 0 0-.7.2c-1 .5-1.8 1.2-2.8 2l-3 1.9a7.3 7.3 0 0 1-.9.3l-.2.1h-.2l-.4.2-1.8.4-1.7.4-1.7.3h.1c-2.3 1.5-4.2 4-6.2 6-2 2.3-4 4.5-6.1 6.6a71.5 71.5 0 0 1-3.3 3c-.5.6-1.1 1-1.7 1.5l-1.9 1.2a25.8 25.8 0 0 1-17.5 3.3l-1-.3-1.2-.3a15.5 15.5 0 0 1-2.1-.9 33.2 33.2 0 0 1-3.9-2.4 95.2 95.2 0 0 1-3.6-2.7l-1.8-1.3-.8-.7-.5-.3-.2-.1a1 1 0 0 1-.1-.1l-.2-.1h-.1l-.5-.1H36a5.3 5.3 0 0 1-1.3-.2 4.6 4.6 0 0 1-1.2-.5 9.8 9.8 0 0 1-1.9-1.6 17.5 17.5 0 0 1-.8-.8 8.4 8.4 0 0 1-.7-1 4.5 4.5 0 0 1-.7-2.6c0-1.8.8-3.2 1-4.5v-1a4.5 4.5 0 0 1 0-.3v-.5l-.2-.6a3.2 3.2 0 0 1 0-.7 6.9 6.9 0 0 1 0-1.2c.1-1.7.6-3.1 1.2-4.6a31.1 31.1 0 0 1 2-4l1.3-2 .6-.9.7-.9a32.8 32.8 0 0 1 6.4-6.4 24 24 0 0 1 8.2-4 18 18 0 0 1 4.5-.7h1.2l1.1.2 2.2.4a83.8 83.8 0 0 1 8.8 2c2.8.7 5.7 1.7 8.2 3.4a.1.1 0 0 1 0 .1s0 .1-.1 0" fill="#783634" fill-rule="nonzero"/><g opacity=".5"><clipPath id="U"><path d="M35.7 149.7H48v11.5H35.8z"/></clipPath><g clip-path="url(#U)"><path d="M41 156.6v.4l.3.9c.1.3.5.6 1 .8a3.4 3.4 0 0 0 1.6.1l.9-.3h.1l.3-.3c.2 0 .3-.2.4-.3A4.4 4.4 0 0 0 47 156c.3-.8.3-1.9-.1-2.7a3.3 3.3 0 0 0-2-1.9 4.5 4.5 0 0 0-2.7 0 8 8 0 0 0-2.2 1.3 9.4 9.4 0 0 0-2.5 4 5.2 5.2 0 0 0-.2 1.8 4 4 0 0 0 .8 2.2l.3.3a.1.1 0 0 1 0 .2.1.1 0 0 1-.1 0l-.4-.2a3.5 3.5 0 0 1-1-.6 4 4 0 0 1-1-1.6 5.7 5.7 0 0 1-.2-2.5 7.9 7.9 0 0 1 3-5.1 7 7 0 0 1 3.1-1.5 5 5 0 0 1 3.5.7 5.7 5.7 0 0 1 2.1 2.6 7.3 7.3 0 0 1 .7 3.2 4.5 4.5 0 0 1-1.9 3.5l-.3.2-.1.1h-.1v.1h-.2a4.1 4.1 0 0 1-4-.3 2.4 2.4 0 0 1-1-1.7c-.1-.5 0-1 .2-1.2l.2-.3a.1.1 0 0 1 .1 0" fill="#783634" fill-rule="nonzero"/></g></g><path d="M54.7 139.7l-.2.5-.2.5-.3.7-.4.8-.3.9-.2 1-.1 1v1l.2 1 .2 1 .3.8a22.2 22.2 0 0 1 .6 1.8l-1.1-1.5a19.7 19.7 0 0 1-.5-.9l-.4-1-.3-1V145l.1-1.2c0-.4.3-.7.4-1l.5-1 .5-.8c.1-.3.3-.4.5-.6l.4-.4.3-.4" fill="#783634" fill-rule="nonzero"/><g opacity=".8"><clipPath id="V"><path d="M58 139.7h2v9.6h-2z"/></clipPath><g clip-path="url(#V)"><path d="M59.4 139.7l-.1 1.6-.2 1.6-.1 1.7v.9l.1.8.2.8.2.7.2.6.2.5.2.4-.4-.3-.3-.4-.4-.5a14 14 0 0 1-.4-.7 3 3 0 0 1-.3-.8c-.1-.3-.3-.6-.3-1v-2l.2-.9a9 9 0 0 1 1-2.6l.2-.4" fill="#783634" fill-rule="nonzero"/></g></g><g opacity=".6"><clipPath id="W"><path d="M65 139.6h2v8h-2z"/></clipPath><g clip-path="url(#W)"><path d="M65.8 139.6v2.7l.2 1.4.2 1.5.2.6a9.4 9.4 0 0 1 .1.6l.3 1 .1.3-.3-.3-.6-.7c-.2-.4-.5-.8-.6-1.3l-.3-.7-.1-.8v-.9c-.1-.2 0-.5 0-.8l.2-1.3.4-1 .2-.3" fill="#783634" fill-rule="nonzero"/></g></g><g opacity=".4"><clipPath id="X"><path d="M67.7 140.1h1.5v5.7h-1.5z"/></clipPath><g clip-path="url(#X)"><path d="M68.4 140.1v.3l.1.7v.9l.2 1 .1 1 .2.9.2.7v.2l-.2-.1-.5-.6-.5-.8-.2-.6-.1-.6V142c0-.4.2-.7.3-1 0-.3.2-.5.3-.6l.1-.3" fill="#783634" fill-rule="nonzero"/></g></g><g opacity=".6"><clipPath id="Y"><path d="M49 141.3h1.2v5.7H49z"/></clipPath><g clip-path="url(#Y)"><path d="M50.2 141.3v1l-.2.9v3.8l-.1-.2-.4-.6c-.2-.2-.3-.5-.4-1v-.5l-.1-.6v-.6l.2-.5c0-.4.2-.7.4-1l.4-.5a3.4 3.4 0 0 1 .2-.2" fill="#783634" fill-rule="nonzero"/></g></g><g opacity=".6"><clipPath id="Z"><path d="M62.2 139.7h2v8h-2z"/></clipPath><g clip-path="url(#Z)"><path d="M63 139.7v2.6l.2 1.5c0 .5.2 1 .3 1.4l.1.7a9.4 9.4 0 0 1 .2.6l.3.9v.3l-.2-.2-.6-.8-.7-1.2-.2-.8-.2-.8v-1.6c0-.5.2-1 .3-1.4l.4-.9.1-.3" fill="#783634" fill-rule="nonzero"/></g></g><path d="M56.8 139.8v1.3l-.1 1.4-.1 1.5v1.4l.2.7v.6l.3 1 .1.3-.2-.3-.6-.8a10.3 10.3 0 0 1-.3-.6c-.2-.2-.2-.5-.3-.7l-.1-.8-.1-.8v-.9l.2-.8c0-.5.3-.9.4-1.3l.6-1.2" fill="#783634" fill-rule="nonzero"/><g opacity=".6"><clipPath id="aa"><path d="M152.3 103.2H177v27.4h-24.6z"/></clipPath><g clip-path="url(#aa)"><path d="M159.8 103.2l1.7 10-3.7.4 2.7 1.6-8.2 6.4 9.7-2.7-.9 2.3 2.6-1.4 6.2 10.8-2.7-11.3 2-.6-1.5-1.7 9.2-5.4-9.5 1.3v-2.5l-3 1.6-4.6-8.8z" fill="#e687ae" fill-rule="nonzero"/></g></g></g><defs><linearGradient id="a" x2="1" gradientUnits="userSpaceOnUse" gradientTransform="translate(135 146.9) scale(33.7354)"><stop offset="0%" stop-color="#d97571"/><stop offset="100%" stop-color="#a55758"/></linearGradient><linearGradient id="j" x2="1" gradientUnits="userSpaceOnUse" gradientTransform="translate(63.1 109.3) scale(71.7979)"><stop offset="0%" stop-color="#df9798"/><stop offset="100%" stop-color="#c36a67"/></linearGradient><linearGradient id="l" x2="1" gradientUnits="userSpaceOnUse" gradientTransform="translate(62.7 106.6) scale(72.5195)"><stop offset="0%" stop-color="#d97563"/><stop offset="100%" stop-color="#713a32"/></linearGradient><linearGradient id="G" x2="1" gradientUnits="userSpaceOnUse" gradientTransform="rotate(-180 85.7 78.9) scale(16.7598)"><stop offset="0%" stop-color="#dc8477"/><stop offset="100%" stop-color="#c15543"/></linearGradient><linearGradient id="I" x2="1" gradientUnits="userSpaceOnUse" gradientTransform="rotate(90 4.9 156.3) scale(19.8354)"><stop offset="0%" stop-color="#d97571"/><stop offset="100%" stop-color="#a55758"/></linearGradient><linearGradient id="J" x2="1" gradientUnits="userSpaceOnUse" gradientTransform="translate(159.3 135.3) scale(7.83105)"><stop offset="0%" stop-color="#df9798"/><stop offset="100%" stop-color="#d97571"/></linearGradient><linearGradient id="R" x2="1" gradientUnits="userSpaceOnUse" gradientTransform="rotate(-180 56.6 78.8) scale(81.7129)"><stop offset="0%" stop-color="#e09570"/><stop offset="100%" stop-color="#da7568"/></linearGradient><linearGradient id="T" x2="1" gradientUnits="userSpaceOnUse" gradientTransform="rotate(90 -38 108.9) scale(29.3525)"><stop offset="0%" stop-color="#d6625b"/><stop offset="100%" stop-color="#a6574a"/></linearGradient></defs></svg>